<svg width="1134" height="1134" viewBox="0 0 1134 1134" fill="none" xmlns="http://www.w3.org/2000/svg">
<g clip-path="url(#clip0_138_30)">
<path d="M548.707 -0.203112C550.073 -0.210093 551.439 -0.217134 552.806 -0.22423C557.141 -0.243482 561.477 -0.248405 565.813 -0.249987C566.92 -0.250871 566.92 -0.250871 568.049 -0.251773C590.179 -0.264243 612.025 0.0970283 634 3.00001C635.767 3.21682 635.767 3.21682 637.569 3.438C690.216 9.92994 742.416 23.5785 791 45C792.024 45.4509 793.049 45.9017 794.104 46.3662C801.118 49.4764 808.074 52.6986 815 56C816.381 56.6567 816.381 56.6567 817.791 57.3267C851.213 73.3291 882.628 93.4614 912 116C912.606 116.464 913.212 116.928 913.836 117.406C925.48 126.355 936.637 135.849 947.498 145.733C949.065 147.153 950.639 148.565 952.223 149.966C958.577 155.599 964.635 161.48 970.624 167.493C972.193 169.068 973.767 170.637 975.342 172.205C980.772 177.631 986.031 183.144 991 189C992.022 190.168 993.045 191.335 994.07 192.5C1006.85 207.114 1018.83 222.114 1030 238C1030.48 238.675 1030.95 239.351 1031.44 240.046C1070.06 294.874 1099.13 356.062 1116 421C1116.25 421.961 1116.25 421.961 1116.5 422.942C1127.09 463.874 1134.06 506.363 1134.2 548.707C1134.21 550.073 1134.22 551.439 1134.22 552.805C1134.24 557.141 1134.25 561.477 1134.25 565.812C1134.25 566.92 1134.25 566.92 1134.25 568.049C1134.26 590.179 1133.9 612.025 1131 634C1130.86 635.178 1130.71 636.355 1130.56 637.569C1124.07 690.216 1110.42 742.416 1089 791C1088.55 792.024 1088.1 793.049 1087.63 794.104C1084.52 801.118 1081.3 808.074 1078 815C1077.56 815.921 1077.12 816.842 1076.67 817.791C1060.67 851.212 1040.54 882.628 1018 912C1017.54 912.606 1017.07 913.212 1016.59 913.836C1007.64 925.48 998.151 936.637 988.267 947.498C986.847 949.065 985.435 950.639 984.034 952.223C978.402 958.577 972.52 964.634 966.507 970.624C964.932 972.193 963.364 973.767 961.795 975.342C956.369 980.772 950.856 986.031 945 991C943.832 992.022 942.665 993.045 941.5 994.07C926.886 1006.85 911.886 1018.83 896 1030C895.325 1030.48 894.65 1030.95 893.954 1031.44C839.126 1070.06 777.938 1099.13 713 1116C712.359 1116.17 711.719 1116.33 711.059 1116.5C670.126 1127.09 627.638 1134.06 585.293 1134.2C583.927 1134.21 582.561 1134.22 581.195 1134.22C576.859 1134.24 572.523 1134.25 568.188 1134.25C567.081 1134.25 567.081 1134.25 565.951 1134.25C543.821 1134.26 521.975 1133.9 500 1131C498.822 1130.86 497.645 1130.71 496.431 1130.56C443.784 1124.07 391.584 1110.42 343 1089C341.976 1088.55 340.951 1088.1 339.896 1087.63C332.882 1084.52 325.926 1081.3 319 1078C318.079 1077.56 317.158 1077.12 316.21 1076.67C282.788 1060.67 251.372 1040.54 222 1018C221.394 1017.54 220.788 1017.07 220.164 1016.59C208.52 1007.64 197.363 998.151 186.502 988.267C184.935 986.847 183.361 985.435 181.777 984.034C175.423 978.401 169.366 972.52 163.376 966.507C161.807 964.932 160.233 963.363 158.658 961.795C153.228 956.369 147.969 950.856 143 945C141.979 943.832 140.955 942.665 139.93 941.5C107.375 904.274 80.2162 863.173 58.0001 819C57.5133 818.041 57.0266 817.082 56.525 816.094C38.0829 779.581 24.7682 740.67 15.0001 701C14.7218 699.87 14.4436 698.741 14.1569 697.577C5.29905 661.028 -0.0717283 622.917 -0.203005 585.293C-0.209987 583.927 -0.217028 582.561 -0.224124 581.195C-0.243375 576.859 -0.248299 572.523 -0.24988 568.188C-0.25047 567.449 -0.251043 566.711 -0.25165 565.951C-0.264121 543.821 0.0971351 521.975 3.00012 500C3.21692 498.233 3.21692 498.233 3.43811 496.431C9.93005 443.784 23.5786 391.584 45.0001 343C45.451 341.976 45.9018 340.951 46.3663 339.896C49.4765 332.882 52.6988 325.926 56.0001 319C56.4379 318.079 56.8757 317.158 57.3268 316.209C73.3292 282.788 93.4615 251.372 116 222C116.696 221.091 116.696 221.091 117.406 220.164C126.355 208.52 135.849 197.363 145.733 186.502C147.153 184.935 148.565 183.361 149.966 181.777C155.599 175.423 161.48 169.366 167.494 163.376C169.068 161.807 170.637 160.233 172.205 158.658C177.631 153.228 183.144 147.969 189 143C190.168 141.978 191.335 140.955 192.5 139.93C207.114 127.149 222.114 115.167 238 104C238.675 103.523 239.351 103.046 240.047 102.555C294.874 63.9445 356.062 34.8736 421 18C421.641 17.8335 422.282 17.667 422.942 17.4954C463.874 6.90877 506.363 -0.0553632 548.707 -0.203112Z" fill="#F9F5F0"/>
<path d="M548.707 -0.203112C550.073 -0.210093 551.439 -0.217134 552.806 -0.22423C557.141 -0.243482 561.477 -0.248405 565.813 -0.249987C566.92 -0.250871 566.92 -0.250871 568.049 -0.251773C590.179 -0.264243 612.025 0.0970283 634 3.00001C635.767 3.21682 635.767 3.21682 637.569 3.438C690.216 9.92994 742.416 23.5785 791 45C792.024 45.4509 793.049 45.9017 794.104 46.3662C801.118 49.4764 808.074 52.6986 815 56C816.381 56.6567 816.381 56.6567 817.791 57.3267C851.213 73.3291 882.628 93.4614 912 116C912.606 116.464 913.212 116.928 913.836 117.406C925.48 126.355 936.637 135.849 947.498 145.733C949.065 147.153 950.639 148.565 952.223 149.966C958.577 155.599 964.635 161.48 970.624 167.493C972.193 169.068 973.767 170.637 975.342 172.205C980.772 177.631 986.031 183.144 991 189C992.022 190.168 993.045 191.335 994.07 192.5C1006.85 207.114 1018.83 222.114 1030 238C1030.48 238.675 1030.95 239.351 1031.44 240.046C1070.06 294.874 1099.13 356.062 1116 421C1116.25 421.961 1116.25 421.961 1116.5 422.942C1127.09 463.874 1134.06 506.363 1134.2 548.707C1134.21 550.073 1134.22 551.439 1134.22 552.805C1134.24 557.141 1134.25 561.477 1134.25 565.812C1134.25 566.92 1134.25 566.92 1134.25 568.049C1134.26 590.179 1133.9 612.025 1131 634C1130.86 635.178 1130.71 636.355 1130.56 637.569C1124.07 690.216 1110.42 742.416 1089 791C1088.55 792.024 1088.1 793.049 1087.63 794.104C1084.52 801.118 1081.3 808.074 1078 815C1077.56 815.921 1077.12 816.842 1076.67 817.791C1060.67 851.212 1040.54 882.628 1018 912C1017.54 912.606 1017.07 913.212 1016.59 913.836C1007.64 925.48 998.151 936.637 988.267 947.498C986.847 949.065 985.435 950.639 984.034 952.223C978.402 958.577 972.52 964.634 966.507 970.624C964.932 972.193 963.364 973.767 961.795 975.342C956.369 980.772 950.856 986.031 945 991C943.832 992.022 942.665 993.045 941.5 994.07C926.886 1006.85 911.886 1018.83 896 1030C895.325 1030.48 894.65 1030.95 893.954 1031.44C839.126 1070.06 777.938 1099.13 713 1116C712.359 1116.17 711.719 1116.33 711.059 1116.5C670.126 1127.09 627.638 1134.06 585.293 1134.2C583.927 1134.21 582.561 1134.22 581.195 1134.22C576.859 1134.24 572.523 1134.25 568.188 1134.25C567.081 1134.25 567.081 1134.25 565.951 1134.25C543.821 1134.26 521.975 1133.9 500 1131C498.822 1130.86 497.645 1130.71 496.431 1130.56C443.784 1124.07 391.584 1110.42 343 1089C341.976 1088.55 340.951 1088.1 339.896 1087.63C332.882 1084.52 325.926 1081.3 319 1078C318.079 1077.56 317.158 1077.12 316.21 1076.67C282.788 1060.67 251.372 1040.54 222 1018C221.394 1017.54 220.788 1017.07 220.164 1016.59C208.52 1007.64 197.363 998.151 186.502 988.267C184.935 986.847 183.361 985.435 181.777 984.034C175.423 978.401 169.366 972.52 163.376 966.507C161.807 964.932 160.233 963.363 158.658 961.795C153.228 956.369 147.969 950.856 143 945C141.979 943.832 140.955 942.665 139.93 941.5C107.375 904.274 80.2162 863.173 58.0001 819C57.5133 818.041 57.0266 817.082 56.525 816.094C38.0829 779.581 24.7682 740.67 15.0001 701C14.7218 699.87 14.4436 698.741 14.1569 697.577C5.29905 661.028 -0.0717283 622.917 -0.203005 585.293C-0.209987 583.927 -0.217028 582.561 -0.224124 581.195C-0.243375 576.859 -0.248299 572.523 -0.24988 568.188C-0.25047 567.449 -0.251043 566.711 -0.25165 565.951C-0.264121 543.821 0.0971351 521.975 3.00012 500C3.21692 498.233 3.21692 498.233 3.43811 496.431C9.93005 443.784 23.5786 391.584 45.0001 343C45.451 341.976 45.9018 340.951 46.3663 339.896C49.4765 332.882 52.6988 325.926 56.0001 319C56.4379 318.079 56.8757 317.158 57.3268 316.209C73.3292 282.788 93.4615 251.372 116 222C116.696 221.091 116.696 221.091 117.406 220.164C126.355 208.52 135.849 197.363 145.733 186.502C147.153 184.935 148.565 183.361 149.966 181.777C155.599 175.423 161.48 169.366 167.494 163.376C169.068 161.807 170.637 160.233 172.205 158.658C177.631 153.228 183.144 147.969 189 143C190.168 141.978 191.335 140.955 192.5 139.93C207.114 127.149 222.114 115.167 238 104C238.675 103.523 239.351 103.046 240.047 102.555C294.874 63.9445 356.062 34.8736 421 18C421.641 17.8335 422.282 17.667 422.942 17.4954C463.874 6.90877 506.363 -0.0553632 548.707 -0.203112ZM512 40C511.017 40.1131 511.017 40.1131 510.013 40.2285C481.751 43.4807 453.147 47.6083 426.001 56.3775C423.76 57.0747 421.506 57.7037 419.242 58.3242C348.195 77.805 282.38 113.794 226 161C225.361 161.534 224.723 162.069 224.065 162.619C218.071 167.652 212.097 172.668 206.675 178.325C205.004 179.996 203.266 181.518 201.465 183.047C196.221 187.608 191.34 192.515 186.438 197.438C185.531 198.341 184.624 199.243 183.69 200.174C178.582 205.288 173.694 210.506 169 216C167.979 217.157 166.955 218.312 165.93 219.465C158.404 227.993 151.383 236.812 144.569 245.917C143.076 247.899 141.564 249.864 140.043 251.824C127.819 267.679 116.983 284.653 107 302C106.448 302.953 106.448 302.953 105.884 303.925C79.8618 349.008 60.51 397.836 49.0001 448.625C48.8303 449.371 48.6604 450.117 48.4854 450.885C27.1349 545.188 32.7056 643.853 89.0001 800C89.6273 801.316 89.6273 801.316 90.2672 802.658C105.575 834.764 125.002 865.08 147 893C147.664 893.847 148.328 894.694 149.012 895.566C157.094 905.78 165.55 915.64 174.406 925.188C176.684 927.657 178.908 930.164 181.125 932.688C185.452 937.507 189.992 942.101 194.563 946.688C195.625 947.757 195.625 947.757 196.71 948.848C200.746 952.873 204.881 956.718 209.198 960.439C211.561 962.486 213.839 964.618 216.125 966.75C221.332 971.498 226.774 975.85 232.348 980.156C234.782 982.038 237.182 983.953 239.559 985.906C248.597 993.318 258.015 999.993 267.733 1006.48C269.833 1007.89 271.926 1009.31 274.016 1010.73C282.493 1016.47 291.137 1021.87 300 1027C300.647 1027.38 301.294 1027.75 301.96 1028.14C347.032 1054.15 395.85 1073.49 446.625 1085C447.744 1085.25 447.744 1085.25 448.885 1085.51C481.76 1092.96 515.278 1097.44 549 1098C549.754 1098.01 550.507 1098.03 551.283 1098.04C605.989 1098.98 659.258 1093.13 712 1078C712.918 1077.74 713.835 1077.48 714.781 1077.21C743.495 1069.02 771.15 1058.02 798 1045C798.877 1044.58 799.755 1044.16 800.658 1043.73C832.764 1028.43 863.08 1009 891 987C891.847 986.336 892.694 985.672 893.567 984.988C903.78 976.906 913.641 968.45 923.188 959.594C925.657 957.316 928.164 955.092 930.688 952.875C935.507 948.549 940.101 944.008 944.688 939.438C945.757 938.375 945.757 938.375 946.849 937.291C950.873 933.254 954.718 929.119 958.439 924.802C960.486 922.439 962.618 920.161 964.75 917.875C969.498 912.668 973.85 907.226 978.156 901.652C980.038 899.219 981.953 896.818 983.906 894.441C991.328 885.391 998.008 875.96 1004.51 866.228C1005.84 864.241 1007.19 862.268 1008.55 860.301C1021.26 841.827 1031.95 822.013 1042 802C1042.47 801.079 1042.93 800.159 1043.41 799.21C1059.35 767.457 1071.42 733.467 1080 699C1080.28 697.893 1080.56 696.786 1080.85 695.645C1091.62 652.608 1096.24 609.175 1096.19 564.875C1096.19 563.794 1096.19 562.714 1096.18 561.6C1096.15 545.642 1095.92 529.861 1094 514C1093.92 513.311 1093.84 512.622 1093.75 511.913C1090.73 486.735 1090.73 486.735 1085.89 461.859C1085.01 458.045 1084.28 454.224 1083.56 450.375C1082.22 443.628 1080.38 437.122 1078.37 430.551C1077.42 427.435 1076.52 424.31 1075.66 421.168C1056.12 350.129 1020.19 284.405 973 228C972.503 227.404 972.006 226.808 971.494 226.193C960.333 212.852 948.399 200.319 936.125 188C935.245 187.116 934.366 186.231 933.459 185.32C928.466 180.339 923.358 175.585 918 171C916.843 169.979 915.688 168.955 914.535 167.93C906.007 160.404 897.188 153.383 888.084 146.569C886.101 145.076 884.136 143.564 882.176 142.043C866.321 129.819 849.347 118.982 832 109C831.365 108.632 830.73 108.263 830.075 107.884C801.185 91.2083 770.923 77.259 739.252 66.7515C737.012 66.0039 734.781 65.2335 732.551 64.457C696.508 52.0049 658.81 44.2923 620.938 40.25C619.319 40.0765 619.319 40.0765 617.668 39.8994C599.085 38.071 580.409 37.7902 561.75 37.8125C560.722 37.8134 559.694 37.8144 558.634 37.8153C542.994 37.8461 527.548 38.1588 512 40Z" fill="#FD8002"/>
<path d="M683.625 389.562C684.425 389.562 685.225 389.562 686.049 389.561C715.983 389.647 745.884 395.908 772 411C772.899 411.52 772.899 411.52 773.817 412.05C782.998 417.458 791.096 423.877 799 431C799.715 431.632 800.431 432.263 801.168 432.914C825.978 456.139 837.637 489.922 840 523C808.65 523 777.3 523 745 523C744.01 517.06 744.01 517.06 743 511C738.845 497.587 731.222 486.359 719 479.312C701.743 470.606 682.101 469.074 663.582 474.746C653.267 478.357 645.682 483.238 638 491C637.375 491.592 636.75 492.183 636.106 492.793C617.455 511.864 614.753 542.354 614.688 567.5C614.684 568.174 614.68 568.848 614.676 569.542C614.651 578.547 615.331 587.152 617 596C617.146 596.78 617.292 597.56 617.442 598.364C621.511 618.811 629.245 638.541 647.125 650.625C664.178 661.069 685.526 662.975 704.981 658.873C718.382 655.461 728.774 648.783 736.816 637.438C741.371 629.766 742.592 623.031 745 614C776.35 614 807.7 614 840 614C838.821 628.152 838.821 628.152 836.938 635.062C836.614 636.261 836.614 636.261 836.284 637.483C826.293 672.814 802.028 703.579 770.182 721.796C727.403 745.407 677.502 748.813 630.635 736.061C605.827 728.836 584.512 715.851 566 698C565.221 697.285 564.443 696.569 563.641 695.832C535.902 669.618 523.768 630.723 519 594C518.896 593.298 518.792 592.595 518.685 591.872C517.622 583.988 517.801 576.003 517.813 568.062C517.813 567.278 517.814 566.493 517.814 565.685C517.838 554.329 518.13 543.222 520 532C520.129 531.163 520.258 530.326 520.391 529.464C527.179 485.726 547.205 446.981 583.226 420.278C600.401 407.905 620.054 399.236 640.563 394.25C641.376 394.051 642.19 393.852 643.028 393.648C656.494 390.55 669.86 389.555 683.625 389.562Z" fill="#241D7A"/>
<path d="M430.192 425.695C452.198 445.142 466.573 468.833 473.688 497.25C473.902 498.083 474.117 498.916 474.339 499.774C476.237 507.713 476.435 514.525 477 523C445.65 523 414.3 523 382 523C381.34 518.71 380.68 514.42 380 510C375.892 498.159 369.965 487.616 359 481C357.946 480.343 357.946 480.343 356.871 479.672C340.839 470.666 320.207 469.362 302.65 474.095C286.466 478.996 273.696 489.59 265.192 504.082C248.12 536.207 247.872 578.261 257.745 612.591C259.17 616.902 260.943 620.947 263 625C263.4 625.837 263.799 626.673 264.211 627.535C271.316 641.436 282.497 651.335 297 657C305.625 659.765 313.669 660.439 322.688 660.312C324.425 660.317 324.425 660.317 326.197 660.322C341.946 660.224 356.104 655.712 368 645C375.934 635.971 379.593 625.358 383 614C414.02 614 445.04 614 477 614C474.379 648.074 459.334 675.446 436 700C435.43 700.634 434.861 701.268 434.274 701.922C416.575 720.982 389.033 733.522 364 739C363.173 739.2 362.345 739.4 361.492 739.605C359.002 740.167 356.522 740.603 354 741C352.826 741.186 351.651 741.371 350.442 741.562C327.2 744.847 303.931 743.666 281 739C279.813 738.776 279.813 738.776 278.602 738.547C249.495 733.032 224.367 718.112 203 698C202.399 697.452 201.799 696.904 201.18 696.34C180.506 676.772 167.921 648.82 161.313 621.562C161.122 620.778 160.932 619.993 160.736 619.185C160.109 616.465 159.549 613.737 159 611C158.736 609.75 158.472 608.5 158.2 607.213C155.827 595.213 155.57 583.419 155.664 571.214C155.688 567.938 155.684 564.664 155.678 561.389C155.698 544.818 156.902 529.101 160.75 512.938C161.013 511.823 161.276 510.708 161.547 509.559C171.119 470.241 195.479 435.335 230 414C289.251 378.469 376.51 379.607 430.192 425.695Z" fill="#241D7A"/>
<path d="M548.707 -0.203112C550.073 -0.210093 551.439 -0.217134 552.806 -0.22423C557.141 -0.243482 561.477 -0.248405 565.813 -0.249987C566.92 -0.250871 566.92 -0.250871 568.049 -0.251773C590.179 -0.264243 612.025 0.0970283 634 3.00001C635.767 3.21682 635.767 3.21682 637.569 3.438C690.216 9.92994 742.416 23.5785 791 45C792.024 45.4509 793.049 45.9017 794.104 46.3662C801.118 49.4764 808.074 52.6986 815 56C816.381 56.6567 816.381 56.6567 817.791 57.3267C851.213 73.3291 882.628 93.4614 912 116C912.606 116.464 913.212 116.928 913.836 117.406C925.48 126.355 936.637 135.849 947.498 145.733C949.065 147.153 950.639 148.565 952.223 149.966C958.577 155.599 964.635 161.48 970.624 167.493C972.193 169.068 973.767 170.637 975.342 172.205C980.772 177.631 986.031 183.144 991 189C992.022 190.168 993.045 191.335 994.07 192.5C1006.85 207.114 1018.83 222.114 1030 238C1030.48 238.675 1030.95 239.351 1031.44 240.046C1070.06 294.874 1099.13 356.062 1116 421C1116.25 421.961 1116.25 421.961 1116.5 422.942C1127.09 463.874 1134.06 506.363 1134.2 548.707C1134.21 550.073 1134.22 551.439 1134.22 552.805C1134.24 557.141 1134.25 561.477 1134.25 565.812C1134.25 566.92 1134.25 566.92 1134.25 568.049C1134.26 590.179 1133.9 612.025 1131 634C1130.86 635.178 1130.71 636.355 1130.56 637.569C1124.07 690.216 1110.42 742.416 1089 791C1088.55 792.024 1088.1 793.049 1087.63 794.104C1084.52 801.118 1081.3 808.074 1078 815C1077.56 815.921 1077.12 816.842 1076.67 817.791C1060.67 851.212 1040.54 882.628 1018 912C1017.54 912.606 1017.07 913.212 1016.59 913.836C1007.64 925.48 998.151 936.637 988.267 947.498C986.847 949.065 985.435 950.639 984.034 952.223C978.402 958.577 972.52 964.634 966.507 970.624C964.932 972.193 963.364 973.767 961.795 975.342C956.369 980.772 950.856 986.031 945 991C943.832 992.022 942.665 993.045 941.5 994.07C926.886 1006.85 911.886 1018.83 896 1030C895.325 1030.48 894.65 1030.95 893.954 1031.44C839.126 1070.06 777.938 1099.13 713 1116C712.359 1116.17 711.719 1116.33 711.059 1116.5C670.126 1127.09 627.638 1134.06 585.293 1134.2C583.927 1134.21 582.561 1134.22 581.195 1134.22C576.859 1134.24 572.523 1134.25 568.188 1134.25C567.081 1134.25 567.081 1134.25 565.951 1134.25C543.821 1134.26 521.975 1133.9 500 1131C498.822 1130.86 497.645 1130.71 496.431 1130.56C443.784 1124.07 391.584 1110.42 343 1089C341.976 1088.55 340.951 1088.1 339.896 1087.63C332.882 1084.52 325.926 1081.3 319 1078C318.079 1077.56 317.158 1077.12 316.21 1076.67C282.788 1060.67 251.372 1040.54 222 1018C221.394 1017.54 220.788 1017.07 220.164 1016.59C208.52 1007.64 197.363 998.151 186.502 988.267C184.935 986.847 183.361 985.435 181.777 984.034C175.423 978.401 169.366 972.52 163.376 966.507C161.807 964.932 160.233 963.363 158.658 961.795C153.228 956.369 147.969 950.856 143 945C141.979 943.832 140.955 942.665 139.93 941.5C107.375 904.274 80.2162 863.173 58.0001 819C57.5133 818.041 57.0266 817.082 56.525 816.094C38.0829 779.581 24.7682 740.67 15.0001 701C14.7218 699.87 14.4436 698.741 14.1569 697.577C5.29905 661.028 -0.0717283 622.917 -0.203005 585.293C-0.209987 583.927 -0.217028 582.561 -0.224124 581.195C-0.243375 576.859 -0.248299 572.523 -0.24988 568.188C-0.25047 567.449 -0.251043 566.711 -0.25165 565.951C-0.264121 543.821 0.0971351 521.975 3.00012 500C3.21692 498.233 3.21692 498.233 3.43811 496.431C9.93005 443.784 23.5786 391.584 45.0001 343C45.451 341.976 45.9018 340.951 46.3663 339.896C49.4765 332.882 52.6988 325.926 56.0001 319C56.4379 318.079 56.8757 317.158 57.3268 316.209C73.3292 282.788 93.4615 251.372 116 222C116.696 221.091 116.696 221.091 117.406 220.164C126.355 208.52 135.849 197.363 145.733 186.502C147.153 184.935 148.565 183.361 149.966 181.777C155.599 175.423 161.48 169.366 167.494 163.376C169.068 161.807 170.637 160.233 172.205 158.658C177.631 153.228 183.144 147.969 189 143C190.168 141.978 191.335 140.955 192.5 139.93C207.114 127.149 222.114 115.167 238 104C238.675 103.523 239.351 103.046 240.047 102.555C294.874 63.9445 356.062 34.8736 421 18C421.641 17.8335 422.282 17.667 422.942 17.4954C463.874 6.90877 506.363 -0.0553632 548.707 -0.203112ZM315 78C313.773 78.6118 313.773 78.6118 312.521 79.2359C279.269 95.9215 247.378 116.962 219 141C217.934 141.892 216.868 142.784 215.801 143.676C209.949 148.581 204.177 153.559 198.532 158.703C196.96 160.13 195.38 161.548 193.789 162.954C187.278 168.721 181.085 174.761 174.949 180.921C173.308 182.567 171.661 184.209 170.014 185.85C164.465 191.394 159.075 197.014 154 203C152.955 204.192 151.908 205.382 150.859 206.57C144.109 214.271 137.586 222.097 131.359 230.229C130.009 231.988 128.646 233.736 127.281 235.484C91.4318 281.894 63.2875 335.352 44.7115 390.889C44.0743 392.78 43.4119 394.662 42.7462 396.543C30.0701 432.898 22.7021 470.842 18.7501 509.062C18.6671 509.854 18.5842 510.646 18.4987 511.462C16.3885 531.861 15.7674 552.251 15.7501 572.75C15.7484 573.81 15.7468 574.87 15.7451 575.963C15.7433 594.483 16.8264 612.616 19.0001 631C19.183 632.729 19.3631 634.458 19.5392 636.188C21.4327 654.306 25.2967 672.183 29.0001 690C29.1609 690.778 29.3217 691.557 29.4874 692.359C32.3888 706.171 36.7144 719.567 41.0001 733C41.3417 734.086 41.6833 735.172 42.0353 736.291C63.2311 803.465 97.6416 866.079 143 920C143.447 920.532 143.893 921.063 144.354 921.611C145.835 923.37 147.323 925.123 148.813 926.875C149.25 927.392 149.687 927.908 150.137 928.44C159.5 939.374 169.517 949.703 179.691 959.876C181.57 961.757 183.44 963.646 185.311 965.535C191.507 971.76 197.735 977.686 204.65 983.117C207.08 985.064 209.353 987.123 211.625 989.25C218.021 995.069 224.94 1000.19 231.849 1005.38C233.826 1006.87 235.785 1008.38 237.738 1009.9C295.121 1054.3 364.555 1086.02 435 1103C435.804 1103.2 436.607 1103.4 437.435 1103.6C459.993 1109.16 482.866 1112.69 505.938 1115.25C507.056 1115.37 507.056 1115.37 508.198 1115.5C513.128 1116.04 518.061 1116.54 523 1117C524.128 1117.11 525.255 1117.21 526.417 1117.32C539.56 1118.37 552.761 1118.24 565.938 1118.25C567.228 1118.25 568.518 1118.25 569.847 1118.26C588.399 1118.26 606.604 1117.73 625.016 1115.38C628.489 1114.94 631.966 1114.59 635.451 1114.26C641.671 1113.61 647.818 1112.75 653.973 1111.64C654.705 1111.51 655.437 1111.38 656.192 1111.24C663.98 1109.84 671.747 1108.34 679.5 1106.75C680.228 1106.6 680.955 1106.45 681.705 1106.3C695.33 1103.5 708.682 1100.02 722 1096C723.368 1095.6 724.737 1095.2 726.106 1094.8C766.068 1082.8 804.876 1065.88 841 1045C841.801 1044.54 842.603 1044.08 843.428 1043.6C869.79 1028.38 894.667 1010.54 918 991C918.607 990.492 919.214 989.985 919.839 989.461C921.627 987.959 923.409 986.451 925.188 984.938C925.685 984.516 926.182 984.094 926.695 983.66C937.529 974.35 947.781 964.406 957.877 954.309C959.757 952.43 961.646 950.56 963.535 948.689C969.76 942.493 975.686 936.265 981.117 929.35C983.064 926.921 985.123 924.647 987.25 922.375C993.069 915.979 998.19 909.06 1003.38 902.151C1004.87 900.175 1006.38 898.215 1007.9 896.262C1052.16 839.063 1084.18 769.228 1101 699C1101.31 697.741 1101.61 696.481 1101.92 695.184C1106.69 675.256 1110.01 655.281 1112.44 634.938C1112.56 633.897 1112.69 632.856 1112.82 631.783C1115.23 611.557 1116.21 591.424 1116.19 571.062C1116.19 570.222 1116.19 569.382 1116.19 568.517C1116.15 543.773 1115.77 518.687 1111.38 494.283C1110.81 490.893 1110.4 487.487 1109.97 484.077C1107.71 466.152 1104.25 448.476 1099.18 431.129C1098 427.072 1096.99 422.983 1096 418.875C1087.45 384.14 1072.91 350.916 1057 319C1056.59 318.175 1056.18 317.35 1055.76 316.5C1038.72 282.549 1017.56 249.99 993 221C992.108 219.934 991.216 218.868 990.324 217.801C985.419 211.949 980.441 206.177 975.297 200.532C973.87 198.96 972.452 197.38 971.046 195.789C965.279 189.278 959.239 183.085 953.079 176.949C951.433 175.308 949.791 173.661 948.151 172.014C942.606 166.465 936.986 161.075 931 156C929.808 154.955 928.618 153.908 927.43 152.859C919.729 146.109 911.903 139.585 903.772 133.359C902.012 132.009 900.264 130.646 898.516 129.281C834.597 79.9065 757.996 45.4406 679 29C678.308 28.8522 677.617 28.7043 676.904 28.552C664.24 25.8526 651.61 23.8603 638.75 22.375C637.853 22.2698 636.955 22.1647 636.031 22.0563C630.759 21.4392 625.485 20.8392 620.21 20.25C618.316 20.0358 616.424 19.8112 614.532 19.5845C531.565 9.68992 442.629 24.65 315 78Z" fill="#251D79"/>
<path d="M882 395C912.69 395 943.38 395 975 395C975 508.19 975 621.38 975 738C944.31 738 913.62 738 882 738C882 624.81 882 511.62 882 395Z" fill="#FE7E00"/>
</g>
<defs>
<clipPath id="clip0_138_30">
<rect width="1134" height="1134" fill="white"/>
</clipPath>
</defs>
</svg>
