<svg width="1275" height="1275" viewBox="0 0 1275 1275" fill="none" xmlns="http://www.w3.org/2000/svg">
<path fill-rule="evenodd" clip-rule="evenodd" d="M1195.31 876.562C1195.31 788.548 1123.95 717.188 1035.94 717.188C938.579 717.188 814.546 717.188 717.188 717.188C629.173 717.188 557.812 788.548 557.812 876.562C557.812 944.277 557.812 1020.26 557.812 1075.78C557.812 1119.79 593.493 1155.47 637.5 1155.47H1115.62C1159.63 1155.47 1195.31 1119.79 1195.31 1075.78V876.562Z" fill="#241D7A"/>
<path fill-rule="evenodd" clip-rule="evenodd" d="M1035.94 996.094H1195.31V1075.78C1195.31 1096.92 1186.93 1117.18 1171.96 1132.12C1157.02 1147.08 1136.76 1155.47 1115.62 1155.47C1075.78 1155.47 1035.94 1155.47 1035.94 1155.47V996.094Z" fill="#F9BD97"/>
<path fill-rule="evenodd" clip-rule="evenodd" d="M836.719 632.44C849.628 635.767 863.016 637.5 876.562 637.5H876.602C890.348 637.5 903.696 635.767 916.406 632.48V677.344C916.406 699.357 934.236 717.187 956.25 717.187C976.172 717.187 996.094 717.187 996.094 717.187C996.094 783.149 942.524 836.719 876.562 836.719C810.601 836.719 757.031 783.149 757.031 717.187H796.875C818.889 717.187 836.719 699.357 836.719 677.344V632.44Z" fill="#FFC29B"/>
<path fill-rule="evenodd" clip-rule="evenodd" d="M1115.62 358.594C1115.62 295.182 1090.44 234.381 1045.6 189.557C1000.78 144.713 939.974 119.531 876.562 119.531H876.483C813.091 119.531 752.31 144.713 707.506 189.537C662.681 234.341 637.5 295.123 637.5 358.514V398.438C637.5 419.575 645.887 439.835 660.848 454.777C675.79 469.738 696.05 478.125 717.188 478.125C805.621 478.125 947.504 478.125 1035.94 478.125C1057.07 478.125 1077.34 469.738 1092.28 454.777C1107.24 439.835 1115.62 419.575 1115.62 398.438C1115.62 393.875 1115.62 379.113 1115.62 358.594Z" fill="#5B3A25"/>
<path fill-rule="evenodd" clip-rule="evenodd" d="M1035.94 398.438C1035.94 387.879 1031.73 377.739 1024.26 370.268C1016.79 362.797 1006.65 358.594 996.094 358.594C986.332 358.594 975.793 358.594 965.653 358.594C935.471 358.594 907.88 341.541 894.373 314.547C885.169 296.119 876.562 278.906 876.562 278.906C876.562 278.906 867.956 296.119 858.752 314.547C845.245 341.541 817.654 358.594 787.472 358.594C777.332 358.594 766.793 358.594 757.031 358.594C746.473 358.594 736.332 362.797 728.862 370.268C721.391 377.739 717.188 387.879 717.188 398.438C717.188 417.881 717.188 444.437 717.188 478.125C717.188 520.399 733.982 560.94 763.864 590.823C793.747 620.706 834.288 637.5 876.562 637.5H876.602C964.597 637.5 1035.94 566.16 1035.94 478.165C1035.94 444.477 1035.94 417.901 1035.94 398.438Z" fill="#F9BD97"/>
<path fill-rule="evenodd" clip-rule="evenodd" d="M637.5 356.801C637.5 225.755 531.276 119.531 400.23 119.531H400.191C267.192 119.531 159.375 227.349 159.375 360.347C159.375 472.368 159.375 558.211 159.375 637.5C159.375 658.637 167.762 678.898 182.723 693.839C197.665 708.8 217.925 717.188 239.062 717.188C327.496 717.188 469.379 717.188 557.812 717.188C578.95 717.188 599.21 708.8 614.152 693.839C629.113 678.898 637.5 658.637 637.5 637.5C637.5 557.374 637.5 469.698 637.5 356.801Z" fill="#F8BF3F"/>
<path fill-rule="evenodd" clip-rule="evenodd" d="M557.812 398.438C557.812 387.879 553.609 377.739 546.138 370.268C538.668 362.797 528.527 358.594 517.969 358.594C508.207 358.594 497.668 358.594 487.528 358.594C457.346 358.594 429.755 341.541 416.248 314.547C407.044 296.119 398.438 278.906 398.438 278.906C398.438 278.906 389.831 296.119 380.627 314.547C367.12 341.541 339.529 358.594 309.347 358.594C299.207 358.594 288.668 358.594 278.906 358.594C268.348 358.594 258.207 362.797 250.737 370.268C243.266 377.739 239.062 387.879 239.062 398.438C239.062 417.881 239.062 444.437 239.062 478.125C239.062 520.399 255.857 560.94 285.739 590.823C315.622 620.706 356.163 637.5 398.438 637.5H398.477C486.472 637.5 557.812 566.16 557.812 478.165C557.812 444.477 557.812 417.901 557.812 398.438Z" fill="#FFDAB3"/>
<path fill-rule="evenodd" clip-rule="evenodd" d="M717.188 876.562C717.188 788.548 645.827 717.188 557.812 717.188C460.454 717.188 336.421 717.188 239.062 717.188C151.048 717.188 79.6875 788.548 79.6875 876.562C79.6875 944.277 79.6875 1020.26 79.6875 1075.78C79.6875 1119.79 115.368 1155.47 159.375 1155.47H637.5C681.507 1155.47 717.188 1119.79 717.188 1075.78V876.562Z" fill="#FF7E00"/>
<path fill-rule="evenodd" clip-rule="evenodd" d="M239.062 996.094H79.6875V1075.78C79.6875 1096.92 88.0746 1117.18 103.036 1132.12C117.977 1147.08 138.238 1155.47 159.375 1155.47C199.219 1155.47 239.062 1155.47 239.062 1155.47V996.094Z" fill="#FFDAB3"/>
<path fill-rule="evenodd" clip-rule="evenodd" d="M557.812 996.094H717.188V1075.78C717.188 1096.92 708.8 1117.18 693.839 1132.12C678.898 1147.08 658.637 1155.47 637.5 1155.47C597.656 1155.47 557.812 1155.47 557.812 1155.47V996.094Z" fill="#FFDAB3"/>
<path fill-rule="evenodd" clip-rule="evenodd" d="M358.594 632.44C371.503 635.767 384.891 637.5 398.438 637.5H398.477C412.223 637.5 425.571 635.767 438.281 632.48V677.344C438.281 699.357 456.111 717.187 478.125 717.187C498.047 717.187 517.969 717.187 517.969 717.187C517.969 783.149 464.399 836.719 398.438 836.719C332.476 836.719 278.906 783.149 278.906 717.187H318.75C340.764 717.187 358.594 699.357 358.594 677.344V632.44Z" fill="#FFDAB3"/>
<path fill-rule="evenodd" clip-rule="evenodd" d="M906.425 529.902C897.639 534.982 887.439 537.89 876.562 537.89C865.685 537.89 855.485 534.982 846.699 529.902C837.177 524.383 824.984 527.631 819.486 537.154C813.967 546.676 817.215 558.868 826.737 564.386C841.4 572.873 858.413 577.734 876.562 577.734C894.711 577.734 911.724 572.873 926.387 564.386C935.91 558.868 939.157 546.676 933.638 537.154C928.14 527.631 915.948 524.383 906.425 529.902Z" fill="black"/>
<path fill-rule="evenodd" clip-rule="evenodd" d="M428.3 529.902C419.514 534.982 409.314 537.89 398.437 537.89C387.56 537.89 377.36 534.982 368.574 529.902C359.052 524.383 346.859 527.631 341.361 537.154C335.842 546.676 339.09 558.868 348.612 564.386C363.275 572.873 380.288 577.734 398.437 577.734C416.586 577.734 433.599 572.873 448.262 564.386C457.785 558.868 461.032 546.676 455.513 537.154C450.015 527.631 437.823 524.383 428.3 529.902Z" fill="black"/>
<path fill-rule="evenodd" clip-rule="evenodd" d="M1014.6 737.109H1035.94C1112.96 737.109 1175.39 799.545 1175.39 876.562V976.172H1055.86V916.406C1055.86 905.409 1046.93 896.484 1035.94 896.484C1024.94 896.484 1016.02 905.409 1016.02 916.406V1135.55H796.875C785.878 1135.55 776.953 1144.47 776.953 1155.47C776.953 1166.47 785.878 1175.39 796.875 1175.39H1115.62C1170.63 1175.39 1215.23 1130.79 1215.23 1075.78V876.562C1215.23 777.531 1134.97 697.266 1035.94 697.266C1035.94 697.266 976.172 697.266 956.25 697.266C945.253 697.266 936.328 688.341 936.328 677.344V647.222C1000.54 624.551 1047.95 566.339 1054.96 496.214C1074.31 492.449 1092.24 483.006 1106.38 468.881C1125.05 450.195 1135.55 424.854 1135.55 398.438C1135.55 393.875 1135.55 379.113 1135.55 358.594C1135.55 289.903 1108.25 224.042 1059.68 175.472C1011.11 126.903 945.253 99.6094 876.562 99.6094H876.483C807.812 99.6094 741.97 126.882 693.401 175.432C669.475 199.378 650.708 227.528 637.819 258.148C599.11 165.053 507.31 99.6094 400.23 99.6094H400.191C256.196 99.6094 139.453 216.352 139.453 360.347C139.453 472.368 139.453 558.211 139.453 637.5C139.453 663.916 149.952 689.257 168.619 707.944C169.515 708.821 170.392 709.677 171.308 710.514C105.885 737.229 59.7656 801.517 59.7656 876.562V1075.78C59.7656 1130.79 104.371 1175.39 159.375 1175.39H637.5C692.504 1175.39 737.109 1130.79 737.109 1075.78V876.562C737.109 823.451 714 775.718 677.304 742.887C689.954 739.122 703.322 737.109 717.188 737.109H738.524C748.206 804.664 806.358 856.641 876.562 856.641C946.767 856.641 1004.92 804.664 1014.6 737.109ZM1055.86 1135.55H1115.62C1148.64 1135.55 1175.39 1108.79 1175.39 1075.78V1016.02H1055.86V1135.55ZM99.6094 1016.02V1075.78C99.6094 1108.79 126.364 1135.55 159.375 1135.55H219.141V1016.02H99.6094ZM697.266 976.172V876.562C697.266 799.545 634.83 737.109 557.812 737.109H536.476C526.794 804.664 468.642 856.641 398.438 856.641C328.233 856.641 270.081 804.664 260.399 737.109H239.062C162.045 737.109 99.6094 799.545 99.6094 876.562V976.172H219.141V916.406C219.141 905.409 228.066 896.484 239.062 896.484C250.059 896.484 258.984 905.409 258.984 916.406V1135.55H537.891V916.406C537.891 905.409 546.816 896.484 557.812 896.484C568.809 896.484 577.734 905.409 577.734 916.406V976.172H697.266ZM577.734 1135.55H637.5C670.511 1135.55 697.266 1108.79 697.266 1075.78V1016.02H577.734V1135.55ZM856.641 656.306V677.344C856.641 710.354 829.886 737.109 796.875 737.109H778.945C788.189 782.551 828.411 816.797 876.562 816.797C924.714 816.797 964.936 782.551 974.18 737.109H956.25C923.239 737.109 896.484 710.354 896.484 677.344V656.326C889.97 657.044 883.316 657.422 876.603 657.422H876.562C869.869 657.422 863.215 657.043 856.641 656.306ZM378.516 656.306V677.344C378.516 710.354 351.761 737.109 318.75 737.109H300.82C310.064 782.551 350.286 816.797 398.438 816.797C446.589 816.797 486.811 782.551 496.055 737.109H478.125C445.114 737.109 418.359 710.354 418.359 677.344V656.326C411.845 657.044 405.191 657.422 398.478 657.422H398.438C391.744 657.422 385.09 657.043 378.516 656.306ZM657.422 478.125V637.5C657.422 663.916 646.923 689.257 628.256 707.944C627.36 708.821 626.483 709.677 625.567 710.514C629.631 712.167 633.615 713.96 637.5 715.913C661.506 703.979 688.56 697.266 717.188 697.266H796.875C807.872 697.266 816.797 688.341 816.797 677.344V647.162C791.815 638.336 768.865 623.993 749.779 604.908C720.454 575.583 702.326 537.113 698.182 496.214C683.42 493.345 669.475 487.17 657.422 478.125ZM478.125 697.266H557.812C573.67 697.266 588.871 690.97 600.067 679.754C611.283 668.558 617.578 653.358 617.578 637.5C617.578 557.374 617.578 469.698 617.578 356.801C617.578 236.772 520.26 139.453 400.23 139.453H400.191C278.189 139.453 179.297 238.346 179.297 360.347C179.297 472.368 179.297 558.211 179.297 637.5C179.297 653.358 185.592 668.558 196.808 679.754C208.004 690.97 223.205 697.266 239.062 697.266H318.75C329.747 697.266 338.672 688.341 338.672 677.344V647.162C313.69 638.336 290.74 623.993 271.654 604.908C238.026 571.28 219.141 525.679 219.141 478.125C219.141 444.437 219.141 417.881 219.141 398.438C219.141 382.58 225.436 367.379 236.652 356.183C247.848 344.967 263.048 338.672 278.906 338.672H309.347C331.978 338.672 352.677 325.882 362.797 305.642L380.627 270.001C383.994 263.248 390.887 258.984 398.438 258.984C405.988 258.984 412.881 263.248 416.248 270.001L434.078 305.642C444.198 325.882 464.897 338.672 487.528 338.672H517.969C533.827 338.672 549.027 344.967 560.223 356.183C571.439 367.379 577.734 382.58 577.734 398.438C577.734 417.901 577.734 444.477 577.734 478.165C577.734 556.219 527.83 622.638 458.203 647.222V677.344C458.203 688.341 467.128 697.266 478.125 697.266ZM876.562 617.578H876.603C953.601 617.578 1016.02 555.163 1016.02 478.165V398.438C1016.02 393.158 1013.92 388.078 1010.18 384.353C1006.45 380.607 1001.37 378.516 996.094 378.516H965.653C927.921 378.516 893.436 357.199 876.562 323.451C859.689 357.199 825.204 378.516 787.472 378.516H757.031C751.752 378.516 746.672 380.607 742.946 384.353C739.201 388.078 737.109 393.158 737.109 398.438V478.125C737.109 515.12 751.792 550.581 777.949 576.739C804.106 602.896 839.568 617.578 876.562 617.578ZM398.438 617.578H398.478C475.476 617.578 537.891 555.163 537.891 478.165V398.438C537.891 393.158 535.799 388.078 532.054 384.353C528.328 380.607 523.248 378.516 517.969 378.516H487.528C449.796 378.516 415.311 357.199 398.438 323.451C381.564 357.199 347.079 378.516 309.347 378.516H278.906C273.627 378.516 268.547 380.607 264.821 384.353C261.076 388.078 258.984 393.158 258.984 398.438V478.125C258.984 515.12 273.667 550.581 299.824 576.739C325.981 602.896 361.443 617.578 398.438 617.578ZM1055.86 454.777C1064.19 451.848 1071.84 447.067 1078.19 440.692C1089.41 429.496 1095.7 414.295 1095.7 398.438V358.594C1095.7 300.482 1072.61 244.74 1031.52 203.641C990.416 162.542 934.675 139.453 876.562 139.453H876.483C818.391 139.453 762.669 162.543 721.59 203.622C680.511 244.701 657.422 300.422 657.422 358.514C657.422 358.514 657.422 376.464 657.422 398.438C657.422 414.295 663.717 429.496 674.933 440.692C681.288 447.067 688.938 451.848 697.266 454.777V398.438C697.266 382.58 703.561 367.379 714.777 356.183C725.973 344.967 741.173 338.672 757.031 338.672H787.472C810.103 338.672 830.802 325.882 840.922 305.642L858.752 270.001C862.119 263.248 869.012 258.984 876.562 258.984C884.113 258.984 891.006 263.248 894.373 270.001L912.203 305.642C922.323 325.882 943.022 338.672 965.653 338.672H996.094C1011.95 338.672 1027.15 344.967 1038.35 356.183C1049.56 367.379 1055.86 382.58 1055.86 398.438V454.777Z" fill="black"/>
<circle cx="946.336" cy="427.883" r="29.8828" fill="black"/>
<mask id="mask0_122_2" style="mask-type:alpha" maskUnits="userSpaceOnUse" x="916" y="398" width="61" height="60">
<circle cx="946.336" cy="427.883" r="29.8828" fill="black"/>
</mask>
<g mask="url(#mask0_122_2)">
<ellipse cx="926.172" cy="413.563" rx="10" ry="16" transform="rotate(35 926.172 413.563)" fill="white"/>
</g>
<circle cx="806.883" cy="427.883" r="29.8828" fill="black"/>
<mask id="mask1_122_2" style="mask-type:alpha" maskUnits="userSpaceOnUse" x="777" y="398" width="60" height="60">
<circle cx="806.883" cy="427.883" r="29.8828" fill="black"/>
</mask>
<g mask="url(#mask1_122_2)">
<ellipse cx="786.675" cy="413.563" rx="10.5" ry="16" transform="rotate(35 786.675 413.563)" fill="white"/>
</g>
<circle cx="468.164" cy="428.32" r="29.8828" fill="black"/>
<mask id="mask2_122_2" style="mask-type:alpha" maskUnits="userSpaceOnUse" x="438" y="398" width="61" height="61">
<circle cx="468.164" cy="428.32" r="29.8828" fill="black"/>
</mask>
<g mask="url(#mask2_122_2)">
<ellipse cx="448" cy="414" rx="10" ry="16" transform="rotate(35 448 414)" fill="white"/>
</g>
<circle cx="328.711" cy="428.32" r="29.8828" fill="black"/>
<mask id="mask3_122_2" style="mask-type:alpha" maskUnits="userSpaceOnUse" x="298" y="398" width="61" height="61">
<circle cx="328.711" cy="428.32" r="29.8828" fill="black"/>
</mask>
<g mask="url(#mask3_122_2)">
<ellipse cx="308.503" cy="414" rx="10.5" ry="16" transform="rotate(35 308.503 414)" fill="white"/>
</g>
</svg>
