<svg xmlns="http://www.w3.org/2000/svg" enable-background="new 0 0 2500 2500" viewBox="0 0 2500 2500"><path fill="#e5deff" d="M282.74,1254.38c5.64,0,5.65-8.76,0-8.76C277.1,1245.62,277.09,1254.38,282.74,1254.38L282.74,1254.38z"/><path fill="#463d5b" d="M2150.16,381.66c-39.22,497.72-99.5,990.92-180.18,1478.27c-364.59-67.08-729.54-130.74-1094.82-190.98
								c75.76-459.76,132.16-925.25,168.51-1395.23C1412.57,306.1,1781.42,342.08,2150.16,381.66z"/><path fill="#fff" d="M2037.77,627.91c14.85,413.58,15.07,827.6,0.65,1241.29c-357.71-12.47-715.43-24.94-1073.14-37.41
								c15.79-452.88,12.89-906.21-8.69-1358.8c293.45-13.99,586.9-27.99,880.35-41.97C1904.25,495.87,1971.2,561.51,2037.77,627.91
								z"/><path fill="#e5deff" d="M2037.77,627.91c14.85,413.58,15.07,827.6,0.65,1241.29c-357.71-12.47-715.43-24.94-1073.14-37.41
								c15.79-452.88,12.89-906.21-8.69-1358.8c293.45-13.99,586.9-27.99,880.35-41.97C1904.25,495.87,1971.2,561.51,2037.77,627.91
								z" opacity=".3"/><path fill="#ff5c63" d="M1749.43,697.05l-667.18,29.43c-20.15,0.89-37-14.76-37.64-34.95l-2.98-93.93
								c-0.64-20.19,15.17-37.28,35.32-38.17L1744.14,530c20.15-0.89,37,14.76,37.64,34.95l2.98,93.93
								C1785.39,679.07,1769.58,696.16,1749.43,697.05z"/><path fill="#e5deff" d="M2037.77,627.91c-64.11,2.3-128.21,4.61-192.32,6.91c-2.44-67.95-5.28-135.89-8.52-203.81
								C1904.25,495.87,1971.2,561.51,2037.77,627.91z"/><g><path fill="#fff" d="M1144.36,613.65c0.01,1.03-0.15,2.41-0.47,4.15c-0.33,1.74-0.75,3.15-1.27,4.23
							c-0.52,1.08-1.11,1.63-1.77,1.67c-0.48,0.03-1.05-0.24-1.72-0.81c-0.67-0.57-1.54-1.17-2.61-1.8
							c-1.08-0.63-2.45-1.21-4.1-1.72c-1.66-0.51-3.73-0.69-6.19-0.55c-2.72,0.16-5.19,0.84-7.42,2.05
							c-2.23,1.21-4.21,2.76-5.95,4.64c-1.74,1.88-3.26,4.01-4.56,6.39c-1.3,2.38-2.36,4.85-3.19,7.39
							c-0.83,2.54-1.44,5.06-1.84,7.56c-0.39,2.5-0.57,4.81-0.54,6.94c0.03,2.56,0.38,4.8,1.05,6.71s1.61,3.46,2.84,4.68
							c1.23,1.21,2.73,2.09,4.5,2.63c1.77,0.54,3.76,0.74,5.97,0.62c2.61-0.15,4.84-0.55,6.69-1.21c1.85-0.66,3.42-1.35,4.72-2.09
							c1.29-0.73,2.37-1.4,3.23-2s1.63-0.92,2.33-0.96c0.48-0.03,0.8,0.13,0.97,0.47c0.17,0.34,0.26,0.82,0.26,1.44
							c0,0.25-0.03,0.64-0.09,1.16c-0.07,0.52-0.15,1.1-0.25,1.75c-0.11,0.65-0.23,1.35-0.36,2.12c-0.14,0.76-0.3,1.46-0.47,2.12
							c-0.17,0.65-0.38,1.25-0.61,1.8c-0.23,0.54-0.55,1.03-0.94,1.45c-0.4,0.43-1.18,1-2.35,1.71c-1.17,0.71-2.59,1.39-4.28,2.03
							c-1.69,0.65-3.59,1.22-5.71,1.73c-2.13,0.51-4.41,0.83-6.83,0.97c-4.01,0.23-7.62-0.1-10.85-0.97
							c-3.23-0.88-5.98-2.33-8.24-4.36c-2.27-2.04-4.03-4.65-5.28-7.84c-1.25-3.19-1.9-6.96-1.96-11.33
							c-0.04-3.41,0.26-6.98,0.91-10.7c0.65-3.73,1.67-7.39,3.04-10.99c1.37-3.6,3.12-7.03,5.25-10.31
							c2.13-3.28,4.66-6.18,7.58-8.72c2.93-2.54,6.27-4.61,10.02-6.21c3.75-1.61,7.92-2.55,12.51-2.82
							c2.57-0.15,5.01-0.02,7.31,0.38c2.3,0.4,4.32,0.99,6.03,1.77c1.72,0.78,2.92,1.51,3.61,2.18
							C1144,611.66,1144.35,612.55,1144.36,613.65z"/><path fill="#fff" d="M1215.85,626.46c0.04,3.23-0.21,6.69-0.75,10.38c-0.54,3.7-1.45,7.39-2.7,11.08
							c-1.26,3.69-2.93,7.24-5.02,10.66c-2.09,3.42-4.65,6.47-7.66,9.16c-3.02,2.68-6.58,4.9-10.67,6.64
							c-4.1,1.74-8.77,2.76-14.03,3.06c-4.45,0.26-8.37-0.01-11.79-0.8c-3.41-0.79-6.3-2.15-8.66-4.07
							c-2.36-1.92-4.15-4.4-5.39-7.45c-1.23-3.04-1.87-6.67-1.93-10.89c-0.04-3.45,0.22-7.07,0.78-10.86
							c0.56-3.79,1.49-7.53,2.78-11.22c1.3-3.69,3-7.23,5.13-10.61c2.13-3.39,4.7-6.42,7.72-9.08c3.02-2.67,6.56-4.84,10.62-6.53
							c4.06-1.68,8.68-2.67,13.86-2.97c4.44-0.25,8.38,0.02,11.79,0.84c3.41,0.81,6.29,2.19,8.63,4.12
							c2.34,1.94,4.13,4.45,5.36,7.53C1215.15,618.55,1215.79,622.21,1215.85,626.46z M1200.54,628.72
							c-0.03-2.23-0.3-4.24-0.82-6.03c-0.52-1.78-1.34-3.27-2.46-4.45c-1.12-1.18-2.57-2.06-4.36-2.64
							c-1.79-0.57-3.97-0.79-6.54-0.64c-3.19,0.19-6,0.96-8.41,2.33c-2.41,1.37-4.5,3.09-6.28,5.17c-1.78,2.08-3.25,4.43-4.44,7.05
							c-1.18,2.62-2.12,5.26-2.82,7.92c-0.71,2.66-1.19,5.25-1.47,7.76c-0.29,2.51-0.41,4.7-0.39,6.57c0.03,2.27,0.3,4.29,0.82,6.06
							c0.52,1.76,1.35,3.23,2.48,4.4c1.14,1.16,2.6,2.02,4.39,2.58c1.79,0.56,3.99,0.76,6.6,0.61c3.16-0.18,5.95-0.95,8.36-2.3
							c2.41-1.35,4.49-3.05,6.25-5.12c1.76-2.06,3.23-4.39,4.41-6.99c1.18-2.6,2.13-5.22,2.83-7.86c0.7-2.64,1.19-5.22,1.48-7.73
							C1200.44,632.89,1200.57,630.66,1200.54,628.72z"/><path fill="#fff" d="M1306.7,666.66c-0.11,0.37-0.26,0.71-0.48,1.02c-0.22,0.31-0.59,0.57-1.12,0.78
							c-0.53,0.21-1.26,0.39-2.17,0.54c-0.92,0.14-2.06,0.25-3.41,0.33c-1.44,0.08-2.59,0.1-3.47,0.07
							c-0.89-0.04-1.57-0.14-2.04-0.3c-0.48-0.16-0.79-0.38-0.92-0.66c-0.13-0.29-0.16-0.62-0.09-0.99l10.86-58.55l-0.11,0.01
							l-31.64,59.69c-0.43,0.94-1.28,1.61-2.54,1.99c-1.27,0.38-3.05,0.64-5.37,0.77c-2.39,0.14-4.11,0.03-5.17-0.33
							c-1.05-0.36-1.6-0.85-1.64-1.48l-9.09-57.51l-0.11,0.01l-10.91,58.61c-0.07,0.37-0.22,0.71-0.46,1.01
							c-0.24,0.31-0.62,0.57-1.15,0.78c-0.53,0.21-1.25,0.39-2.15,0.54c-0.9,0.14-2.04,0.25-3.44,0.34c-1.4,0.08-2.54,0.1-3.42,0.06
							c-0.88-0.04-1.56-0.14-2.04-0.3c-0.48-0.16-0.8-0.37-0.95-0.66c-0.15-0.29-0.17-0.61-0.07-0.99l11.9-64.12
							c0.17-0.92,0.44-1.77,0.82-2.52c0.38-0.76,0.85-1.4,1.41-1.92c0.56-0.53,1.21-0.94,1.94-1.24c0.73-0.3,1.52-0.47,2.37-0.52
							l9.04-0.52c1.62-0.09,3-0.04,4.14,0.17c1.14,0.21,2.08,0.62,2.83,1.24c0.74,0.62,1.31,1.44,1.72,2.48
							c0.39,1.04,0.68,2.31,0.84,3.81l7.41,41.93l0.28-0.02l23.95-43.74c0.72-1.47,1.44-2.75,2.16-3.84c0.72-1.09,1.53-2,2.42-2.73
							c0.89-0.73,1.89-1.28,2.98-1.66c1.1-0.38,2.41-0.61,3.91-0.69l10.25-0.59c0.92-0.05,1.71,0.03,2.37,0.25
							c0.66,0.22,1.2,0.56,1.58,1.04c0.39,0.47,0.64,1.06,0.74,1.77c0.1,0.71,0.08,1.53-0.05,2.45L1306.7,666.66z"/><path fill="#fff" d="M1383.12,610.43c0.02,2.05-0.18,4.21-0.61,6.47c-0.43,2.27-1.15,4.5-2.15,6.7c-1,2.2-2.31,4.31-3.92,6.33
							c-1.61,2.02-3.6,3.83-5.94,5.46c-2.35,1.62-5.08,2.95-8.2,3.99c-3.11,1.04-6.78,1.69-11.01,1.93l-7.44,0.43l-4.29,23.02
							c-0.07,0.37-0.25,0.71-0.54,1.02c-0.29,0.31-0.75,0.57-1.37,0.8c-0.62,0.22-1.41,0.4-2.36,0.55
							c-0.95,0.15-2.13,0.26-3.53,0.34c-1.36,0.08-2.49,0.1-3.39,0.06c-0.9-0.04-1.61-0.14-2.13-0.29
							c-0.52-0.16-0.87-0.36-1.05-0.63c-0.19-0.26-0.23-0.6-0.12-1.01l12.05-64.78c0.31-1.74,1.01-3.08,2.1-4
							c1.09-0.92,2.45-1.44,4.06-1.53l15.6-0.9c1.91-0.11,3.62-0.15,5.13-0.11c1.51,0.04,3,0.17,4.47,0.38
							c2.25,0.31,4.27,0.87,6.06,1.69c1.8,0.81,3.32,1.87,4.59,3.17c1.26,1.3,2.24,2.86,2.92,4.67
							C1382.74,606.01,1383.1,608.09,1383.12,610.43z M1367.87,612.96c-0.02-1.76-0.46-3.25-1.32-4.49
							c-0.86-1.23-2.17-2.06-3.94-2.47c-0.77-0.21-1.64-0.34-2.6-0.37c-0.96-0.04-2.02-0.02-3.19,0.05l-6.39,0.37l-4.44,24.4
							l6.61-0.38c2.09-0.12,3.88-0.47,5.36-1.05c1.48-0.58,2.78-1.31,3.89-2.18c1.11-0.87,2.05-1.88,2.83-3.02
							c0.77-1.15,1.4-2.34,1.89-3.58c0.48-1.24,0.82-2.48,1.03-3.72C1367.8,615.28,1367.89,614.1,1367.87,612.96z"/><path fill="#fff" d="M1428.27,651.83c0,0.26-0.02,0.67-0.07,1.25c-0.05,0.57-0.13,1.23-0.25,1.97
							c-0.12,0.74-0.28,1.5-0.47,2.28c-0.19,0.78-0.42,1.5-0.69,2.16c-0.27,0.66-0.59,1.2-0.95,1.62c-0.36,0.43-0.78,0.65-1.26,0.68
							l-32.68,1.89c-0.58,0.03-1.13-0.02-1.63-0.16c-0.5-0.14-0.9-0.39-1.22-0.76c-0.32-0.37-0.53-0.83-0.65-1.39
							c-0.12-0.56-0.11-1.25,0.03-2.06l12.21-65.4c0.03-0.37,0.19-0.71,0.48-1.02s0.74-0.57,1.34-0.79c0.61-0.22,1.37-0.4,2.31-0.55
							c0.93-0.14,2.12-0.26,3.55-0.34c1.4-0.08,2.55-0.1,3.48-0.06c0.92,0.04,1.64,0.14,2.15,0.29c0.52,0.16,0.86,0.37,1.03,0.66
							c0.17,0.28,0.22,0.61,0.15,0.98l-10.76,57.94l22.49-1.3c0.52-0.03,0.88,0.15,1.08,0.54
							C1428.15,650.65,1428.26,651.17,1428.27,651.83z"/><path fill="#fff" d="M1453.07,658.22c-0.07,0.37-0.25,0.71-0.54,1.02s-0.74,0.57-1.34,0.79c-0.61,0.22-1.39,0.4-2.34,0.55
							c-0.96,0.15-2.13,0.26-3.53,0.34c-1.43,0.08-2.6,0.1-3.5,0.07c-0.9-0.04-1.61-0.14-2.13-0.29c-0.52-0.15-0.87-0.37-1.06-0.65
							c-0.19-0.28-0.23-0.61-0.12-0.98l12.67-68.07c0.03-0.37,0.2-0.71,0.51-1.02c0.31-0.31,0.76-0.57,1.37-0.79
							c0.61-0.22,1.37-0.4,2.31-0.55c0.93-0.15,2.1-0.26,3.5-0.34c1.4-0.08,2.54-0.1,3.45-0.06c0.9,0.04,1.62,0.14,2.15,0.29
							c0.53,0.15,0.89,0.37,1.05,0.66c0.17,0.28,0.22,0.61,0.15,0.98L1453.07,658.22z"/><path fill="#fff" d="M1530.41,650.29c0.2,1.31,0.3,2.35,0.29,3.12c-0.01,0.77-0.26,1.36-0.75,1.77
							c-0.49,0.41-1.31,0.7-2.44,0.86c-1.14,0.16-2.7,0.29-4.68,0.41c-1.4,0.08-2.53,0.12-3.42,0.11c-0.88,0-1.56-0.07-2.04-0.19
							c-0.48-0.12-0.81-0.32-1-0.6c-0.19-0.28-0.3-0.68-0.35-1.19l-2.1-14.18l-26.79,1.54l-7.21,14.39
							c-0.25,0.53-0.54,0.97-0.86,1.34c-0.33,0.37-0.8,0.66-1.43,0.88c-0.62,0.22-1.46,0.39-2.5,0.53
							c-1.05,0.13-2.36,0.24-3.94,0.34c-1.69,0.1-3,0.11-3.94,0.06c-0.94-0.06-1.56-0.29-1.88-0.69c-0.32-0.4-0.36-1-0.13-1.78
							c0.23-0.79,0.69-1.84,1.37-3.16l33.84-65.1c0.36-0.65,0.72-1.17,1.08-1.58c0.36-0.41,0.88-0.73,1.56-0.97
							c0.68-0.24,1.59-0.42,2.75-0.54c1.15-0.12,2.67-0.23,4.54-0.34c2.17-0.13,3.88-0.2,5.16-0.22c1.27-0.02,2.25,0.06,2.95,0.21
							c0.7,0.16,1.17,0.44,1.39,0.83c0.22,0.39,0.38,0.93,0.46,1.63L1530.41,650.29z M1508.11,599.37l-0.06,0l-15.56,31.15
							l20.06-1.16L1508.11,599.37z"/><path fill="#fff" d="M1601.7,646.5c-0.13,0.85-0.41,1.62-0.83,2.31c-0.41,0.68-0.9,1.26-1.47,1.73
							c-0.56,0.47-1.18,0.83-1.86,1.07c-0.67,0.24-1.38,0.38-2.12,0.43l-6.17,0.35c-1.32,0.08-2.41,0.01-3.26-0.19
							c-0.85-0.21-1.58-0.62-2.19-1.25c-0.62-0.62-1.17-1.49-1.66-2.6c-0.49-1.11-1-2.53-1.54-4.25l-10.92-31.17
							c-0.84-2.41-1.62-4.84-2.33-7.29c-0.71-2.45-1.39-4.88-2.05-7.31l-0.11,0.01c-0.33,2.91-0.72,5.79-1.16,8.62
							c-0.44,2.83-0.94,5.67-1.49,8.53l-6.82,36.76c-0.07,0.37-0.24,0.71-0.51,1.02c-0.27,0.31-0.68,0.57-1.23,0.79
							c-0.55,0.22-1.26,0.4-2.12,0.56c-0.86,0.16-1.94,0.28-3.22,0.35c-1.29,0.07-2.34,0.08-3.17,0.02
							c-0.82-0.06-1.46-0.17-1.91-0.33c-0.44-0.16-0.73-0.38-0.86-0.66c-0.14-0.29-0.15-0.62-0.04-0.99l12.05-64.73
							c0.31-1.74,1.04-3.08,2.21-4.01c1.17-0.93,2.49-1.44,3.95-1.52l7.55-0.43c1.21-0.07,2.25,0.01,3.12,0.23
							c0.86,0.22,1.61,0.62,2.22,1.19c0.62,0.57,1.16,1.32,1.63,2.25c0.47,0.93,0.91,2.07,1.34,3.44l11.03,31.43
							c0.72,2.01,1.38,4.01,1.98,5.99s1.22,3.96,1.87,5.94l0.11-0.01c0.37-2.66,0.79-5.41,1.25-8.24c0.46-2.83,0.94-5.58,1.42-8.25
							l6.36-33.93c0.07-0.37,0.23-0.7,0.48-0.99c0.25-0.29,0.64-0.53,1.18-0.73c0.53-0.2,1.21-0.36,2.06-0.5s1.91-0.25,3.19-0.32
							c1.29-0.07,2.35-0.09,3.2-0.05c0.85,0.04,1.49,0.13,1.94,0.27c0.44,0.14,0.74,0.34,0.89,0.61c0.15,0.26,0.19,0.58,0.12,0.95
							L1601.7,646.5z"/><path fill="#fff" d="M1678.85,582.81c0.01,1.03-0.15,2.41-0.47,4.15c-0.33,1.74-0.75,3.15-1.27,4.23
							c-0.52,1.08-1.11,1.63-1.77,1.67c-0.48,0.02-1.05-0.24-1.72-0.81s-1.54-1.17-2.61-1.81c-1.08-0.63-2.45-1.21-4.1-1.72
							c-1.66-0.51-3.73-0.69-6.19-0.55c-2.72,0.16-5.19,0.84-7.42,2.05c-2.23,1.21-4.21,2.76-5.95,4.63
							c-1.74,1.88-3.26,4.01-4.56,6.39c-1.3,2.39-2.36,4.85-3.19,7.39c-0.83,2.54-1.44,5.06-1.84,7.56
							c-0.39,2.5-0.57,4.81-0.54,6.94c0.03,2.56,0.38,4.8,1.05,6.71s1.61,3.46,2.84,4.68c1.23,1.21,2.73,2.09,4.5,2.63
							c1.77,0.54,3.76,0.75,5.97,0.62c2.61-0.15,4.84-0.55,6.69-1.21c1.85-0.66,3.42-1.35,4.72-2.09c1.29-0.73,2.37-1.4,3.23-2
							s1.63-0.92,2.33-0.96c0.48-0.03,0.8,0.13,0.97,0.47c0.17,0.34,0.26,0.82,0.26,1.44c0,0.25-0.03,0.64-0.09,1.16
							c-0.07,0.52-0.15,1.1-0.25,1.75c-0.11,0.65-0.23,1.35-0.36,2.11c-0.14,0.76-0.3,1.47-0.47,2.12
							c-0.17,0.65-0.38,1.25-0.61,1.79c-0.23,0.55-0.55,1.03-0.94,1.46c-0.4,0.43-1.18,0.99-2.35,1.71
							c-1.17,0.71-2.59,1.39-4.28,2.04c-1.69,0.65-3.59,1.22-5.71,1.73c-2.13,0.51-4.41,0.83-6.83,0.97
							c-4.01,0.23-7.62-0.09-10.85-0.97c-3.23-0.88-5.98-2.33-8.24-4.36c-2.27-2.04-4.03-4.65-5.28-7.84
							c-1.25-3.19-1.9-6.97-1.96-11.33c-0.04-3.41,0.26-6.97,0.91-10.7c0.65-3.73,1.67-7.39,3.04-10.99
							c1.37-3.6,3.12-7.03,5.25-10.31c2.13-3.28,4.66-6.18,7.58-8.72s6.27-4.61,10.02-6.22c3.75-1.61,7.92-2.55,12.51-2.82
							c2.57-0.15,5.01-0.02,7.31,0.38c2.3,0.4,4.32,0.99,6.03,1.77c1.72,0.78,2.92,1.51,3.61,2.19
							C1678.49,580.82,1678.84,581.71,1678.85,582.81z"/><path fill="#fff" d="M1735.25,574.77c0,0.22-0.02,0.61-0.07,1.16c-0.05,0.55-0.12,1.17-0.22,1.86
							c-0.1,0.68-0.24,1.4-0.42,2.14c-0.17,0.75-0.39,1.43-0.66,2.04c-0.27,0.62-0.59,1.14-0.98,1.57
							c-0.38,0.43-0.79,0.65-1.23,0.68l-25.46,1.47l-3.31,17.57l21.61-1.25c0.51-0.03,0.88,0.13,1.11,0.48
							c0.22,0.35,0.34,0.86,0.35,1.52c0,0.25-0.02,0.65-0.07,1.18c-0.05,0.53-0.13,1.15-0.23,1.83c-0.1,0.68-0.24,1.38-0.41,2.09
							c-0.18,0.71-0.4,1.36-0.66,1.97c-0.27,0.6-0.59,1.1-0.95,1.49c-0.36,0.39-0.76,0.59-1.21,0.62l-21.55,1.25l-3.83,20.29
							l25.79-1.49c0.44-0.02,0.78,0.15,1,0.52c0.22,0.37,0.34,0.93,0.35,1.66c0,0.25-0.01,0.66-0.04,1.21
							c-0.03,0.55-0.11,1.17-0.22,1.86c-0.12,0.69-0.27,1.38-0.44,2.09c-0.18,0.71-0.4,1.37-0.66,1.99
							c-0.27,0.62-0.59,1.12-0.95,1.51c-0.36,0.39-0.78,0.59-1.26,0.62l-35.82,2.07c-0.59,0.03-1.13-0.02-1.6-0.16
							c-0.48-0.14-0.88-0.39-1.2-0.76c-0.32-0.37-0.53-0.83-0.65-1.39c-0.12-0.56-0.11-1.25,0.03-2.06l11.69-62.73
							c0.31-1.63,0.96-2.83,1.94-3.6c0.98-0.77,2.08-1.19,3.29-1.26l35.49-2.05C1734.74,572.71,1735.23,573.38,1735.25,574.77z"/></g><g><rect width="166.76" height="18.41" x="1791.24" y="795.24" fill="#e5deff" transform="rotate(-.81 1869.223 806.547)"/><rect width="320.61" height="18.41" x="1389.7" y="799.23" fill="#e5deff" transform="rotate(-.81 1545.253 809.872)"/><rect width="193.34" height="18.41" x="1062" y="804.03" fill="#e5deff" transform="rotate(-.81 1154.7 813.892)"/><rect width="460.51" height="18.42" x="1062.93" y="878.94" fill="#e5deff" transform="rotate(-.81 1288.79 888.917)"/><rect width="95.53" height="18.42" x="1599.51" y="874.59" fill="#e5deff" transform="rotate(-.81 1642.177 885.286)"/><rect width="169.05" height="18.41" x="1063.88" y="957.28" fill="#e5deff" transform="rotate(-.81 1144.148 966.806)"/><rect width="362.71" height="18.41" x="1336.53" y="952.74" fill="#e5deff" transform="rotate(-.81 1512.886 963.015)"/><rect width="136" height="18.41" x="1823.88" y="948.15" fill="#e5deff" transform="rotate(-.81 1886.145 959.18)"/><rect width="77.72" height="18.42" x="1536.63" y="1028.6" fill="#e5deff" transform="rotate(-.81 1570.229 1038.831)"/><rect width="288.2" height="18.42" x="1672.62" y="1025.64" fill="#e5deff" transform="rotate(-.81 1810.98 1036.358)"/><rect width="415.17" height="18.42" x="1064.81" y="1032.32" fill="#e5deff" transform="rotate(-.81 1267.74 1041.941)"/><rect width="191.72" height="18.41" x="1065.76" y="1110.24" fill="#e5deff" transform="rotate(-.81 1157.029 1119.488)"/><rect width="539.18" height="18.41" x="1422.59" y="1103.73" fill="#e5deff" transform="rotate(-.81 1686.536 1114.045)"/><rect width="505.85" height="18.41" x="1066.68" y="1184.86" fill="#e5deff" transform="rotate(-.81 1314.559 1194.273)"/><rect width="296.3" height="18.41" x="1666.41" y="1178.79" fill="#e5deff" transform="rotate(-.81 1808.51 1189.191)"/><rect width="363.36" height="18.41" x="1067.63" y="1262.29" fill="#e5deff" transform="rotate(-.81 1244.24 1271.4)"/><rect width="202.4" height="18.41" x="1596.11" y="1256.79" fill="#e5deff" transform="rotate(-.81 1691.351 1266.8)"/></g><g><path fill="#abcc97" d="M1503.11,1545.67c1.24,101.34-79.9,184.52-181.24,185.76c-42.48,0.51-81.74-13.43-113.15-37.32
						c-43.53-33-71.88-85.05-72.61-143.92c-1.24-101.34,79.9-184.52,181.24-185.76c10.6-0.13,20.97,0.64,31.09,2.26
						C1435.17,1380.37,1501.99,1454.92,1503.11,1545.67z"/></g><g><polygon fill="#fff" points="1288.98 1630.73 1228.43 1566.22 1251.63 1544.45 1289.42 1584.71 1395.15 1476.35 1417.93 1498.57"/></g><g><path fill="#778ef4" d="M746.59,826.33l44.19,267.33c0,0,5.58,7.28,15.15,18.55c32.98,38.84,113.19,125.12,175.08,125.15
												c7.54,0,14.92-0.2,22.02-1.49c102.13-18.64,216.11-246.75,212.25-291.97c-4.04-47.38-114.06-95.18-141.71-71.23
												c-20.22,17.51-85.44,141.59-91.84,157.44c-0.49,1.16-0.72,1.78-0.72,1.78s-18.5-28.76-41.98-61.4
												c-21.84-30.38-48-64.13-67.6-81.24C817.87,842.49,746.59,826.33,746.59,826.33z"/><path fill="#594bc7" d="M1203.79,946.15c-2.86,5.57-9.99,8.46-19.79,8.78c-1.59,0.03-3.24,0.03-4.96-0.06
												c-1.5-0.06-3.09-0.19-4.71-0.38c-13.46-1.5-30.04-6.68-46.74-15.24c-19.03-9.7-34.36-21.8-43.18-33.09
												c-0.06-0.03-0.1-0.13-0.16-0.16c-0.8-1.02-1.56-2.04-2.23-3.05c-5.63-8.24-7.54-15.81-4.68-21.48
												c1.65-3.21,4.74-5.54,8.91-7c1.49-0.51,3.09-0.92,4.84-1.21c0.41-0.06,0.83-0.13,1.27-0.16
												c14.8-2.04,37.86,3.28,61.22,15.24c16.9,8.62,30.86,19.12,39.93,29.31c1.4,1.53,2.64,2.99,3.75,4.49
												c0.29,0.38,0.6,0.8,0.86,1.18C1204.55,932.02,1206.81,940.13,1203.79,946.15z"/><path fill="#594bc7" d="M805.93,1112.21c32.98,38.84,113.19,125.12,175.08,125.15c7.54,0,14.87-0.51,22.02-1.49
												c-0.13-0.05-0.28-0.13-0.41-0.18c-34.21-15.1-63.69-40.8-83.32-72.65c-23.28-37.82-32.23-82.37-42.68-125.54
												c-3.45-14.17-7.1-28.27-11.55-42.16c-3.96-12.35-8.54-24.52-14.1-36.25c-2.47-5.2-12.84-30.51-19.24-30.3
												c-9.96,0.31-4.04,26.34-3.73,31.28c0.95,14.53,1,29.2-0.95,43.65c-3.73,27.27-14.48,53.17-18.86,80.36
												C806.7,1093.41,805.98,1102.82,805.93,1112.21z"/><path fill="#ffcaac" d="M478.96,2190.14l75.31-17.56l8.25-1.94c1.18-1.68,8.8-58.18,13.23-91.74
															c0.29-2.28,0.58-4.45,0.86-6.5c1.42-10.77,2.33-17.92,2.33-17.92l-94.91,10.51l-0.68,16.27l-1.02,25.58l-0.58,14.18
															L478.96,2190.14z"/><path fill="#feaba5" d="M482.35,2106.83c10.01-11.61,26.36-16.54,41.48-20.62c12.58-3.41,25.16-6.81,37.71-10.22
															c3.88-1.07,9.46-2.04,15.09-3.59c1.42-10.77,2.33-17.92,2.33-17.92l-94.91,10.51l-0.68,16.27L482.35,2106.83z"/><path fill="#463d5b" d="M444.52,2226.27h132.34l1.89-18.73l0.29-2.97l-18.91-46.06c0,0-20.28-12.73-31.83-14.48
																c-9.1-1.39-30.6,7.54-36.7,11.16c-1.63,0.96-2.59,1.58-2.59,1.58l-42.19,50.76L444.52,2226.27z"/><polygon fill="#13213e" points="444.52 2226.27 576.86 2226.27 578.75 2207.55 446.82 2207.55"/><path fill="#13213e" d="M491.6,2155.21c0,0,14.84,24.23,30.36,23.01c15.52-1.2,38.17-19.69,38.17-19.69
																s-20.28-12.73-31.83-14.48C519.2,2142.66,497.71,2151.59,491.6,2155.21z"/><path fill="#ffcaac" d="M852.63,2027.69c0,0,1.38,13.82,3.16,31.84c1.15,11.5,2.48,24.72,3.74,37.13
															c2.36,23.42,4.47,43.91,4.68,44.44l-19.31,36.69l-66.49-10.95l-0.07-0.92l-8.35-95.77l-1.14-12.93L852.63,2027.69z"/><path fill="#feaba5" d="M855.8,2059.53c1.15,11.5,2.48,24.72,3.74,37.13c-1.32,1.17-2.65,2.29-3.94,3.36
															c-5.49,4.55-11.57,8.38-18.06,11.39c-7.19,3.35-14.87,5.66-22.73,6.74c-5.77,0.82-11.67,1-17.31,2.4
															c-5.67,1.4-11.28,4.22-14.51,9.06c-2.89,4.37-3.55,9.9-2.86,15.09c0.69,5.18,2.67,10.1,4.69,14.92
															c1.01,2.42,1.68,5.88-0.64,7.06c-1.08,0.54-2.36,0.28-3.53-0.05c-0.78-0.2-1.53-0.45-2.29-0.71l-8.35-95.77
															c7.74-6.52,16.82-11.48,26.37-14.76C815.77,2048.75,838.22,2049.14,855.8,2059.53z"/><path fill="#463d5b" d="M776.4,2226.27l188.73-24.24l-2.56-19.91c0,0-6.73-22.03-30.35-23.86
															c-23.62-1.83-49.49,1.49-49.49,1.49s-20.11-33.22-30.23-34.35c-10.15-1.13-39.6,23.58-39.6,23.58l-36.16-1.76
															c0,0-4.15,26.71-5.5,38.77C769.9,2198.05,776.4,2226.27,776.4,2226.27z"/><path fill="#13213e" d="M962.97,2185.26l2.15,16.78l-188.73,24.24c0,0-1.75-7.62-3.25-16.64L962.97,2185.26z"/><path fill="#13213e" d="M812.89,2148.99c0,0,47.81,19.43,69.84,10.77c0,0-20.11-33.22-30.23-34.35
															C842.34,2124.28,812.89,2148.99,812.89,2148.99z"/><path fill="#463d5b" d="M600.62,1267.13c0,0,15.41,74.5,36.45,176.1c7,33.75,14.65,70.18,22.54,107.6v0.03
														c42.61,201.88,93,527.62,95.02,532.63c0,0,4.32,0.26,11.66,0.5c33.1,1,106.52-6.66,149.47-36.43l-110.48-739.07
														l-4.64-27.07l-15.3-77.8l-4.35-3.62c-0.03,0-0.03,0-0.05,0l-14.57-12.05l-53.62-44.23l-25.52,28.12l-12.34,13.57
														l-0.58,0.66h-0.03l-66.53,73.24l-4.32,4.77h-0.03L600.62,1267.13z"/><path fill="#13213e" d="M637.08,1443.22c44.81,215.95,115.15,634.3,117.55,640.26c0,0,4.32,0.27,11.66,0.5l-88.94-658.16
														L637.08,1443.22z"/><path fill="#463d5b" d="M456.78,2052.66c40.78,51.89,159.75-0.68,159.75-0.68l38.15-439.52l4.93-61.63l25.34-318.05
														l0.18-4.82l1.55-39.94l-12.37-1.97h-0.03l-13.68-2.18l-73.56-11.77l-68.95-11.01c0,0-0.84,9.3-2.36,25.94
														c-0.18,1.91-0.37,3.93-0.55,6.05c-1.91,20.62-4.61,50.31-7.86,86.24c-0.63,7.15-1.28,14.54-1.97,22.17
														C484.27,1537.17,445.98,2038.9,456.78,2052.66z"/><polygon fill="#13213e" points="723.09 1373.8 674.16 1404.91 631.61 1361.44 669.86 1440.07"/><path fill="#f6f6ff" d="M495.62,1316.93l87.25-500.11c0,0,16.12-26.84,56.44-20.28c64.32,10.47,188.88,97.8,188.88,97.8
													s-8.14,307.67-9.6,424.12C732.95,1358.83,611.9,1319.99,495.62,1316.93z"/><path fill="#778ef4" d="M423.58,1451.52c0,0,109.07,19.86,195.48,17.72c0,0,6.36-157.85,9.65-318.42
													c0.69-34.75,1.18-60.48,1.29-71.64c0.54-62.28-47.44-261.93-48.18-265.01l-0.03-0.03c0,0-11.24,1.62-27.5,4.84
													c-36.91,7.31-99.84,41.6-116.53,64.93c-9.03,12.58-10.11,63.82-7.92,123.07c3.65,99.07,16.41,220.43,16.41,220.43
													L423.58,1451.52z"/><path fill="#594bc7" d="M433.26,1351.4c0,0.01,18.23,1.93,19.89,2.1c6.42,0.68,11.01,1.73,16.99,4
													c11.44,4.35,23.81,6.6,36.05,5.5c14.9-1.33,29.57-7.85,39.39-19.14c9.19-10.57,13.59-24.35,17.76-37.72
													c3.5-11.2,7.03-22.65,6.67-34.38c-0.29-9.5-3.21-18.91-8.34-26.91c-11.34-17.66-31.8-26.86-51.27-34.68
													c-13.3-5.35-26.91-10.65-38.66-19.04c-5.27-3.76-11.6-8.66-15.01-14.25c-3.92-6.43-5.28-15.55-6.41-22.87
													c-3.86-24.95-1.62-50.81,6.51-74.7c6.56-19.37,16.85-37.3,23.87-56.52c7.02-19.22,10.62-40.83,3.45-59.96l-3.14,1.03
													c-21.79,6.74-38.18,23.92-51.17,43.11c3.65,99.07,16.41,220.43,16.41,220.43S433.26,1351.4,433.26,1351.4z"/><path fill="#778ef4" d="M714.57,811.21c0,0,3.22,4.18,7.42,20.45c7.35,28.47,17.71,93.97,19.04,238.94
													c0.14,15.89,0.44,60.47,0.75,118.52c0,0.01,0,0.01,0,0.02c0.23,173.31-6.15,252.05,1.48,265
													c14.02,23.78,125.57,17.59,146.55-7.35c0,0-30.7-110.05-41.6-238.31c-11.38-133.96-3.32-287.04-20-319.85
													c-19.53-38.42-70.67-56.25-103.62-72.7C718.65,812.96,714.98,811.21,714.57,811.21z"/><g><path fill="#594bc7" d="M573.58,927.54c0,0-37.91,48.56-37.62,49.75c0.31,1.2,92.7,176.27,92.7,176.27
													s2.29-60.57,2.4-71.74c0.56-62.27-30.48-257.27-30.48-257.27c45.9-26.14,64.91-21,108.33,8.37
													c7.35,28.46,30.81,92.71,32.15,237.69c0.13,15.89,0.42,60.47,0.74,118.52l56.77-241.44l-37.35-12.46
													c5.01-14.04,31.8-37.11,31.8-37.11c-16.76-29.04-40.05-64.43-60.71-84c-8.74-8.27-15.56-14.17-18.81-15.87
													c-30.18-15.69-48.79-23.22-66.45-24.89c-15.54-1.46-56.22,3.4-61.95,7.79c-9.78,7.49-21.71,22.33-29.73,40.47
													c-15.49,35.04-26.19,77.18-26.19,77.18L573.58,927.54z"/></g><g><path fill="#9f4253" d="M453.58,1118.44l204.41,48.62c0,0-74.23,294.08-76.66,293.41s-202.85-54.24-202.85-54.24
														L453.58,1118.44z"/><path fill="#e5876c" d="M444.48,1115.92l204.41,48.62c0,0-74.23,294.08-76.66,293.41s-202.85-54.24-202.85-54.24
														L444.48,1115.92z"/><path fill="#778ef4" d="M256.43,1232.27c36.48,72.29,216.81,143.67,232.34,143.67c47.41,0,76.74-128.96,38.2-153.27
														c-0.59-0.39-141.49-54.79-141.49-54.79l0.05-0.08c0.75-1,7.82-10.65,17.93-25c25.67-36.53,70.79-103.54,79.93-135.72
														c12.32-43.27-15.25-149.38-15.25-149.38s-78.61,35.94-133.72,127.75C289.87,1059.71,230.19,1180.23,256.43,1232.27z"/><path fill="#594bc7" d="M480.64,1347.28c2.75,11.06,7.69,18.42,14.35,19.63c6.38,1.16,13.3-3.47,19.55-12.14
														c7.87-10.83,14.74-27.91,18.37-47.77c4.53-24.59,2.91-47.02-3.24-59.45c-2.78-5.61-6.46-9.18-10.93-10.01
														c-6.51-1.18-13.56,3.65-19.91,12.63c-7.72,10.86-14.43,27.73-18.01,47.28C477.3,1316.62,477.51,1334.45,480.64,1347.28
														z"/><path fill="#ffcaac" d="M480.64,1347.28c8.08,1.78,20.61,4.55,33.9,7.49c21.92,4.86,45.97,10.26,55.8,12.63
														c20.01,4.84,40.34-15.49,40.59-16.46c-0.15,1.05-4.63,16.7-4.63,16.7s19.73,5.12,29.51-5.48
														c9.8-10.62,1.18-26.34,1.18-26.34c2.55-1.49,4.45-3.11,5.87-4.81c7.31-8.54,1.93-18.6,1.93-18.6l1.57-1.44
														c3.09-3.04,4.81-5.99,5.63-8.75c2.6-8.26-2.75-14.53-2.75-14.53c2.98-1.96,4.94-4.19,6.17-6.56
														c0.33-0.57,0.59-1.16,0.82-1.75c3.37-8.8-2.26-18.55-11.37-20.97l-28.61-7.61l22.1-26.75c1.34-1.59,2.26-3.42,2.78-5.3
														c1.21-4.35,0.36-9.16-2.6-12.89c-5.4-6.84-15.61-7.38-21.71-1.13l-48.03,39.46l-39.13,3.37l-30.84,2.62
														c-7.72,10.86-14.43,27.73-18.01,47.28C477.3,1316.62,477.51,1334.45,480.64,1347.28z"/><path fill="#feaba5" d="M608.72,1329.17l28.27,6.64c2.55-1.48,4.44-3.12,5.87-4.81L608.72,1329.17z"/><path fill="#feaba5" d="M615.12,1277.34l34.13,10.35c2.97-1.95,4.93-4.21,6.17-6.56
														C640,1279.54,615.12,1277.34,615.12,1277.34z"/><path fill="#feaba5" d="M611.18,1303.08l33.61,9.32l1.55-1.44c3.09-3.04,4.82-6.01,5.65-8.74L611.18,1303.08z"/><polygon fill="#feaba5" points="610.94 1350.93 622.7 1353.44 606.3 1367.64"/></g><g><path fill="#594bc7" d="M334.5,1189l50.99-21.12l0.05-0.08c0.75-1,7.82-10.65,17.93-25L334.5,1189z"/></g><g><path fill="#ffcaac" d="M600.57,824.54c0,0,29.38,51.09,73.54,45.72c0.97-0.11,23.16-6.42,31.62-21.54
												c0.62-1.05,1.13-2.13,1.59-3.26c1.51-3.69,2.16-7.87,1.56-12.54c-1.46-11.62-4.34-45.8-6.5-72.68
												c-1.62-19.71-2.83-35.48-2.83-35.48l-88.29-32.32L600.57,824.54z"/></g><g><path fill="#feaba5" d="M628.61,758.76c16.23,18.25,35.64,33.67,57.1,45.34c3.86,2.1,7.85,4.1,10.97,7.17
												c3.15,3.05,5.39,7.39,4.77,11.73c-0.24,1.81-1.13,3.53-2.37,4.88c-3.07,3.32-3.8,8.14-1.29,11.89
												c1.16,1.78,2.43,3.45,3.83,5.04c1.24,1.4,2.61,2.72,4.12,3.91c0.62-1.05,1.13-2.13,1.59-3.26
												c1.51-3.69,2.16-7.87,1.56-12.54c-1.46-11.62-4.34-45.8-6.5-72.68c-16.61-11.19-35.5-18.95-53.57-27.39
												c-4.47-2.08-8.9-4.23-13.51-6.04c-3.94-1.54-7.95-2.32-11.81,0.57C612.25,735.79,621.87,751.18,628.61,758.76z"/></g><g><path fill="#13213e" d="M655.76,583.56c-2.09-1.44-3.93-3.15-5.4-5.35c-3.91-5.79-6.61-12.53-9.75-18.77
												c25.04,17.48,56.92,24.85,87.08,20.11c10.39-1.65,20.94-4.84,28.83-11.81c10.19-9.03,14.58-24.05,11.02-37.18
												c-3.58-13.14-14.88-23.82-28.15-26.85c-9.25-2.09-18.84-0.7-28.32-0.17c-9.45,0.53-19.54-0.03-27.39-5.31
												c-0.51-0.35-1-0.7-1.48-1.13c37.5-14.42,80.64-16.98,89.33,37.59C784.76,617.73,666.84,576.82,655.76,583.56z"/></g><g><path fill="#463d5b" d="M777.14,652.72c-1.06,2.28-2.58,4.44-4.46,6.14c-2.32,2.2-5.22,3.69-8.42,3.98
												c-4.66,0.43-9.25-1.84-12.57-5.13c-3.29-3.31-5.46-7.58-7.28-11.9c-4.12-9.9-6.53-20.52-11.4-30.11
												c-3.7-7.32-9.29-14.16-16.4-17.84c0,0,0,0,0-0.02c-2.22-1.16-4.58-2-7.09-2.49c-5.43-0.99-11.65-0.35-15.81-3.95
												c-4.11-3.57-4.34-10.22-1.79-15.04c2.52-4.8,7.18-8.12,11.9-10.84c9.92-5.67,20.9-9.43,32.21-11.06
												c5.34-0.79,10.73-1.1,16.12-0.9l-4.24-3.78c7.26,2.28,13.28,7.7,17.44,14.09c0.88,1.36,1.68,2.74,2.4,4.19
												c2.78,5.3,4.64,11.1,6.21,16.9c4.47,16.59,6.55,33.84,6.15,50.99C779.99,641.66,779.55,647.54,777.14,652.72z"/></g><g><path fill="#13213e" d="M772.68,658.86c-2.32,2.2-5.22,3.69-8.42,3.98c-4.66,0.43-9.25-1.84-12.57-5.13
												c-3.29-3.31-5.46-7.58-7.28-11.9c-4.12-9.9-6.53-20.52-11.4-30.11c-3.7-7.32-9.29-14.16-16.4-17.84c0,0,0,0,0-0.02
												c1.14-8.03,3.39-15.95,6.54-23.44c3.09-7.35,7.15-14.48,12.88-19.94c5.34-0.79,10.73-1.1,16.12-0.9l-4.24-3.78
												c7.26,2.28,13.28,7.7,17.44,14.09c0.88,1.36,1.68,2.74,2.4,4.19c-0.43,6.26-4.1,11.56-6.33,18.78
												c-2.11,6.81-2.69,14.08-2.21,21.15C760.36,625.54,767.05,642.12,772.68,658.86z"/></g><g><path fill="#ffcaac" d="M712.01,794.92c-65.24,9.72-126.89-105.56-126.89-105.56s-38.95-6.92-35.19-35.05
												c3.88-28.65,43.45-14.12,43.45-14.12l17.66-31.3l18.26-37.06l49.67-3.1l63.42,6.26c0,0,10.59,31.17,17.59,70.1
												c0.03,0.09,0.03,0.15,0.03,0.15C770.94,706.1,773.02,785.85,712.01,794.92z"/></g><g><path fill="#463d5b" d="M655.76,583.56c-0.59,0.36-0.88,0.83-0.83,1.48c2.72,38.99-32.37,40.93-33.08,43.42l-2.24,54.3
												l-14.8,8.27l-11.43-50.85c0,0-16.78-6.17-29.54-2.54c-6.14,1.73-11.34,5.72-13.35,13.71
												c-46.8-55.52-16.78-113.02,37.53-118.03c0,0,1.66,0.12,4.85-0.14c8.75-0.75,29.04-4.34,58.11-21.04
												c9.18-5.27,19.96-10.7,31.24-15.05c37.5-14.42,80.64-16.98,89.33,37.59C784.76,617.73,666.84,576.82,655.76,583.56z"/></g><g><path fill="#463d5b" d="M710.89,633.32l-1.74-4.68c-1.2-3.21,0.34-6.76,3.45-7.89c9.22-3.36,28.35-7.06,43.81,11.45
												c0,0-22.67-1.95-37.69,4.66C715.65,638.2,712.1,636.57,710.89,633.32z"/></g><g><path fill="#463d5b" d="M695.34,635.83l-0.77-5.8c-0.53-3.98-3.87-6.89-7.45-6.45c-10.63,1.31-30.97,7.43-36.15,34.85
												c0,0,20.79-13.89,38.7-14.83C693.31,643.42,695.87,639.85,695.34,635.83z"/></g><g><path fill="#13213e" d="M742.27,645.73c1.02,1.91,1.84,4.27,2.31,6.93c1.35,7.58-0.62,14.62-4.39,15.73
												c-3.79,1.1-7.94-4.15-9.28-11.74c-0.43-2.4-0.52-4.75-0.34-6.86C733.28,647.67,737.1,645.58,742.27,645.73z"/></g><g><path fill="#13213e" d="M726.59,661.24c-0.86,0-1.57-0.69-1.59-1.56c-0.07-3.46,1.01-8.16,3.54-10.32l0.34-0.28
												c0.24-0.2,0.48-0.4,0.75-0.59c3.92-3.05,8.16-4.42,12.69-4.37c1.88,0.02,3.86,0.33,5.86,0.94
												c0.84,0.25,1.32,1.14,1.06,1.98c-0.25,0.84-1.15,1.32-1.98,1.06c-1.71-0.52-3.39-0.79-5-0.8
												c-3.94-0.1-7.36,1.11-10.71,3.72c-0.25,0.18-0.44,0.34-0.62,0.5l-0.34,0.28c-1.55,1.32-2.44,5.02-2.38,7.8
												c0.02,0.88-0.68,1.6-1.56,1.62C726.61,661.24,726.6,661.24,726.59,661.24z"/></g><g><path fill="#13213e" d="M688.75,656.25c1.02,1.91,1.84,4.27,2.31,6.93c1.35,7.58-0.62,14.62-4.39,15.73
												c-3.79,1.1-7.94-4.15-9.28-11.74c-0.43-2.4-0.52-4.75-0.34-6.86C679.76,658.2,683.59,656.11,688.75,656.25z"/></g><g><path fill="#13213e" d="M673.08,671.77c-0.86,0-1.57-0.69-1.59-1.56c-0.07-3.45,1.01-8.15,3.54-10.31l0.34-0.28
												c0.24-0.19,0.48-0.39,0.74-0.58c3.94-3.06,8.12-4.45,12.69-4.37c1.88,0.02,3.87,0.33,5.87,0.94
												c0.84,0.25,1.32,1.14,1.06,1.98c-0.25,0.84-1.15,1.31-1.98,1.06c-1.71-0.52-3.4-0.79-5.01-0.8
												c-3.86-0.07-7.35,1.11-10.71,3.72c-0.24,0.18-0.43,0.34-0.62,0.5l-0.34,0.28c-1.55,1.32-2.44,5.02-2.38,7.8
												c0.02,0.88-0.68,1.6-1.56,1.62C673.1,671.77,673.09,671.77,673.08,671.77z"/></g><g><path fill="#13213e" d="M707.6,711.33c-1.39,0-2.84-0.15-4.34-0.45c-0.86-0.17-1.42-1.01-1.25-1.87
													c0.17-0.86,1.01-1.43,1.87-1.25c3.03,0.6,5.76,0.49,8.11-0.3c2.6-0.89,4.71-2.73,5.64-4.93
													c1.65-3.88-0.28-8.47-1.57-10.87c-0.76-1.4-1.63-2.75-2.5-4.1c-1.44-2.24-2.93-4.56-3.95-7.14
													c-0.32-0.82,0.07-1.74,0.89-2.07c0.81-0.31,1.74,0.08,2.07,0.89c0.91,2.3,2.25,4.38,3.67,6.6
													c0.91,1.41,1.81,2.83,2.61,4.3c1.92,3.54,3.77,8.78,1.7,13.63c-1.3,3.06-4.05,5.5-7.54,6.69
													C711.35,711.04,709.53,711.33,707.6,711.33z"/></g><g><path fill="#ff8f84" d="M732.57,736.44c-7.57,5.09-21.68,11.19-40.59,4.69l9.14-8.87c1.33-1.3,3.23-1.37,4.77-0.23
													c1.61,1.2,3.92,2.43,6.51,2.27c2.95-0.2,6.22-2.65,8.37-4.59c1.47-1.32,3.54-1.21,5.07,0.25L732.57,736.44z"/></g><g><path fill="#13213e" d="M708.03,745.51c-5.01,0-10.56-0.81-16.57-2.88c-2.83-0.96-5.71-2.19-8.56-3.65
													c-0.78-0.4-1.09-1.36-0.69-2.14c0.4-0.79,1.36-1.09,2.14-0.69c2.71,1.39,5.44,2.56,8.13,3.47
													c17.77,6.12,31.11,0.92,39.19-4.51c3.86-2.61,5.98-4.95,6-4.97c0.59-0.65,1.6-0.71,2.24-0.12
													c0.66,0.59,0.71,1.59,0.13,2.24c-0.1,0.11-2.37,2.64-6.59,5.49C728.49,741.1,719.71,745.51,708.03,745.51z"/><path fill="#13213e" d="M743.41,736.44c-0.43,0-0.86-0.17-1.17-0.52l-7.77-8.52c-0.59-0.65-0.55-1.66,0.1-2.25
													c0.65-0.59,1.66-0.54,2.25,0.1l7.77,8.52c0.59,0.65,0.55,1.66-0.1,2.25C744.17,736.3,743.79,736.44,743.41,736.44z"/><path fill="#13213e" d="M681.84,744.3c-0.18,0-0.35-0.03-0.53-0.09c-0.83-0.3-1.26-1.21-0.97-2.03l3.6-10.15
													c0.3-0.83,1.2-1.25,2.03-0.97c0.83,0.3,1.26,1.21,0.97,2.03l-3.6,10.15C683.11,743.9,682.49,744.3,681.84,744.3z"/><path fill="#13213e" d="M714.88,761.05c-3.43,0-7.41-1.06-11.82-4.04c-0.73-0.49-0.92-1.48-0.43-2.21
													c0.49-0.73,1.49-0.92,2.21-0.43c12.62,8.54,20.66-1.19,20.99-1.61c0.55-0.68,1.55-0.8,2.23-0.25
													c0.68,0.55,0.8,1.54,0.25,2.23C728.26,754.84,723.19,761.05,714.88,761.05z"/></g><g><path fill="#13213e" d="M592.87,533.19c-0.61,4.87-3.33,5.88-7.6,8.3c-5.8,3.31-11.37,6.96-16.68,10.99
												c-6.31,4.8-12.28,10.2-16.36,16.98c-4.07,6.78-6.07,15.09-4,22.71c2.09,7.65,8.81,14.16,16.71,14.66
												c-8.41,0.76-15.24,9.4-14.05,17.77c0.91,6.5,6.57,11.78,12.94,13.04c-6.14,1.73-11.34,5.72-13.35,13.71
												c-46.8-55.52-16.78-113.02,37.53-118.03C588.01,533.33,589.67,533.45,592.87,533.19z"/></g><g><path fill="#594bc7" d="M935.61,986.44c1.16,10.24,8.15,18.68,13.84,27.27c17.03,25.65,24.03,57.8,19.16,88.24
											c3.58-22.48,9.44-44.68,12.89-67.12c0.23-1.54,0.31-3.11,0.23-4.73c-0.49,1.16-0.72,1.78-0.72,1.78
											s-18.5-28.76-41.98-61.4C936.25,975.28,934.97,980.94,935.61,986.44z"/></g><g><path fill="#ffcaac" d="M1255.97,825.04l-21.35,40.12l-36.5,58.13l-0.19,0.32c-0.13,0.06-7.73,17.31-13.94,31.31
							c-1.59,0.03-3.24,0.03-4.96-0.06c-1.5-0.06-3.09-0.19-4.71-0.38c-13.46-1.5-30.04-6.68-46.74-15.24
							c-19.03-9.7-34.36-21.8-43.18-33.09c-0.06-0.03-0.1-0.13-0.16-0.16c-0.8-1.02-1.56-2.04-2.23-3.05l4.23-28.48l1.37-9.17
							l6.24-49.61c0.92-7.51,7.1-13.24,14.67-13.59c3.31-0.13,6.39,0.76,9,2.39c3.53,2.23,6.11,5.79,6.94,10.12l2.9,14.38l36.05-63
							c3.34-5.5,10.47-7.29,15.97-4.07l0.64,0.38c5.19,3.02,7.22,9.45,4.74,14.92l-10.82,24.09l15.05-24.91
							c0.48-0.76,0.99-1.46,1.59-2.07c1.5-1.56,3.34-2.64,5.35-3.18c0.41-0.09,0.83-0.19,1.24-0.25c2.61-0.41,5.35,0,7.76,1.43
							l0.67,0.38c5.16,3.02,7.22,9.45,4.77,14.92l-14.16,31.44l0.41-0.76h0.03v-0.03l15.72-25.96c0.51-0.86,1.11-1.62,1.75-2.32
							c0.35-0.35,0.67-0.7,1.05-1.02c1.4-1.24,3.06-2.16,4.8-2.74c0.32-0.13,0.67-0.22,0.99-0.29c0.13-0.03,0.22-0.06,0.35-0.09
							h0.03c3.37-0.76,7.06-0.32,10.25,1.56l0.35,0.22c5.95,3.76,8.27,11.33,5.35,17.76l-9.26,20.49l7.54-12.41
							c0.45-0.8,0.99-1.43,1.59-2.07h0.03c2.39-2.51,5.79-3.79,9.16-3.56c1.81,0.09,3.56,0.6,5.19,1.59
							C1256.99,812.6,1258.96,819.51,1255.97,825.04z"/><path fill="#feaba5" d="M1197.16,770.89l-33.83,55.64l10.61-25.23l15.05-24.9C1190.84,773.33,1193.88,771.42,1197.16,770.89z"/><path fill="#feaba5" d="M1221.32,785.85l-31.61,55.68l6.95-23.24l0.01-0.02l15.72-25.97
							C1214.45,788.89,1217.72,786.65,1221.32,785.85z"/><path fill="#feaba5" d="M1246.35,807.83l-31.27,49.67l12.98-31.61l9.13-14.49C1239.58,808.89,1242.98,807.61,1246.35,807.83z"/></g></g><g><path fill="#86ac7d" d="M1503.11,1545.67c1.24,101.34-79.9,184.52-181.24,185.76c-42.48,0.51-81.74-13.43-113.15-37.32
					c64.31,13.24,132.88,4.61,191.9-24.12c21.57-10.5,42.61-24.31,55.14-44.77c14.29-23.35,15.75-52.44,12.19-79.58
					c-6.84-52.18-31.15-101.88-68.12-139.34c-15.21-15.43-32.58-28.76-51.39-39.62C1435.17,1380.37,1501.99,1454.92,1503.11,1545.67
					z"/></g><g><path fill="#13213e" d="M1545.88,1725.38c-1.31,0-2.61-0.53-3.55-1.58c-1.76-1.96-1.61-4.98,0.35-6.74
					c35.64-32.1,65.79-70.09,89.36-111.8c-20.86-13.63-30.7-41.51-33.71-51.75c-14.9-50.73-11.34-107.62,9.76-156.09
					c10.33-23.75,31.87-49.12,58.46-42.61c13.1,3.23,24.27,14.68,29.15,29.89c4.36,13.61,3.57,27.94,2.49,40.31
					c-5.39,61.57-23.79,121.77-53,176.16c3.39,1.27,6.97,2.04,10.74,2.22c19.82,0.74,37.14-15.24,51.83-30.45l85.68-88.73
					c1.24-1.29,3.11-1.77,4.82-1.25c13.29,4.03,19.62,18.98,20,32.01c0.16,5.67-0.45,11.24-1.05,16.64
					c-0.67,6.07-1.31,11.8-0.88,17.48c0.71,9.55,6.04,19.95,14.85,21.34c7.99,1.28,15.61-5.66,18.7-12.81
					c0.95-2.22,3.42-3.38,5.75-2.68c2.32,0.69,3.75,3.01,3.34,5.39c-0.09,0.54,0.49,1.33,1.37,1.85c0.87,0.52,1.84,0.65,2.28,0.31
					c2.06-1.65,5.06-1.32,6.71,0.74c1.65,2.05,1.32,5.06-0.74,6.71c-3.58,2.87-8.73,3.05-13.11,0.47c-0.58-0.34-1.12-0.72-1.63-1.13
					c-5.77,7.08-14.53,12.1-24.16,10.59c-14.34-2.27-21.91-17.17-22.88-30.05c-0.49-6.57,0.22-13.01,0.91-19.25
					c0.59-5.3,1.14-10.3,1-15.31c-0.25-8.62-3.65-18.26-10.66-22.08l-83.43,86.4c-16.13,16.71-35.41,34.52-59.13,33.35
					c-5.44-0.25-10.43-1.4-14.99-3.23c-24.1,42.71-54.95,81.61-91.43,114.46C1548.16,1724.98,1547.02,1725.38,1545.88,1725.38z
					 M1658.39,1363.36c-17.24,0-32.94,18.15-41.53,37.87c-20.22,46.45-23.63,100.98-9.35,149.59c5.17,17.59,15.06,36.25,29.24,45.92
					c28.63-53.28,46.67-112.25,51.95-172.57c1-11.44,1.75-24.64-2.07-36.56c-3.03-9.46-10.49-20.62-22.34-23.53
					C1662.3,1363.59,1660.33,1363.36,1658.39,1363.36z"/></g><g><path fill="#86ac7d" d="M1864.17,2052.61c-0.47-2.8,109.75-153.03,90.64-206.52c-17.11-47.9-49.53-34.11-83.17,46.72
					c0,0,46.26-180.35,0.47-196.24c-45.79-15.89-51.86,67.28-51.86,67.28s1.87-141.11-37.38-134.1
					c-39.25,7.01-57.47,103.73-9.34,216.8c0,0-40.65-93.91-66.35-78.5s-11.52,87.84,20.17,121.95c0,0-49.14-52.33-60.82,5.14
					s89.24,161.2,89.24,161.2h108.4V2052.61z"/><path fill="#abcc97" d="M1872.35,1892.97c9.09-14.3,20.61-27.05,33.92-37.55c6.04-4.76,13.88-9.27,21.03-6.43
					c5.36,2.13,8.51,7.97,9.1,13.7c0.59,5.74-0.91,11.46-2.39,17.03c-7.94,29.79-16,59.88-30.56,87.06
					c-14.56,27.18-36.98,90.4-65.55,102c-32.54,13.21-43.6,4.43-73.1-14.62c-29.5-19.05-76.92-86.15-84.85-120.36
					c-2.77-11.96-3.87-25.43,2.89-35.69c8.88-13.47,31-15.2,41.87-3.27c-5.26-16.65-10.52-33.3-15.77-49.95
					c-2.69-8.52-12.7-50.4,4.56-59.35c9.25-4.79,25.46,13.95,31.76,22.25c6.54,8.61,22.53,44.05,31.5,46.95
					c-11.64-35.03-19.64-71.27-23.81-107.95c-3.45-30.33-3.64-63.37,13.69-88.5c5.28-7.65,14.13-14.86,23.01-12.1
					c7.89,2.46,11.46,11.43,13.57,19.42c9.97,37.63,10.61,77,11.18,115.92c5.49-11.12,10.24-31.53,15.73-42.65
					c4.57-9.26,13.15-19.42,21.24-25.85c8.09-6.42,33.28-18.06,33.53,40.87c0.21,49.62-11.58,98.57-18.48,147.71
					c2.23,0.48,4.55-1.87,4.03-4.1L1872.35,1892.97z"/><path fill="#86ac7d" d="M1846.94,1963.94c5.55-8.73,12.58-16.51,20.7-22.92c3.68-2.91,8.47-5.66,12.83-3.92
					c3.27,1.3,5.19,4.86,5.55,8.36c0.36,3.5-0.55,6.99-1.46,10.39c-4.85,18.18-9.77,36.55-18.65,53.13
					c-8.88,16.59-22.57,55.17-40,62.25c-19.86,8.06-26.61,2.71-44.62-8.92c-18.01-11.63-46.95-52.58-51.79-73.46
					c-1.69-7.3-2.36-15.52,1.76-21.78c5.42-8.22,18.92-9.28,25.55-2c-3.21-10.16-6.42-20.32-9.63-30.48
					c-1.64-5.2-7.75-30.76,2.78-36.22c5.65-2.93,15.54,8.52,19.39,13.58c3.99,5.26,13.75,26.89,19.22,28.65
					c-7.11-21.38-11.99-43.5-14.53-65.88c-2.11-18.51-2.22-38.68,8.36-54.01c3.22-4.67,8.63-9.07,14.04-7.38
					c4.81,1.5,6.99,6.98,8.28,11.85c6.08,22.96,6.47,47,6.83,70.75c3.35-6.79,6.25-19.24,9.6-26.03
					c2.79-5.65,8.03-11.85,12.96-15.77c4.94-3.92,20.31-11.02,20.46,24.94c0.13,30.29-7.07,60.16-11.28,90.15
					c1.36,0.29,2.78-1.14,2.46-2.5L1846.94,1963.94z"/><polygon fill="#e5876c" points="1895.96 2038.13 1867.41 2205.27 1801.79 2206.46 1756.07 2207.27 1727.42 2048.87 1725.96 2040.77"/><path fill="#c3635e" d="M1895.96,2038.13l-28.56,167.15l-65.61,1.18c20.36-4.05,40.32-14.29,51.72-31.64
					c12.09-18.46,12.88-41.87,12.65-63.92c-0.16-16.91-1.39-35.53-13.22-47.62c-9.8-10.03-24.6-13.04-38.54-14.64
					c-13.9-1.62-27.91-2.32-41.92-2.13c-12.46,0.19-24.92,1.07-37.29,2.69c-2.52,0.32-5.4,0.28-7.76-0.32l-1.46-8.11
					L1895.96,2038.13z"/></g><g><path fill="#9952d6" d="M2236.69,1116.17c9.81,3.3,15.31,13.7,12.64,23.7l-34.48,129.06c-7.73,30.2-24.34,57.48-47.99,77.78
			c-50.56,43.41-109.87,54.06-127.58,56.36c-3.45,0.45-6.93-0.03-10.13-1.39c-16.43-6.97-70.71-33.16-107.75-88.55
			c-17.32-25.91-26-56.65-25.34-87.81l1.44-133.57c0.11-10.35,8.21-18.9,18.54-19.44c69.84-3.65,130.04-48.03,158.3-72.63
			c9.01-7.84,22.81-5.95,29.38,4.02C2124.33,1034.97,2170.4,1093.89,2236.69,1116.17z"/></g><g><path fill="#ae64eb" d="M2038.65,1370.77c-0.09,0.01-0.17,0-0.25-0.03c-16.47-7.49-60.42-30.62-90.39-75.43
			c-13.58-20.31-20.47-44.28-19.94-69.32l1.32-122.54c0-0.05,0.04-0.1,0.09-0.1c66.31-7.18,122.63-44.16,155.28-70.59
			c24.35,34.23,68.66,84.97,130.6,109.7c0.05,0.02,0.08,0.08,0.07,0.14l-31.63,118.38c-6.22,24.28-19.3,45.52-37.82,61.42
			C2105.08,1357.5,2056.54,1367.98,2038.65,1370.77z"/></g><g><polygon fill="#fff" points="2027.7 1258.06 1983.19 1210.64 1994.79 1199.76 2027.93 1235.05 2114.76 1146.05 2126.15 1157.16"/></g></svg>