<svg xmlns="http://www.w3.org/2000/svg" enable-background="new 0 0 2500 2000" viewBox="0 0 2500 2000"><rect width="2500" height="2000" fill="none"/><path fill="#eef2fe" d="M980.67,419.85v195.56H621.95V419.85c0-11.58,9.39-20.98,20.98-20.98H959.7
		C971.28,398.88,980.67,408.27,980.67,419.85z"/><path fill="#aec9ff" d="M980.67,615.41v121.21c0,11.58-9.39,20.98-20.98,20.98H642.93c-11.58,0-20.98-9.39-20.98-20.98V615.41H980.67z
		"/><circle cx="801.31" cy="506.83" r="70.68" fill="#fff"/><path fill="#ff9c39" d="M853.37,554.66c-4.58,4.98-9.86,9.3-15.69,12.8c-3.86,2.32-7.96,4.28-12.25,5.85l12.25-54.36l0.24-1.07
				C845.16,520.03,850.2,538.02,853.37,554.66z"/><path fill="#ff9c39" d="M777.2,573.3c-4.29-1.57-8.39-3.53-12.25-5.86c-5.83-3.5-11.11-7.81-15.68-12.79
				c3.15-16.64,8.2-34.63,15.45-36.78l0.23,1.03L777.2,573.3z"/><path fill="#f2a89b" d="M801.31,508.4L801.31,508.4c-7.07,0-12.81-5.73-12.81-12.81v-8.25c0-7.07,5.73-12.81,12.81-12.81l0,0
				c7.07,0,12.81,5.73,12.81,12.81v8.25C814.12,502.66,808.38,508.4,801.31,508.4z"/><circle cx="816.19" cy="490.98" r="3.95" fill="#f2a89b"/><ellipse cx="797.12" cy="490.47" fill="#1f2c49" rx="1.02" ry="1.66"/><line x1="794.99" x2="797.46" y1="485.99" y2="485.22" fill="none" stroke="#1f2c49" stroke-linecap="round" stroke-linejoin="round" stroke-miterlimit="10" stroke-width="2.414"/><ellipse cx="805.5" cy="490.47" fill="#1f2c49" rx="1.02" ry="1.66"/><line x1="807.64" x2="805.16" y1="485.99" y2="485.22" fill="none" stroke="#1f2c49" stroke-linecap="round" stroke-linejoin="round" stroke-miterlimit="10" stroke-width="2.414"/><path fill="#f27f70" d="M802.88,496.41h-3.13c-0.63,0-1-0.71-0.63-1.21c0.93-1.29,2.19-3.45,2.19-5.64c0,2.18,1.26,4.34,2.19,5.64
				C803.88,495.7,803.5,496.41,802.88,496.41z"/><path fill="none" stroke="#f27f70" stroke-linecap="round" stroke-linejoin="round" stroke-miterlimit="10" stroke-width="1.207" d="M801.32,501.11c0.38,0.04,1.23,0.09,2.17-0.32c0.82-0.36,1.33-0.89,1.57-1.18"/><circle cx="816.19" cy="490.98" r="1.24" fill="#f27f70"/><circle cx="786.43" cy="490.98" r="3.95" fill="#f2a89b"/><circle cx="786.43" cy="490.98" r="1.24" fill="#f27f70"/><path fill="#1f2c49" d="M815.41,483.15c0.63-0.74,1.03-1.68,1.03-2.73c0-1.52-0.81-2.83-2.01-3.57c0.21-0.37,0.34-0.79,0.34-1.25
				c0-1.4-1.13-2.53-2.53-2.53c-0.56,0-1.07,0.18-1.48,0.49c-0.77-1.64-2.42-2.78-4.36-2.78c-0.72,0-1.4,0.17-2.01,0.45
				c0.02-0.15,0.05-0.3,0.05-0.45c0-1.72-1.4-3.12-3.12-3.12s-3.12,1.4-3.12,3.12c0,0.15,0.02,0.3,0.05,0.45
				c-0.61-0.28-1.29-0.45-2.01-0.45c-1.72,0-3.22,0.91-4.08,2.27c-0.5-0.35-1.11-0.55-1.76-0.55c-1.72,0-3.11,1.39-3.11,3.11
				c0,0.58,0.17,1.13,0.45,1.59c-0.94,0.77-1.55,1.92-1.55,3.23c0,1.05,0.4,1.99,1.03,2.73c-1.31,0.07-2.35,1.14-2.35,2.46
				c0,1.37,1.11,2.48,2.48,2.48c1.37,0,2.48-1.11,2.48-2.48c0-0.39-0.1-0.75-0.25-1.07c0.27,0.05,0.54,0.08,0.82,0.08
				c2.32,0,4.2-1.88,4.2-4.2c0-0.11-0.02-0.21-0.03-0.31c0.52,0.19,1.08,0.31,1.67,0.31c0.7,0,1.36-0.16,1.97-0.43
				c0.19,1.42,1.39,2.51,2.86,2.51c1.56,0,2.82-1.23,2.89-2.78c0.72,0.43,1.56,0.7,2.46,0.7c0.59,0,1.15-0.12,1.67-0.31
				c-0.01,0.11-0.03,0.21-0.03,0.31c0,2.32,1.88,4.2,4.2,4.2c0.28,0,0.56-0.03,0.82-0.08c-0.16,0.33-0.25,0.69-0.25,1.07
				c0,1.37,1.11,2.48,2.48,2.48c1.37,0,2.48-1.11,2.48-2.48C817.76,484.29,816.72,483.21,815.41,483.15z"/><path fill="#ff871a" d="M844.79,562.56c-4.24,3.31-8.86,6.14-13.78,8.42l6.67-28.97L844.79,562.56z"/><path fill="#ff871a" d="M757.83,562.56c4.24,3.31,8.86,6.14,13.78,8.42l-6.67-28.97L757.83,562.56z"/><path fill="#ff9c39" d="M837.68,517.87v49.58c-3.86,2.32-7.96,4.28-12.25,5.85c-7.53,2.73-15.64,4.21-24.11,4.21
				c-8.47,0-16.59-1.49-24.11-4.21c-4.29-1.57-8.39-3.53-12.25-5.86v-49.57c0,0,16.57-4.09,36.37-4.09
				C821.8,513.78,837.68,517.87,837.68,517.87z"/><path fill="#fff" d="M818.29,514.68c-0.57,7.07-8.02,12.61-16.98,12.61c-8.95,0-16.4-5.52-16.98-12.58
				c5.09-0.55,10.88-0.93,16.98-0.93C807.49,513.78,813.26,514.16,818.29,514.68z"/><path fill="#f2a89b" d="M815.28,514.39c-0.41,5.5-6.51,9.87-13.97,9.87c-7.45,0-13.54-4.35-13.97-9.84
				c4.31-0.38,9.04-0.64,13.97-0.64C806.29,513.78,811.01,514.03,815.28,514.39z"/><path fill="#fff" d="M915.09,660.85H695.03c-3.33,0-6.02-2.7-6.02-6.02l0,0c0-3.33,2.7-6.02,6.02-6.02h220.06
		c3.33,0,6.02,2.7,6.02,6.02l0,0C921.11,658.15,918.42,660.85,915.09,660.85z"/><path fill="#fff" d="M888.83,686.83H713.8c-3.33,0-6.02-2.7-6.02-6.02l0,0c0-3.33,2.7-6.02,6.02-6.02h175.04
		c3.33,0,6.02,2.7,6.02,6.02l0,0C894.86,684.13,892.16,686.83,888.83,686.83z"/><path fill="#fff" d="M854.29,712.81h-98.47c-3.33,0-6.02-2.7-6.02-6.02l0,0c0-3.33,2.7-6.02,6.02-6.02h98.47
		c3.33,0,6.02,2.7,6.02,6.02l0,0C860.32,710.11,857.62,712.81,854.29,712.81z"/><path fill="#239f95" d="M2177.46,760.97l-28.88,151.81c-1.24,6.53-6.95,11.26-13.61,11.26h-319.96c-8.69,0-15.23-7.91-13.61-16.44
			l28.88-151.81c1.24-6.54,6.95-11.26,13.61-11.26h319.96C2172.54,744.52,2179.08,752.43,2177.46,760.97z"/><path fill="#0c8e81" d="M2032.55,865.51l-10.1,58.53h-48.95C2000.23,906.23,2004.17,865.51,2032.55,865.51z"/><circle cx="1989.43" cy="834.28" r="31.19" fill="#fff"/><circle cx="1895.64" cy="834.28" r="31.19" fill="#fff"/><circle cx="2083.21" cy="834.28" r="31.19" fill="#fff"/><path fill="#d87960" d="M2156.26,849.3c0,1.44-0.22,2.91-0.69,4.39c-11.49,36.07-39.58,111.55-73.49,111.55
			c-7.09,0-13.6-0.08-19.53-0.2c-33.57,51.8-133.76,245.03-187.85,350.39c-21.93,42.72-63.07,66.74-111.1,66.74
			c-18.9,0-37.32-4.18-54.06-11.97c-16.74-7.79-31.79-19.2-43.95-33.67l-85.66-95.66l142-130.25
			c14.53,17.93,28.01,34.76,39.53,49.25l150.32-225.49c4.31-6.46,11.56-10.34,19.33-10.34h58.32c18.49,0,37.47-48.18,44.39-67.68
			c1.72-4.82,6.28-8.04,11.4-8.04c6.76,0,12.1,5.5,12.1,12.08c0,0.46-0.02,0.93-0.08,1.4c-0.85,7.35-6.03,34.8-7.75,44.33
			c18.08-13.38,39.32-54.59,46.86-65.4c2.54-3.66,6.72-5.82,11.18-5.82c7.82,0,13.66,6.4,13.66,13.64c0,1.55-0.27,3.14-0.84,4.71
			c-4.43,12.15-11.45,28.45-21.31,42.85c10.55-13.16,20.76-30.72,29.41-52.14c2.2-5.46,7.49-9.05,13.37-9.05
			C2150.03,834.91,2156.26,841.63,2156.26,849.3z"/><path fill="#f0566e" d="M1721.93,1110.62l-142,130.25l-12.97,11.89l-87.21-88.17l62.35-248.22
			C1566.37,923.31,1655.28,1028.41,1721.93,1110.62z"/><polyline fill="#d3614a" points="1761.46 1159.87 1728.93 1208.67 1740.63 1133.79 1761.47 1159.87"/><path fill="none" stroke="#ce4630" stroke-linecap="round" stroke-linejoin="round" stroke-miterlimit="10" stroke-width="8" d="M2042.31,924.04c4.84-6.85,8.49-21.34,11.09-35.82"/><path fill="none" stroke="#ce4630" stroke-linecap="round" stroke-linejoin="round" stroke-miterlimit="10" stroke-width="8" d="M2099.04,896.1c-7.93,11.58-17.69,21.93-29.41,27.94"/><path fill="#d3614a" d="M2062.55,965.04l-14.7,24.24l-31.9-26.91C2015.96,962.37,2031.2,964.4,2062.55,965.04"/><polygon fill="#ea3b5d" points="1523.8 1095.69 1534.29 1219.72 1479.75 1157.71"/><path fill="#1e2b49" d="M1325.19,516.73c-63.83-9.04-134.59,19.17-155.27,74.36c-17.81,47.55-20.59,90.17-38.75,132.51
			c-28.11,65.56-98.03,112.21-55.59,156.67c26.83,28.11,78.59-0.64,94.56-15.33c-7.03,47.28,61.97,69.64,91.36,27.47
			c10.22,23,40.88,32.63,68.42,26.25c25.04-5.8,35.68-24.97,35.68-40.94c17.93,19.81,45.4,24.28,60.73,7.03
			c14.13-15.9,8.31-48.56-24.92-88.81c-33.22-40.25,57.65-91.42,53.93-165.66C1452.55,574.23,1374.81,523.76,1325.19,516.73z"/><path fill="#d87960" d="M1319.9,844.4L1319.9,844.4c-55.81-4.2-97.65-52.86-93.45-108.67l4.86-64.51
			c4.2-55.81,52.86-97.65,108.67-93.45l0,0c55.81,4.2,97.65,52.86,93.45,108.67l-4.86,64.51
			C1424.37,806.77,1375.72,848.61,1319.9,844.4z"/><path fill="#1e2b49" d="M1251.3,691.79c39.61-1.28,47.48-29.39,49.61-45.36c46.22,21.08,89.24-17.08,91.69-49.11
			c2.45-32.03-102.52-43.72-141.31,0c-34.5,38.89-29.39,91.28-29.39,91.28L1251.3,691.79z"/><ellipse cx="1325.19" cy="695.87" rx="11.57" ry="6.71" transform="rotate(-82.27 1325.237 695.87)"/><ellipse cx="1390.87" cy="704.78" rx="11.57" ry="6.71" transform="rotate(-82.27 1390.912 704.782)"/><path fill="none" stroke="#1e2b49" stroke-linecap="round" stroke-linejoin="round" stroke-miterlimit="10" stroke-width="12" d="M1309.65,667.45c1.38-1.01,3.72-2.45,6.95-3.25c4.12-1.01,7.57-0.45,9.35-0.02"/><path fill="none" stroke="#1e2b49" stroke-linecap="round" stroke-linejoin="round" stroke-miterlimit="10" stroke-width="12" d="M1413.59,681.55c-1.06-1.34-2.93-3.36-5.83-4.98c-3.7-2.08-7.18-2.45-9.01-2.51"/><path fill="#ce4630" d="M1360.97,698.27c-1.94,14.29,7.15,35.28,14.77,46.14c1.44,2.05-0.28,4.83-2.76,4.49l-14.27-1.94
			c-2.36-0.32-4.01-2.49-3.69-4.85L1360.97,698.27z"/><path fill="none" stroke="#ce4630" stroke-linecap="round" stroke-linejoin="round" stroke-miterlimit="10" stroke-width="10" d="M1314.23,751.53c0.25,1.5,1.8,10.09,9.9,15.65c7.44,5.1,15.22,4.1,16.93,3.83"/><g><circle cx="1221.91" cy="705.85" r="48.56" fill="#6290ff"/><circle cx="1221.91" cy="705.85" r="23.48" fill="#397bff"/><path fill="#fff" d="M1212.47,706.39c-0.26-4.52-5.82-111.32,45.9-166.12c19.62-20.79,38.25-28.69,68.34-28.74
			c0.19,0,0.39,0.04,0.57,0.11l18.3,7.29c1.51,0.6,1.13,2.83-0.49,2.9c-28.65,1.23-58.32,15.89-72.95,31.39
			c-46.13,48.83-40.86,151.06-40.8,152.08L1212.47,706.39z"/><path fill="#6290ff" d="M1331.55,789.16c0,6.05-4.9,10.94-10.95,10.94c-3.84,0-7.21-1.97-9.16-4.95c-1.13-1.72-1.8-3.78-1.8-5.99
			c0-2.22,0.66-4.29,1.8-6.01c1.96-2.98,5.33-4.94,9.16-4.94C1326.64,778.21,1331.55,783.1,1331.55,789.16z"/><path fill="#397bff" d="M1319.65,789.16c0,3.48-2.83,6.29-6.3,6.29c-0.67,0-1.3-0.1-1.91-0.3c-1.13-1.72-1.8-3.78-1.8-5.99
			c0-2.22,0.66-4.29,1.8-6.01c0.6-0.19,1.24-0.29,1.91-0.29C1316.83,782.86,1319.65,785.67,1319.65,789.16z"/><path fill="none" stroke="#fff" stroke-linecap="round" stroke-linejoin="round" stroke-miterlimit="10" stroke-width="7.56" d="M1221.91,724.22c0,50.63,64.1,64.94,92.32,64.94"/><circle cx="1221.91" cy="705.85" r="18.37" fill="#aec9ff"/></g><g><path fill="#f0566e" d="M1542.1,916.37c-18.91,185.29-37.82,370.58-56.73,555.85H904.51l20.6-136.52l15.2-100.74l46.62-309
			c54.4-9.91,99.46-18.26,168.08-22.46c8.63-0.53,17.37-0.99,26.21-1.39c9.94-0.44,20.02-0.8,30.21-1.06
			c62.01-1.57,146.52,0.66,219.28,5.13c8.88,0.55,17.59,1.12,26.06,1.74C1490.17,910.31,1519.89,913.18,1542.1,916.37z"/><path fill="#fff" d="M1456.76,907.91l-13.27,12.18c-21.42,19.67-60.62,43.14-125.65,43.29h-0.88
			c-80.83,0-125.46-25.81-148.66-47.47L1155,903.48c8.63-0.53,17.37-0.99,26.21-1.39c9.94-0.44,20.02-0.8,30.21-1.06
			c62.01-1.57,146.52,0.66,219.28,5.13C1439.59,906.72,1448.29,907.29,1456.76,907.91z"/><path fill="#d87960" d="M1430.7,906.17c-20.3,18.64-55.3,38.18-112.91,38.31c-74.63,0.17-115.3-22.51-136.59-42.39
			c9.94-0.44,20.02-0.8,30.21-1.06C1273.44,899.47,1357.95,901.7,1430.7,906.17z"/><path fill="#ea3b5d" d="M1107.67,1100.39l-98.12,234.29c0,0-40.54,0.62-84.44,1.02l15.2-100.74
			C1018.97,1171.64,1106.43,1101.38,1107.67,1100.39z"/></g><g><path fill="#d87960" d="M1228.43,1432.93c-42.17,6.17-245.44,23.62-357.74,33.05c-3.39,0.28-6.78,0.43-10.14,0.43
			c-42.14,0-81.55-22.06-103.48-58.61c-20.94-34.91-22.9-78.02-5.17-114.66c18.76-38.78,45.31-92.1,74.57-146.16
			c36.03,16.02,136.06,63.39,176.13,82.41c-16.29,26.89-35.83,58.67-46.17,73.87c85.19-3.37,189.22,0.62,235.57-5.68
			c0,0,2.4-33.3,41.69-37.38c14.53-1.5,25.88,2.61,33.78,8.55c9.27-3.18,46.18-13.65,61.59,15.17c6.41,11.98,6.21,25.35-2.12,35.35
			c23.9,19.24,15.46,37.38-3.49,48.5C1366.37,1398.74,1286.47,1424.44,1228.43,1432.93z"/><path fill="#f0566e" d="M1107.68,1100.38l-88.16,137.04c0,0-6.39-3.04-16.91-8.04c-40.07-19.01-140.1-66.39-176.13-82.41
			c55.14-101.85,119.93-206.32,160.45-221.01L1107.68,1100.38z"/><path fill="none" stroke="#ce4630" stroke-linecap="round" stroke-linejoin="round" stroke-miterlimit="10" stroke-width="8" d="M1326.95,1319.26c-0.25-0.21-0.5-0.41-0.77-0.61"/><path fill="none" stroke="#ce4630" stroke-linecap="round" stroke-linejoin="round" stroke-miterlimit="10" stroke-width="8" d="M1275.39,1378.78c16.14,1.18,34.71-3.18,48.07-11.02"/><path fill="none" stroke="#ce4630" stroke-linecap="round" stroke-linejoin="round" stroke-miterlimit="10" stroke-width="8" d="M1267.47,1268.74c-1.38,0.47-2.15,0.78-2.15,0.78"/><path fill="none" stroke="#ce4630" stroke-linecap="round" stroke-linejoin="round" stroke-miterlimit="10" stroke-width="8" d="M1269.64,1333.97c29.85,2.99,48.31-3.91,57.31-14.71"/><path fill="#d3614a" d="M956.44,1303.24c-34.59,1.37-66.06,3.95-89.31,8.93c0,0,45.53-32.26,105-33.22L956.44,1303.24z"/><path fill="none" stroke="#ce4630" stroke-linecap="round" stroke-linejoin="round" stroke-miterlimit="10" stroke-width="8" d="M1280.66,1289.17c-0.37-5.9-4.87-14.18-13.18-20.43"/><path fill="none" stroke="#ce4630" stroke-linecap="round" stroke-linejoin="round" stroke-miterlimit="10" stroke-width="8" d="M1323.46,1367.76c-0.66-0.48-1.35-0.95-2.07-1.44"/><path fill="none" stroke="#ce4630" stroke-linecap="round" stroke-linejoin="round" stroke-miterlimit="10" stroke-width="8" d="M1265.33,1291.09c0,0,23.45-1.03,27.54-5.07"/></g></svg>