<svg width="567" height="567" viewBox="0 0 567 567" fill="none" xmlns="http://www.w3.org/2000/svg">
<circle cx="283.5" cy="283.5" r="278.5" fill="#FAF6F1" stroke="#241D7A" stroke-width="10"/>
<mask id="path-2-outside-1_138_13" maskUnits="userSpaceOnUse" x="74" y="192" width="417" height="183" fill="black">
<rect fill="white" x="74" y="192" width="417" height="183"/>
<path d="M238.63 261.727H191.363C191.028 257.816 190.134 254.268 188.681 251.084C187.284 247.899 185.329 245.161 182.815 242.871C180.356 240.524 177.367 238.736 173.847 237.507C170.327 236.222 166.333 235.58 161.863 235.58C154.041 235.58 147.42 237.479 142.001 241.278C136.637 245.078 132.558 250.525 129.765 257.621C127.027 264.716 125.658 273.237 125.658 283.182C125.658 293.686 127.055 302.485 129.849 309.581C132.698 316.621 136.805 321.929 142.168 325.504C147.532 329.024 153.985 330.784 161.528 330.784C165.83 330.784 169.685 330.253 173.093 329.192C176.501 328.074 179.462 326.482 181.977 324.415C184.491 322.348 186.53 319.861 188.094 316.956C189.715 313.995 190.804 310.67 191.363 306.983L238.63 307.318C238.071 314.581 236.032 321.984 232.512 329.527C228.992 337.014 223.992 343.942 217.511 350.311C211.085 356.625 203.124 361.709 193.626 365.564C184.128 369.419 173.093 371.347 160.522 371.347C144.766 371.347 130.631 367.966 118.116 361.206C105.656 354.446 95.7952 344.5 88.5319 331.371C81.3246 318.241 77.7209 302.178 77.7209 283.182C77.7209 264.074 81.4084 247.983 88.7834 234.909C96.1584 221.779 106.103 211.862 118.619 205.158C131.134 198.397 145.102 195.017 160.522 195.017C171.361 195.017 181.334 196.498 190.441 199.459C199.548 202.42 207.538 206.75 214.41 212.449C221.282 218.092 226.813 225.048 231.004 233.317C235.194 241.586 237.736 251.056 238.63 261.727ZM420.009 261.727H372.742C372.407 257.816 371.513 254.268 370.06 251.084C368.663 247.899 366.708 245.161 364.194 242.871C361.735 240.524 358.746 238.736 355.226 237.507C351.706 236.222 347.712 235.58 343.242 235.58C335.42 235.58 328.799 237.479 323.38 241.278C318.016 245.078 313.937 250.525 311.144 257.621C308.406 264.716 307.037 273.237 307.037 283.182C307.037 293.686 308.434 302.485 311.228 309.581C314.077 316.621 318.184 321.929 323.547 325.504C328.911 329.024 335.364 330.784 342.907 330.784C347.209 330.784 351.064 330.253 354.472 329.192C357.88 328.074 360.841 326.482 363.355 324.415C365.87 322.348 367.909 319.861 369.473 316.956C371.094 313.995 372.183 310.67 372.742 306.983L420.009 307.318C419.45 314.581 417.411 321.984 413.891 329.527C410.371 337.014 405.371 343.942 398.89 350.311C392.464 356.625 384.503 361.709 375.005 365.564C365.506 369.419 354.472 371.347 341.901 371.347C326.145 371.347 312.01 367.966 299.495 361.206C287.035 354.446 277.174 344.5 269.911 331.371C262.703 318.241 259.1 302.178 259.1 283.182C259.1 264.074 262.787 247.983 270.162 234.909C277.537 221.779 287.482 211.862 299.997 205.158C312.513 198.397 326.48 195.017 341.901 195.017C352.74 195.017 362.713 196.498 371.82 199.459C380.927 202.42 388.917 206.75 395.789 212.449C402.661 218.092 408.192 225.048 412.382 233.317C416.573 241.586 419.115 251.056 420.009 261.727Z"/>
<path d="M487.746 197.364V369H441.149V197.364H487.746Z"/>
</mask>
<path d="M238.63 261.727H191.363C191.028 257.816 190.134 254.268 188.681 251.084C187.284 247.899 185.329 245.161 182.815 242.871C180.356 240.524 177.367 238.736 173.847 237.507C170.327 236.222 166.333 235.58 161.863 235.58C154.041 235.58 147.42 237.479 142.001 241.278C136.637 245.078 132.558 250.525 129.765 257.621C127.027 264.716 125.658 273.237 125.658 283.182C125.658 293.686 127.055 302.485 129.849 309.581C132.698 316.621 136.805 321.929 142.168 325.504C147.532 329.024 153.985 330.784 161.528 330.784C165.83 330.784 169.685 330.253 173.093 329.192C176.501 328.074 179.462 326.482 181.977 324.415C184.491 322.348 186.53 319.861 188.094 316.956C189.715 313.995 190.804 310.67 191.363 306.983L238.63 307.318C238.071 314.581 236.032 321.984 232.512 329.527C228.992 337.014 223.992 343.942 217.511 350.311C211.085 356.625 203.124 361.709 193.626 365.564C184.128 369.419 173.093 371.347 160.522 371.347C144.766 371.347 130.631 367.966 118.116 361.206C105.656 354.446 95.7952 344.5 88.5319 331.371C81.3246 318.241 77.7209 302.178 77.7209 283.182C77.7209 264.074 81.4084 247.983 88.7834 234.909C96.1584 221.779 106.103 211.862 118.619 205.158C131.134 198.397 145.102 195.017 160.522 195.017C171.361 195.017 181.334 196.498 190.441 199.459C199.548 202.42 207.538 206.75 214.41 212.449C221.282 218.092 226.813 225.048 231.004 233.317C235.194 241.586 237.736 251.056 238.63 261.727ZM420.009 261.727H372.742C372.407 257.816 371.513 254.268 370.06 251.084C368.663 247.899 366.708 245.161 364.194 242.871C361.735 240.524 358.746 238.736 355.226 237.507C351.706 236.222 347.712 235.58 343.242 235.58C335.42 235.58 328.799 237.479 323.38 241.278C318.016 245.078 313.937 250.525 311.144 257.621C308.406 264.716 307.037 273.237 307.037 283.182C307.037 293.686 308.434 302.485 311.228 309.581C314.077 316.621 318.184 321.929 323.547 325.504C328.911 329.024 335.364 330.784 342.907 330.784C347.209 330.784 351.064 330.253 354.472 329.192C357.88 328.074 360.841 326.482 363.355 324.415C365.87 322.348 367.909 319.861 369.473 316.956C371.094 313.995 372.183 310.67 372.742 306.983L420.009 307.318C419.45 314.581 417.411 321.984 413.891 329.527C410.371 337.014 405.371 343.942 398.89 350.311C392.464 356.625 384.503 361.709 375.005 365.564C365.506 369.419 354.472 371.347 341.901 371.347C326.145 371.347 312.01 367.966 299.495 361.206C287.035 354.446 277.174 344.5 269.911 331.371C262.703 318.241 259.1 302.178 259.1 283.182C259.1 264.074 262.787 247.983 270.162 234.909C277.537 221.779 287.482 211.862 299.997 205.158C312.513 198.397 326.48 195.017 341.901 195.017C352.74 195.017 362.713 196.498 371.82 199.459C380.927 202.42 388.917 206.75 395.789 212.449C402.661 218.092 408.192 225.048 412.382 233.317C416.573 241.586 419.115 251.056 420.009 261.727Z" fill="#241D7A"/>
<path d="M487.746 197.364V369H441.149V197.364H487.746Z" fill="#FF7E00"/>
<path d="M238.63 261.727V264.727H241.892L241.619 261.477L238.63 261.727ZM191.363 261.727L188.374 261.983L188.609 264.727H191.363V261.727ZM188.681 251.084L185.934 252.289L185.943 252.309L185.952 252.329L188.681 251.084ZM182.815 242.871L180.743 245.041L180.768 245.065L180.794 245.088L182.815 242.871ZM173.847 237.507L172.818 240.325L172.838 240.332L172.858 240.339L173.847 237.507ZM142.001 241.278L140.279 238.822L140.273 238.826L140.267 238.83L142.001 241.278ZM129.765 257.621L126.973 256.522L126.97 256.531L126.966 256.541L129.765 257.621ZM129.849 309.581L127.057 310.68L127.062 310.693L127.068 310.707L129.849 309.581ZM142.168 325.504L140.504 328L140.513 328.006L140.522 328.012L142.168 325.504ZM173.093 329.192L173.985 332.056L174.006 332.049L174.028 332.042L173.093 329.192ZM181.977 324.415L183.882 326.732L183.882 326.732L181.977 324.415ZM188.094 316.956L185.463 315.516L185.458 315.525L185.453 315.534L188.094 316.956ZM191.363 306.983L191.384 303.983L188.786 303.965L188.397 306.534L191.363 306.983ZM238.63 307.318L241.621 307.548L241.868 304.341L238.651 304.318L238.63 307.318ZM232.512 329.527L235.227 330.803L235.231 330.796L232.512 329.527ZM217.511 350.311L219.613 352.451L219.613 352.451L217.511 350.311ZM193.626 365.564L192.497 362.784L193.626 365.564ZM118.116 361.206L116.685 363.843L116.69 363.845L118.116 361.206ZM88.5319 331.371L85.9021 332.814L85.9068 332.823L88.5319 331.371ZM88.7834 234.909L91.3963 236.383L91.399 236.378L88.7834 234.909ZM118.619 205.158L120.035 207.802L120.044 207.797L118.619 205.158ZM190.441 199.459L191.369 196.606L191.369 196.606L190.441 199.459ZM214.41 212.449L212.495 214.758L212.5 214.763L212.506 214.767L214.41 212.449ZM231.004 233.317L228.328 234.673L228.328 234.673L231.004 233.317ZM238.63 258.727H191.363V264.727H238.63V258.727ZM194.352 261.471C193.991 257.259 193.022 253.371 191.411 249.839L185.952 252.329C187.246 255.166 188.064 258.373 188.374 261.983L194.352 261.471ZM191.428 249.879C189.867 246.318 187.667 243.233 184.835 240.653L180.794 245.088C182.991 247.09 184.702 249.48 185.934 252.289L191.428 249.879ZM184.886 240.701C182.089 238.031 178.721 236.031 174.836 234.675L172.858 240.339C176.014 241.441 178.623 243.017 180.743 245.041L184.886 240.701ZM174.876 234.689C170.97 233.263 166.618 232.58 161.863 232.58V238.58C166.048 238.58 169.685 239.181 172.818 240.325L174.876 234.689ZM161.863 232.58C153.54 232.58 146.289 234.608 140.279 238.822L143.723 243.735C148.551 240.35 154.542 238.58 161.863 238.58V232.58ZM140.267 238.83C134.354 243.018 129.946 248.972 126.973 256.522L132.556 258.72C135.171 252.078 138.92 247.137 143.735 243.726L140.267 238.83ZM126.966 256.541C124.061 264.069 122.658 272.975 122.658 283.182H128.658C128.658 273.498 129.993 265.364 132.564 258.701L126.966 256.541ZM122.658 283.182C122.658 293.929 124.085 303.129 127.057 310.68L132.64 308.482C130.026 301.841 128.658 293.442 128.658 283.182H122.658ZM127.068 310.707C130.102 318.203 134.555 324.034 140.504 328L143.832 323.008C139.054 319.823 135.294 315.038 132.63 308.455L127.068 310.707ZM140.522 328.012C146.456 331.906 153.505 333.784 161.528 333.784V327.784C154.465 327.784 148.608 326.142 143.814 322.996L140.522 328.012ZM161.528 333.784C166.072 333.784 170.236 333.224 173.985 332.056L172.201 326.327C169.134 327.283 165.587 327.784 161.528 327.784V333.784ZM174.028 332.042C177.754 330.821 181.052 329.059 183.882 326.732L180.071 322.097C177.873 323.905 175.249 325.328 172.158 326.341L174.028 332.042ZM183.882 326.732C186.701 324.414 188.989 321.622 190.736 318.378L185.453 315.534C184.071 318.1 182.28 320.281 180.071 322.097L183.882 326.732ZM190.726 318.396C192.532 315.096 193.723 311.431 194.329 307.432L188.397 306.534C187.885 309.91 186.898 312.893 185.463 315.516L190.726 318.396ZM191.342 309.983L238.609 310.318L238.651 304.318L191.384 303.983L191.342 309.983ZM235.639 307.088C235.111 313.944 233.182 320.997 229.794 328.258L235.231 330.796C238.882 322.972 241.031 315.219 241.621 307.548L235.639 307.088ZM229.797 328.251C226.443 335.385 221.66 342.027 215.408 348.171L219.613 352.451C226.323 345.857 231.542 338.642 235.227 330.803L229.797 328.251ZM215.408 348.171C209.299 354.174 201.682 359.056 192.497 362.784L194.754 368.344C204.566 364.361 212.872 359.075 219.613 352.451L215.408 348.171ZM192.497 362.784C183.429 366.465 172.791 368.347 160.522 368.347V374.347C173.395 374.347 184.826 372.373 194.754 368.344L192.497 362.784ZM160.522 368.347C145.209 368.347 131.573 365.066 119.542 358.566L116.69 363.845C129.689 370.867 144.323 374.347 160.522 374.347V368.347ZM119.546 358.569C107.62 352.098 98.1603 342.578 91.157 329.919L85.9068 332.823C93.4301 346.423 103.693 356.793 116.685 363.843L119.546 358.569ZM91.1618 329.927C84.2539 317.343 80.7209 301.806 80.7209 283.182H74.7209C74.7209 302.55 78.3952 319.139 85.9021 332.814L91.1618 329.927ZM80.7209 283.182C80.7209 264.452 84.3352 248.9 91.3963 236.383L86.1704 233.435C78.4815 247.066 74.7209 263.696 74.7209 283.182H80.7209ZM91.399 236.378C98.5121 223.715 108.055 214.22 120.035 207.802L117.202 202.513C104.152 209.504 93.8046 219.844 86.1677 233.44L91.399 236.378ZM120.044 207.797C132.085 201.293 145.556 198.017 160.522 198.017V192.017C144.647 192.017 130.182 195.502 117.193 202.518L120.044 207.797ZM160.522 198.017C171.087 198.017 180.743 199.46 189.513 202.312L191.369 196.606C181.926 193.535 171.635 192.017 160.522 192.017V198.017ZM189.513 202.312C198.286 205.164 205.935 209.318 212.495 214.758L216.325 210.14C209.14 204.182 200.81 199.676 191.369 196.606L189.513 202.312ZM212.506 214.767C219.043 220.135 224.317 226.759 228.328 234.673L233.68 231.961C229.309 223.337 223.521 216.048 216.314 210.13L212.506 214.767ZM228.328 234.673C232.318 242.548 234.774 251.632 235.64 261.978L241.619 261.477C240.698 250.479 238.07 240.624 233.68 231.961L228.328 234.673ZM420.009 261.727V264.727H423.271L422.998 261.477L420.009 261.727ZM372.742 261.727L369.753 261.983L369.988 264.727H372.742V261.727ZM370.06 251.084L367.313 252.289L367.321 252.309L367.331 252.329L370.06 251.084ZM364.194 242.871L362.122 245.041L362.147 245.065L362.173 245.088L364.194 242.871ZM355.226 237.507L354.197 240.325L354.217 240.332L354.237 240.339L355.226 237.507ZM323.38 241.278L321.658 238.822L321.652 238.826L321.646 238.83L323.38 241.278ZM311.144 257.621L308.352 256.522L308.349 256.531L308.345 256.541L311.144 257.621ZM311.228 309.581L308.436 310.68L308.441 310.693L308.447 310.707L311.228 309.581ZM323.547 325.504L321.883 328L321.892 328.006L321.901 328.012L323.547 325.504ZM354.472 329.192L355.364 332.056L355.385 332.049L355.407 332.042L354.472 329.192ZM363.355 324.415L365.261 326.732L365.261 326.732L363.355 324.415ZM369.473 316.956L366.842 315.516L366.837 315.525L366.832 315.534L369.473 316.956ZM372.742 306.983L372.763 303.983L370.165 303.965L369.776 306.534L372.742 306.983ZM420.009 307.318L423 307.548L423.247 304.341L420.03 304.318L420.009 307.318ZM413.891 329.527L416.606 330.803L416.61 330.796L413.891 329.527ZM398.89 350.311L400.992 352.451L400.992 352.451L398.89 350.311ZM375.005 365.564L373.876 362.784L375.005 365.564ZM299.495 361.206L298.064 363.843L298.069 363.845L299.495 361.206ZM269.911 331.371L267.281 332.814L267.286 332.823L269.911 331.371ZM270.162 234.909L272.775 236.383L272.778 236.378L270.162 234.909ZM299.997 205.158L301.414 207.802L301.423 207.797L299.997 205.158ZM371.82 199.459L372.748 196.606L372.748 196.606L371.82 199.459ZM395.789 212.449L393.874 214.758L393.879 214.763L393.885 214.767L395.789 212.449ZM412.382 233.317L409.706 234.673L409.706 234.673L412.382 233.317ZM420.009 258.727H372.742V264.727H420.009V258.727ZM375.731 261.471C375.37 257.259 374.401 253.371 372.789 249.839L367.331 252.329C368.625 255.166 369.443 258.373 369.753 261.983L375.731 261.471ZM372.807 249.879C371.246 246.318 369.046 243.233 366.214 240.653L362.173 245.088C364.37 247.09 366.081 249.48 367.313 252.289L372.807 249.879ZM366.265 240.701C363.468 238.031 360.099 236.031 356.215 234.675L354.237 240.339C357.393 241.441 360.002 243.017 362.122 245.041L366.265 240.701ZM356.255 234.689C352.349 233.263 347.997 232.58 343.242 232.58V238.58C347.427 238.58 351.064 239.181 354.197 240.325L356.255 234.689ZM343.242 232.58C334.918 232.58 327.668 234.608 321.658 238.822L325.102 243.735C329.93 240.35 335.921 238.58 343.242 238.58V232.58ZM321.646 238.83C315.733 243.018 311.325 248.972 308.352 256.522L313.935 258.72C316.55 252.078 320.299 247.137 325.114 243.726L321.646 238.83ZM308.345 256.541C305.44 264.069 304.037 272.975 304.037 283.182H310.037C310.037 273.498 311.372 265.364 313.943 258.701L308.345 256.541ZM304.037 283.182C304.037 293.929 305.463 303.129 308.436 310.68L314.019 308.482C311.405 301.841 310.037 293.442 310.037 283.182H304.037ZM308.447 310.707C311.481 318.203 315.934 324.034 321.883 328L325.211 323.008C320.433 319.823 316.673 315.038 314.008 308.455L308.447 310.707ZM321.901 328.012C327.835 331.906 334.884 333.784 342.907 333.784V327.784C335.844 327.784 329.987 326.142 325.193 322.996L321.901 328.012ZM342.907 333.784C347.451 333.784 351.615 333.224 355.364 332.056L353.58 326.327C350.513 327.283 346.966 327.784 342.907 327.784V333.784ZM355.407 332.042C359.133 330.821 362.431 329.059 365.261 326.732L361.45 322.097C359.252 323.905 356.628 325.328 353.537 326.341L355.407 332.042ZM365.261 326.732C368.08 324.414 370.368 321.622 372.115 318.378L366.832 315.534C365.45 318.1 363.659 320.281 361.45 322.097L365.261 326.732ZM372.105 318.396C373.911 315.096 375.102 311.431 375.708 307.432L369.776 306.534C369.264 309.91 368.276 312.893 366.842 315.516L372.105 318.396ZM372.721 309.983L419.988 310.318L420.03 304.318L372.763 303.983L372.721 309.983ZM417.018 307.088C416.49 313.944 414.561 320.997 411.172 328.258L416.61 330.796C420.26 322.972 422.41 315.219 423 307.548L417.018 307.088ZM411.176 328.251C407.822 335.385 403.039 342.027 396.787 348.171L400.992 352.451C407.702 345.857 412.921 338.642 416.606 330.803L411.176 328.251ZM396.787 348.171C390.678 354.174 383.061 359.056 373.876 362.784L376.133 368.344C385.945 364.361 394.251 359.075 400.992 352.451L396.787 348.171ZM373.876 362.784C364.808 366.465 354.17 368.347 341.901 368.347V374.347C354.774 374.347 366.205 372.373 376.133 368.344L373.876 362.784ZM341.901 368.347C326.588 368.347 312.952 365.066 300.92 358.566L298.069 363.845C311.068 370.867 325.702 374.347 341.901 374.347V368.347ZM300.925 358.569C288.999 352.098 279.539 342.578 272.536 329.919L267.286 332.823C274.809 346.423 285.072 356.793 298.064 363.843L300.925 358.569ZM272.541 329.927C265.633 317.343 262.1 301.806 262.1 283.182H256.1C256.1 302.55 259.774 319.139 267.281 332.814L272.541 329.927ZM262.1 283.182C262.1 264.452 265.714 248.9 272.775 236.383L267.549 233.435C259.86 247.066 256.1 263.696 256.1 283.182H262.1ZM272.778 236.378C279.891 223.715 289.433 214.22 301.414 207.802L298.581 202.513C285.531 209.504 275.184 219.844 267.547 233.44L272.778 236.378ZM301.423 207.797C313.464 201.293 326.935 198.017 341.901 198.017V192.017C326.026 192.017 311.561 195.502 298.572 202.518L301.423 207.797ZM341.901 198.017C352.466 198.017 362.121 199.46 370.892 202.312L372.748 196.606C363.304 193.535 353.014 192.017 341.901 192.017V198.017ZM370.892 202.312C379.665 205.164 387.314 209.318 393.874 214.758L397.704 210.14C390.519 204.182 382.189 199.676 372.748 196.606L370.892 202.312ZM393.885 214.767C400.422 220.135 405.696 226.759 409.706 234.673L415.058 231.961C410.688 223.337 404.9 216.048 397.693 210.13L393.885 214.767ZM409.706 234.673C413.697 242.548 416.153 251.632 417.019 261.978L422.998 261.477C422.077 250.479 419.449 240.624 415.058 231.961L409.706 234.673ZM487.746 197.364H490.746V194.364H487.746V197.364ZM487.746 369V372H490.746V369H487.746ZM441.149 369H438.149V372H441.149V369ZM441.149 197.364V194.364H438.149V197.364H441.149ZM484.746 197.364V369H490.746V197.364H484.746ZM487.746 366H441.149V372H487.746V366ZM444.149 369V197.364H438.149V369H444.149ZM441.149 200.364H487.746V194.364H441.149V200.364Z" fill="#FAF6F1" mask="url(#path-2-outside-1_138_13)"/>
<circle cx="283" cy="284" r="270" stroke="#FF8000" stroke-width="10"/>
</svg>
