<svg width="369" height="369" viewBox="0 0 369 369" fill="none" xmlns="http://www.w3.org/2000/svg">
<g clip-path="url(#clip0_123_40)">
<path d="M361.312 169.125C357.822 169.125 354.471 168.771 351.303 168.141C352.764 161.514 353.625 154.165 353.625 146.062C353.625 133.347 343.278 123 330.562 123C317.847 123 307.5 133.347 307.5 146.062C307.5 158.701 317.617 170.616 332.115 177.75C330.102 182.431 327.553 186.863 324.52 190.958C305.778 159.915 269.262 136.238 224.721 127.151C231.491 121.924 236.915 115.156 240.542 107.41C269.155 106.195 292.125 82.7175 292.125 53.8125C292.125 24.1388 267.986 0 238.312 0C228.113 0.03077 218.133 2.96117 209.536 8.44934C200.939 13.9375 194.079 21.7571 189.758 30.996C175.949 31.6049 162.905 37.5104 153.336 47.4859C143.767 57.4613 138.409 70.7397 138.375 84.5625C138.375 100.691 145.663 115.02 156.948 124.891C131.164 128.412 106.918 136.837 86.5305 149.537C77.1668 142.286 65.6555 138.359 53.8125 138.375C51.7736 138.375 49.8183 139.185 48.3766 140.627C46.9349 142.068 46.125 144.024 46.125 146.062C46.125 156.671 49.3691 167.049 55.3807 175.921C45.0795 187.959 37.7917 201.351 34.0095 215.25H30.75C13.7914 215.25 0 229.041 0 246C0 263.112 8.6715 278.718 23.1855 287.789L76.875 321.23V361.312C76.875 363.351 77.6849 365.307 79.1266 366.748C80.5683 368.19 82.5236 369 84.5625 369H115.312C116.739 369 118.137 368.603 119.351 367.854C120.565 367.104 121.546 366.032 122.185 364.757L131.287 346.553C165.312 355.931 203.688 355.931 237.713 346.553L246.815 364.757C247.454 366.032 248.435 367.104 249.649 367.854C250.863 368.603 252.261 369 253.688 369H284.438C286.476 369 288.432 368.19 289.873 366.748C291.315 365.307 292.125 363.351 292.125 361.312V320.615C321.491 299.013 338.25 269.216 338.25 238.312C338.202 227.271 336.09 216.336 332.023 206.071C338.19 199.22 343.145 191.369 346.676 182.855C351.38 183.916 356.3 184.5 361.312 184.5C363.351 184.5 365.307 183.69 366.748 182.248C368.19 180.807 369 178.851 369 176.812C369 174.774 368.19 172.818 366.748 171.377C365.307 169.935 363.351 169.125 361.312 169.125ZM336.697 162.744C328.149 157.901 322.875 151.182 322.875 146.062C322.875 144.024 323.685 142.068 325.127 140.627C326.568 139.185 328.524 138.375 330.562 138.375C332.601 138.375 334.557 139.185 335.998 140.627C337.44 142.068 338.25 144.024 338.25 146.062C338.25 152.136 337.681 157.686 336.697 162.744Z" fill="black"/>
<path d="M280.056 310.329C279.038 311.04 278.206 311.985 277.631 313.085C277.056 314.185 276.754 315.407 276.75 316.648V353.625H258.438L248.583 333.914C247.772 332.275 246.4 330.98 244.715 330.266C243.031 329.553 241.147 329.467 239.404 330.024C204.641 340.941 164.359 340.941 129.596 330.024C127.853 329.476 125.973 329.567 124.291 330.28C122.609 330.993 121.235 332.281 120.417 333.914L110.562 353.625H92.2501V316.971C92.2501 315.667 91.9185 314.385 91.2864 313.244C90.6544 312.104 89.7426 311.143 88.637 310.452L31.3344 274.751C26.4413 271.72 22.4057 267.486 19.6121 262.453C16.8185 257.42 15.3599 251.756 15.3751 246C15.3751 237.528 22.2785 230.625 30.7501 230.625H40.0981C41.8816 230.626 43.61 230.007 44.9872 228.874C46.3644 227.741 47.3048 226.164 47.6472 224.413C50.5992 209.269 58.6557 194.478 70.9404 181.64C72.2688 180.252 73.0292 178.417 73.0719 176.496C73.1146 174.575 72.4364 172.708 71.171 171.262C66.9768 166.55 64.0043 160.879 62.5149 154.749C69.2337 156.318 75.4299 159.7 80.519 164.636C81.7849 165.872 83.4401 166.633 85.2033 166.787C86.9664 166.941 88.7285 166.48 90.1899 165.481C115.958 148 149.445 138.375 184.5 138.375C260.791 138.375 322.875 183.208 322.875 238.312C322.875 265.619 307.669 291.203 280.056 310.329Z" fill="#E57373"/>
<path opacity="0.2" d="M30.75 238.313H40.098C41.8815 238.314 43.6099 237.695 44.9871 236.561C46.3643 235.428 47.3047 233.851 47.6471 232.101C50.5991 216.957 58.6556 202.166 70.9402 189.328C72.0777 188.117 72.7869 186.567 72.9591 184.914C73.1312 183.262 72.7569 181.599 71.8935 180.18C71.6014 180.687 71.3554 181.21 70.9402 181.64C58.6556 194.478 50.5991 209.269 47.6471 224.413C47.3047 226.164 46.3643 227.741 44.9871 228.874C43.6099 230.007 41.8815 230.626 40.098 230.625H30.75C22.2784 230.625 15.375 237.528 15.375 246C15.375 247.614 15.7594 249.152 15.9746 250.72C16.6164 247.259 18.4411 244.129 21.1366 241.866C23.832 239.602 27.2304 238.346 30.75 238.313Z" fill="white"/>
<path d="M76.875 199.875C68.4034 199.875 61.5 206.778 61.5 215.25C61.5 223.722 68.4034 230.625 76.875 230.625C85.3466 230.625 92.25 223.722 92.25 215.25C92.25 206.778 85.3466 199.875 76.875 199.875ZM240.711 161.822C208.531 151.259 160.469 151.259 128.289 161.822C127.318 162.127 126.418 162.622 125.64 163.278C124.862 163.935 124.222 164.739 123.757 165.644C123.293 166.549 123.012 167.538 122.932 168.552C122.853 169.567 122.975 170.587 123.293 171.554C123.61 172.52 124.116 173.415 124.782 174.184C125.448 174.954 126.26 175.584 127.171 176.037C128.082 176.491 129.074 176.759 130.089 176.826C131.105 176.893 132.123 176.758 133.086 176.428C162.222 166.865 206.794 166.865 235.914 176.428C237.851 177.064 239.961 176.905 241.781 175.985C243.6 175.065 244.98 173.46 245.616 171.524C246.252 169.587 246.092 167.476 245.173 165.657C244.253 163.838 242.648 162.458 240.711 161.822Z" fill="black"/>
<path d="M238.312 92.25C259.541 92.25 276.75 75.0409 276.75 53.8125C276.75 32.5841 259.541 15.375 238.312 15.375C217.084 15.375 199.875 32.5841 199.875 53.8125C199.875 75.0409 217.084 92.25 238.312 92.25Z" fill="#FFCA28"/>
<path d="M153.75 84.5625C153.75 65.8819 167.157 50.3224 185.192 46.9245C184.9 49.2154 184.5 51.4601 184.5 53.8125C184.5 57.7331 184.977 61.5308 185.776 65.2054C184.98 66.3843 184.538 67.7657 184.5 69.1875V99.9375C184.5 101.976 185.31 103.932 186.752 105.373C188.193 106.815 190.149 107.625 192.188 107.625C194.226 107.625 196.182 106.815 197.623 105.373C199.065 103.932 199.875 101.976 199.875 99.9375V91.3582C206.44 98.0771 214.789 102.905 224.091 105.488C220.651 110.832 215.931 115.232 210.36 118.29C204.789 121.348 198.543 122.967 192.188 123C181.997 122.988 172.227 118.934 165.022 111.728C157.816 104.523 153.762 94.753 153.75 84.5625Z" fill="#FFCA28"/>
<path d="M153.75 84.5625C153.75 65.8819 167.157 50.3224 185.192 46.9245C184.9 49.2154 184.5 51.4601 184.5 53.8125C184.5 57.7331 184.977 61.5308 185.776 65.2054C184.98 66.3843 184.538 67.7657 184.5 69.1875V99.9375C184.5 101.976 185.31 103.932 186.752 105.373C188.193 106.815 190.149 107.625 192.188 107.625C194.226 107.625 196.182 106.815 197.623 105.373C199.065 103.932 199.875 101.976 199.875 99.9375V91.3582C206.44 98.0771 214.789 102.905 224.091 105.488C220.651 110.832 215.931 115.232 210.36 118.29C204.789 121.348 198.543 122.967 192.188 123C181.997 122.988 172.227 118.934 165.022 111.728C157.816 104.523 153.762 94.753 153.75 84.5625Z" fill="#FFCA28"/>
<path opacity="0.1" d="M199.875 91.3582V99.9375C199.875 101.976 199.065 103.932 197.623 105.373C196.182 106.815 194.226 107.625 192.188 107.625C190.149 107.625 188.193 106.815 186.752 105.373C185.31 103.932 184.5 101.976 184.5 99.9375V69.1875C184.5 67.6961 185.038 66.3893 185.776 65.2054C184.943 61.4645 184.516 57.6449 184.5 53.8125C184.5 51.4601 184.9 49.2154 185.192 46.9245C180.6 47.801 176.204 49.4989 172.215 51.9367C170.236 57.4759 169.192 63.3057 169.125 69.1875C169.125 92.9265 184.946 113.098 206.317 120.232C213.62 117.268 219.828 112.118 224.091 105.488C214.913 102.999 206.558 98.1239 199.875 91.3582Z" fill="black"/>
<path d="M238.312 76.875C240.351 76.875 242.307 76.0651 243.748 74.6234C245.19 73.1817 246 71.2264 246 69.1875V38.4375C246 36.3986 245.19 34.4433 243.748 33.0016C242.307 31.5599 240.351 30.75 238.312 30.75C236.274 30.75 234.318 31.5599 232.877 33.0016C231.435 34.4433 230.625 36.3986 230.625 38.4375V69.1875C230.625 71.2264 231.435 73.1817 232.877 74.6234C234.318 76.0651 236.274 76.875 238.312 76.875Z" fill="black"/>
<path opacity="0.2" d="M80.5188 172.323C81.7846 173.56 83.4399 174.32 85.2031 174.474C86.9662 174.629 88.7283 174.167 90.1897 173.169C115.958 155.687 149.445 146.062 184.5 146.062C259.007 146.062 319.785 188.851 322.614 242.172C322.675 240.88 322.875 239.604 322.875 238.312C322.875 183.208 260.791 138.375 184.5 138.375C149.445 138.375 115.958 148 90.1897 165.481C88.7293 166.482 86.9666 166.946 85.2027 166.791C83.4388 166.637 81.7831 165.875 80.5188 164.636C75.5262 159.767 69.3023 156.349 62.5146 154.749C63.268 157.886 64.4673 160.899 66.0048 163.775C71.3399 165.589 76.3521 168.279 80.5188 172.323Z" fill="white"/>
</g>
<defs>
<clipPath id="clip0_123_40">
<rect width="369" height="369" fill="white"/>
</clipPath>
</defs>
</svg>
