<svg width="82" height="52" viewBox="0 0 82 52" fill="none" xmlns="http://www.w3.org/2000/svg">
<path d="M11.2118 49.2665L17.7318 47.5195L18.023 48.6061C18.6653 51.0033 21.1372 52.4304 23.5344 51.7881L30.0544 50.0411C32.4516 49.3988 33.8787 46.9269 33.2363 44.5297L30.907 35.8364L54.8136 29.4306L57.143 38.124C57.7853 40.5212 60.2572 41.9483 62.6544 41.3059L69.1744 39.5589C71.5716 38.9166 72.9987 36.4448 72.3563 34.0476L72.0652 32.9609L78.5852 31.2139C80.9824 30.5715 82.4095 28.0997 81.7672 25.7025L76.5261 6.14252C75.8837 3.74533 73.4119 2.31822 71.0147 2.96054L64.4947 4.70757L64.2035 3.6209C63.5612 1.22372 61.0894 -0.203402 58.6922 0.438922L52.1722 2.18595C49.775 2.82828 48.3479 5.30012 48.9902 7.6973L51.3196 16.3906L27.4129 22.7964L25.0835 14.1031C24.4412 11.7059 21.9694 10.2788 19.5722 10.9211L13.0522 12.6681C10.655 13.3104 9.22789 15.7823 9.87022 18.1795L10.1614 19.2661L3.64139 21.0132C1.2442 21.6555 -0.182914 24.1273 0.45941 26.5245L5.7005 46.0845C6.34282 48.4817 8.81466 49.9088 11.2118 49.2665ZM72.1794 7.30721L77.4205 26.8672L70.9005 28.6142L65.6594 9.05424L72.1794 7.30721ZM53.3369 6.53262L59.8569 4.78559L68.0097 35.2123L61.4897 36.9593L53.3369 6.53262ZM52.2126 20.8101L53.3773 25.1568L29.7423 31.4897L28.5776 27.1431L52.2126 20.8101ZM14.2169 17.0148L20.7369 15.2678L26.5603 37.0011L26.5625 37.0005L28.8919 45.6938L22.3697 47.4415L14.2169 17.0148ZM4.80608 25.3598L11.3261 23.6128L16.5672 43.1728L10.0472 44.9198L4.80608 25.3598Z" fill="#FFCE00"/>
</svg>
