<svg width="75" height="63" viewBox="0 0 75 63" fill="none" xmlns="http://www.w3.org/2000/svg">
<path d="M24.8653 24.215H30.1806C30.8086 24.215 31.3074 23.7076 31.3074 23.0883V14.711C31.3074 14.324 31.1526 13.9455 30.8774 13.6703C30.6022 13.3951 30.2323 13.2403 29.8366 13.2403H16.2041C11.8779 13.2403 7.80963 14.926 4.74771 17.988C1.68578 21.0499 0 25.1181 0 29.4444V29.6938C0 34.02 1.68578 38.0883 4.74771 41.1502C7.80963 44.2121 11.8779 45.8978 16.2041 45.8978H29.8452C30.2322 45.8978 30.6106 45.7431 30.8859 45.4678C31.1611 45.1926 31.3159 44.8227 31.3159 44.4271V37.1852C31.3159 36.5573 30.8086 36.0585 30.1892 36.0585H24.8739C24.2459 36.0585 23.747 36.5658 23.747 37.1852V38.3119H16.2126C11.4477 38.3119 7.59452 34.4501 7.59452 29.6938V29.4444C7.59452 24.6796 11.4563 20.8263 16.2126 20.8263H23.747V23.0969C23.7385 23.7162 24.2459 24.215 24.8653 24.215Z" fill="#FF8000"/>
<path d="M51.7859 3.42661C51.416 3.22879 51.0032 3.12558 50.5904 3.12558C49.6271 3.12558 48.7498 3.65023 48.3025 4.50172L43.8214 13.0166C43.1592 14.2724 43.6407 15.8377 44.9051 16.5C45.275 16.6978 45.6879 16.801 46.1007 16.801C47.064 16.801 47.9412 16.2764 48.3885 15.4249L52.8697 6.90998C53.1878 6.29931 53.2567 5.60264 53.0503 4.94037C52.8437 4.2867 52.3965 3.74484 51.7859 3.42661Z" fill="#FF8000"/>
<path d="M37.1475 2.3687C36.8122 1.28498 35.8231 0.553902 34.6877 0.553902C34.4297 0.553902 34.1717 0.596906 33.9223 0.674315C32.5633 1.09576 31.7979 2.54931 32.2193 3.90826L35.0748 13.094C35.4102 14.1778 36.3993 14.9088 37.5346 14.9088C37.7927 14.9088 38.0507 14.8658 38.3001 14.7884C38.9624 14.582 39.4957 14.1348 39.8225 13.5241C40.1407 12.9134 40.2095 12.2167 40.0031 11.5545L37.1475 2.3687Z" fill="#FF8000"/>
<path d="M50.2806 21.0929C50.6161 22.1766 51.6052 22.9077 52.7406 22.9077C52.9986 22.9077 53.2567 22.8647 53.506 22.7873L62.6918 19.9318C64.0508 19.5103 64.8162 18.0568 64.3862 16.7064C64.0508 15.6227 63.0617 14.8916 61.9263 14.8916C61.6683 14.8916 61.4102 14.9346 61.1608 15.012L51.975 17.8589C50.6161 18.2804 49.8592 19.7339 50.2806 21.0929Z" fill="#FF8000"/>
<path d="M48.7928 43.808L45.0342 40.0493C44.5955 39.6107 43.873 39.6107 43.4344 40.0493L37.517 45.9753C37.2417 46.2507 37.0869 46.6204 37.0869 47.0161C37.0869 47.4031 37.2417 47.7815 37.517 48.0569L47.1586 57.6986C50.2205 60.7605 54.2887 62.4462 58.615 62.4462C62.9413 62.4462 67.0095 60.7604 70.0714 57.6986L70.252 57.5179C73.314 54.4558 74.9998 50.3878 74.9998 46.0614C74.9998 41.7353 73.3139 37.6669 70.252 34.6051L60.6018 24.9721C60.3266 24.6969 59.9568 24.542 59.5611 24.542C59.1741 24.542 58.7956 24.6969 58.5203 24.9721L53.4028 30.0896C52.9641 30.5284 52.9641 31.2508 53.4028 31.6894L57.1614 35.4479C57.6001 35.8867 58.3225 35.8867 58.7612 35.4479L59.5611 34.6481L64.8937 39.9807C68.2566 43.3436 68.2566 48.8052 64.8937 52.1767L64.713 52.3575C61.35 55.7204 55.8884 55.7204 52.5169 52.3575L47.1843 47.0249L48.7927 45.4165C49.24 44.9691 49.24 44.2552 48.7928 43.808Z" fill="#FF8000"/>
</svg>
