<svg width="84" height="84" viewBox="0 0 84 84" fill="none" xmlns="http://www.w3.org/2000/svg">
<mask id="path-1-outside-1_71_57" maskUnits="userSpaceOnUse" x="1" y="1" width="82" height="82" fill="black">
<rect fill="white" x="1" y="1" width="82" height="82"/>
<path d="M74.7411 19.0227L79.6043 14.1595C79.7817 13.9822 79.8516 13.724 79.7883 13.4811C79.7248 13.2385 79.5375 13.0476 79.2959 12.9796L73.1074 11.2407L71.3685 5.05214C71.3006 4.81061 71.1098 4.62327 70.8671 4.55977C70.6246 4.49644 70.3663 4.56642 70.1887 4.74362L65.3854 9.54699C58.5473 4.60831 50.4757 2 42 2C31.3156 2 21.2708 6.16073 13.7157 13.7157C6.16073 21.2708 2 31.3156 2 42C2 52.6844 6.16073 62.7292 13.7157 70.2843C21.2708 77.8393 31.3156 82 42 82C52.6844 82 62.7292 77.8393 70.2843 70.2843C77.8393 62.7292 82 52.6844 82 42C82 33.7063 79.4914 25.7757 74.7411 19.0227ZM77.752 14.0136L73.3202 18.4454L73.3198 18.4456L68.7882 22.9772L63.7779 21.5692L72.7415 12.6056L77.752 14.0136ZM40.359 41.7079L42.6027 43.9519C42.7352 44.0844 42.9149 44.1588 43.1023 44.1588H43.1026C43.2432 44.1588 43.3795 44.1168 43.4946 44.0398C43.533 44.0142 43.569 43.9846 43.6021 43.9514L46.3095 41.2383C46.3536 41.4882 46.3757 41.7425 46.3757 42.0003C46.3757 44.4133 44.4127 46.3763 41.9997 46.3763C39.5867 46.3763 37.6237 44.4133 37.6237 42.0003C37.6237 39.5873 39.5867 37.6243 41.9997 37.6243C42.4255 37.6243 42.8483 37.6868 43.2535 37.808L40.3581 40.7096C40.083 40.9852 40.0834 41.4322 40.359 41.7079ZM42 36.2111C38.8079 36.2111 36.2111 38.8079 36.2111 42C36.2111 45.1921 38.8079 47.7889 42 47.7889C45.1921 47.7889 47.7889 45.1921 47.7889 42C47.7889 41.3411 47.6777 40.6991 47.4611 40.0845L53.0147 34.5193C54.5232 36.7297 55.3165 39.2994 55.3165 42.0002C55.3165 49.3429 49.3427 55.3167 42 55.3167C34.6573 55.3167 28.6835 49.343 28.6835 42.0002C28.6835 34.6573 34.6571 28.6837 42 28.6837C44.8111 28.6837 47.5599 29.581 49.8234 31.2245L44.3475 36.7121C43.6109 36.3849 42.8099 36.2111 42 36.2111ZM42 27.2706C33.8782 27.2706 27.2706 33.8782 27.2706 42C27.2706 50.1218 33.8782 56.7294 42 56.7294C50.1218 56.7294 56.7294 50.1218 56.7294 42C56.7294 38.9216 55.7977 35.9973 54.0287 33.503L57.8508 29.6729C60.584 33.1852 62.0807 37.5324 62.0807 42.0002C62.0807 53.0727 53.0726 62.0809 42 62.0809C30.9274 62.0809 21.9193 53.0726 21.9193 42C21.9193 30.9274 30.9274 21.9193 42 21.9193C46.613 21.9193 51.0723 23.5043 54.6404 26.3975L50.8326 30.2133C48.2951 28.3113 45.1836 27.2706 42 27.2706ZM57.4055 28.1188L46.1341 39.4138L46.1338 39.4141L43.1018 42.4525L41.857 41.2078L61.5616 21.462L61.7449 22.1143C61.8059 22.3533 61.9976 22.5357 62.234 22.6032L62.7616 22.7514L57.4055 28.1188ZM55.6426 25.3932C51.8046 22.2376 46.9866 20.5062 42 20.5062C30.1483 20.5062 20.5063 30.1482 20.5063 41.9998C20.5063 53.8515 30.1483 63.4935 42 63.4935C53.8517 63.4935 63.4937 53.8515 63.4937 41.9998C63.4937 37.1584 61.8503 32.4498 58.8553 28.6661L64.3205 23.1895L68.4671 24.3547C71.9614 29.585 73.8072 35.6806 73.8072 41.9998C73.8072 59.5384 59.5386 73.8072 41.9998 73.8072C24.4611 73.8072 10.1926 59.5386 10.1926 42C10.1926 24.4614 24.4614 10.1926 42 10.1926C48.4525 10.1926 54.6542 12.1111 59.9548 15.7437L61.1231 19.9013L55.6426 25.3932ZM65.9568 10.9739L65.9572 10.9736L70.3345 6.59625L71.7425 11.6066L62.7789 20.5702L61.7349 16.8553L61.3709 15.5597L65.9568 10.9739ZM42 80.587C20.7229 80.587 3.41295 63.2771 3.41295 42C3.41295 20.7229 20.7229 3.41295 42 3.41295C50.1 3.41295 57.8177 5.8808 64.3738 10.5585L60.5155 14.4169C55.0314 10.7271 48.643 8.77968 42 8.77968C23.6823 8.77968 8.77968 23.6822 8.77968 42C8.77968 60.3178 23.6822 75.2203 42 75.2203C60.3178 75.2203 75.2203 60.3178 75.2203 42C75.2203 35.5335 73.3692 29.2912 69.8611 23.9027L73.7274 20.0364C78.2178 26.5061 80.587 34.082 80.587 42C80.587 63.2771 63.2771 80.587 42 80.587Z"/>
</mask>
<path d="M74.7411 19.0227L79.6043 14.1595C79.7817 13.9822 79.8516 13.724 79.7883 13.4811C79.7248 13.2385 79.5375 13.0476 79.2959 12.9796L73.1074 11.2407L71.3685 5.05214C71.3006 4.81061 71.1098 4.62327 70.8671 4.55977C70.6246 4.49644 70.3663 4.56642 70.1887 4.74362L65.3854 9.54699C58.5473 4.60831 50.4757 2 42 2C31.3156 2 21.2708 6.16073 13.7157 13.7157C6.16073 21.2708 2 31.3156 2 42C2 52.6844 6.16073 62.7292 13.7157 70.2843C21.2708 77.8393 31.3156 82 42 82C52.6844 82 62.7292 77.8393 70.2843 70.2843C77.8393 62.7292 82 52.6844 82 42C82 33.7063 79.4914 25.7757 74.7411 19.0227ZM77.752 14.0136L73.3202 18.4454L73.3198 18.4456L68.7882 22.9772L63.7779 21.5692L72.7415 12.6056L77.752 14.0136ZM40.359 41.7079L42.6027 43.9519C42.7352 44.0844 42.9149 44.1588 43.1023 44.1588H43.1026C43.2432 44.1588 43.3795 44.1168 43.4946 44.0398C43.533 44.0142 43.569 43.9846 43.6021 43.9514L46.3095 41.2383C46.3536 41.4882 46.3757 41.7425 46.3757 42.0003C46.3757 44.4133 44.4127 46.3763 41.9997 46.3763C39.5867 46.3763 37.6237 44.4133 37.6237 42.0003C37.6237 39.5873 39.5867 37.6243 41.9997 37.6243C42.4255 37.6243 42.8483 37.6868 43.2535 37.808L40.3581 40.7096C40.083 40.9852 40.0834 41.4322 40.359 41.7079ZM42 36.2111C38.8079 36.2111 36.2111 38.8079 36.2111 42C36.2111 45.1921 38.8079 47.7889 42 47.7889C45.1921 47.7889 47.7889 45.1921 47.7889 42C47.7889 41.3411 47.6777 40.6991 47.4611 40.0845L53.0147 34.5193C54.5232 36.7297 55.3165 39.2994 55.3165 42.0002C55.3165 49.3429 49.3427 55.3167 42 55.3167C34.6573 55.3167 28.6835 49.343 28.6835 42.0002C28.6835 34.6573 34.6571 28.6837 42 28.6837C44.8111 28.6837 47.5599 29.581 49.8234 31.2245L44.3475 36.7121C43.6109 36.3849 42.8099 36.2111 42 36.2111ZM42 27.2706C33.8782 27.2706 27.2706 33.8782 27.2706 42C27.2706 50.1218 33.8782 56.7294 42 56.7294C50.1218 56.7294 56.7294 50.1218 56.7294 42C56.7294 38.9216 55.7977 35.9973 54.0287 33.503L57.8508 29.6729C60.584 33.1852 62.0807 37.5324 62.0807 42.0002C62.0807 53.0727 53.0726 62.0809 42 62.0809C30.9274 62.0809 21.9193 53.0726 21.9193 42C21.9193 30.9274 30.9274 21.9193 42 21.9193C46.613 21.9193 51.0723 23.5043 54.6404 26.3975L50.8326 30.2133C48.2951 28.3113 45.1836 27.2706 42 27.2706ZM57.4055 28.1188L46.1341 39.4138L46.1338 39.4141L43.1018 42.4525L41.857 41.2078L61.5616 21.462L61.7449 22.1143C61.8059 22.3533 61.9976 22.5357 62.234 22.6032L62.7616 22.7514L57.4055 28.1188ZM55.6426 25.3932C51.8046 22.2376 46.9866 20.5062 42 20.5062C30.1483 20.5062 20.5063 30.1482 20.5063 41.9998C20.5063 53.8515 30.1483 63.4935 42 63.4935C53.8517 63.4935 63.4937 53.8515 63.4937 41.9998C63.4937 37.1584 61.8503 32.4498 58.8553 28.6661L64.3205 23.1895L68.4671 24.3547C71.9614 29.585 73.8072 35.6806 73.8072 41.9998C73.8072 59.5384 59.5386 73.8072 41.9998 73.8072C24.4611 73.8072 10.1926 59.5386 10.1926 42C10.1926 24.4614 24.4614 10.1926 42 10.1926C48.4525 10.1926 54.6542 12.1111 59.9548 15.7437L61.1231 19.9013L55.6426 25.3932ZM65.9568 10.9739L65.9572 10.9736L70.3345 6.59625L71.7425 11.6066L62.7789 20.5702L61.7349 16.8553L61.3709 15.5597L65.9568 10.9739ZM42 80.587C20.7229 80.587 3.41295 63.2771 3.41295 42C3.41295 20.7229 20.7229 3.41295 42 3.41295C50.1 3.41295 57.8177 5.8808 64.3738 10.5585L60.5155 14.4169C55.0314 10.7271 48.643 8.77968 42 8.77968C23.6823 8.77968 8.77968 23.6822 8.77968 42C8.77968 60.3178 23.6822 75.2203 42 75.2203C60.3178 75.2203 75.2203 60.3178 75.2203 42C75.2203 35.5335 73.3692 29.2912 69.8611 23.9027L73.7274 20.0364C78.2178 26.5061 80.587 34.082 80.587 42C80.587 63.2771 63.2771 80.587 42 80.587Z" fill="#0FB0A8"/>
<path d="M74.7411 19.0227L79.6043 14.1595C79.7817 13.9822 79.8516 13.724 79.7883 13.4811C79.7248 13.2385 79.5375 13.0476 79.2959 12.9796L73.1074 11.2407L71.3685 5.05214C71.3006 4.81061 71.1098 4.62327 70.8671 4.55977C70.6246 4.49644 70.3663 4.56642 70.1887 4.74362L65.3854 9.54699C58.5473 4.60831 50.4757 2 42 2C31.3156 2 21.2708 6.16073 13.7157 13.7157C6.16073 21.2708 2 31.3156 2 42C2 52.6844 6.16073 62.7292 13.7157 70.2843C21.2708 77.8393 31.3156 82 42 82C52.6844 82 62.7292 77.8393 70.2843 70.2843C77.8393 62.7292 82 52.6844 82 42C82 33.7063 79.4914 25.7757 74.7411 19.0227ZM77.752 14.0136L73.3202 18.4454L73.3198 18.4456L68.7882 22.9772L63.7779 21.5692L72.7415 12.6056L77.752 14.0136ZM40.359 41.7079L42.6027 43.9519C42.7352 44.0844 42.9149 44.1588 43.1023 44.1588H43.1026C43.2432 44.1588 43.3795 44.1168 43.4946 44.0398C43.533 44.0142 43.569 43.9846 43.6021 43.9514L46.3095 41.2383C46.3536 41.4882 46.3757 41.7425 46.3757 42.0003C46.3757 44.4133 44.4127 46.3763 41.9997 46.3763C39.5867 46.3763 37.6237 44.4133 37.6237 42.0003C37.6237 39.5873 39.5867 37.6243 41.9997 37.6243C42.4255 37.6243 42.8483 37.6868 43.2535 37.808L40.3581 40.7096C40.083 40.9852 40.0834 41.4322 40.359 41.7079ZM42 36.2111C38.8079 36.2111 36.2111 38.8079 36.2111 42C36.2111 45.1921 38.8079 47.7889 42 47.7889C45.1921 47.7889 47.7889 45.1921 47.7889 42C47.7889 41.3411 47.6777 40.6991 47.4611 40.0845L53.0147 34.5193C54.5232 36.7297 55.3165 39.2994 55.3165 42.0002C55.3165 49.3429 49.3427 55.3167 42 55.3167C34.6573 55.3167 28.6835 49.343 28.6835 42.0002C28.6835 34.6573 34.6571 28.6837 42 28.6837C44.8111 28.6837 47.5599 29.581 49.8234 31.2245L44.3475 36.7121C43.6109 36.3849 42.8099 36.2111 42 36.2111ZM42 27.2706C33.8782 27.2706 27.2706 33.8782 27.2706 42C27.2706 50.1218 33.8782 56.7294 42 56.7294C50.1218 56.7294 56.7294 50.1218 56.7294 42C56.7294 38.9216 55.7977 35.9973 54.0287 33.503L57.8508 29.6729C60.584 33.1852 62.0807 37.5324 62.0807 42.0002C62.0807 53.0727 53.0726 62.0809 42 62.0809C30.9274 62.0809 21.9193 53.0726 21.9193 42C21.9193 30.9274 30.9274 21.9193 42 21.9193C46.613 21.9193 51.0723 23.5043 54.6404 26.3975L50.8326 30.2133C48.2951 28.3113 45.1836 27.2706 42 27.2706ZM57.4055 28.1188L46.1341 39.4138L46.1338 39.4141L43.1018 42.4525L41.857 41.2078L61.5616 21.462L61.7449 22.1143C61.8059 22.3533 61.9976 22.5357 62.234 22.6032L62.7616 22.7514L57.4055 28.1188ZM55.6426 25.3932C51.8046 22.2376 46.9866 20.5062 42 20.5062C30.1483 20.5062 20.5063 30.1482 20.5063 41.9998C20.5063 53.8515 30.1483 63.4935 42 63.4935C53.8517 63.4935 63.4937 53.8515 63.4937 41.9998C63.4937 37.1584 61.8503 32.4498 58.8553 28.6661L64.3205 23.1895L68.4671 24.3547C71.9614 29.585 73.8072 35.6806 73.8072 41.9998C73.8072 59.5384 59.5386 73.8072 41.9998 73.8072C24.4611 73.8072 10.1926 59.5386 10.1926 42C10.1926 24.4614 24.4614 10.1926 42 10.1926C48.4525 10.1926 54.6542 12.1111 59.9548 15.7437L61.1231 19.9013L55.6426 25.3932ZM65.9568 10.9739L65.9572 10.9736L70.3345 6.59625L71.7425 11.6066L62.7789 20.5702L61.7349 16.8553L61.3709 15.5597L65.9568 10.9739ZM42 80.587C20.7229 80.587 3.41295 63.2771 3.41295 42C3.41295 20.7229 20.7229 3.41295 42 3.41295C50.1 3.41295 57.8177 5.8808 64.3738 10.5585L60.5155 14.4169C55.0314 10.7271 48.643 8.77968 42 8.77968C23.6823 8.77968 8.77968 23.6822 8.77968 42C8.77968 60.3178 23.6822 75.2203 42 75.2203C60.3178 75.2203 75.2203 60.3178 75.2203 42C75.2203 35.5335 73.3692 29.2912 69.8611 23.9027L73.7274 20.0364C78.2178 26.5061 80.587 34.082 80.587 42C80.587 63.2771 63.2771 80.587 42 80.587Z" stroke="#0FB0A8" stroke-width="2" mask="url(#path-1-outside-1_71_57)"/>
</svg>
