<svg width="1200" height="1200" viewBox="0 0 1200 1200" fill="none" xmlns="http://www.w3.org/2000/svg">
<path d="M1130.74 468.921V1147.36H49.3368C49.2101 1147.36 49.1064 1147.25 49.1064 1147.13V468.921L131.496 398.269C437.015 523.135 742.634 523.176 1048.35 398.269L1130.74 468.921Z" fill="#EEEEEE"/>
<path d="M1030.96 392.712C883.73 350.25 736.961 364.326 589.961 436.096C442.961 364.326 295.962 350.25 148.962 392.712C143.192 394.327 137.192 396.172 131.423 398.25V1067.71C162.116 1053.17 193.269 1040.94 223.962 1031.71C346.038 996.865 467.885 1008.4 589.961 1067.71C711.808 1008.4 833.885 996.865 955.73 1031.71C986.654 1040.94 1017.81 1053.17 1048.27 1067.71V398.25C1042.5 396.172 1036.5 394.327 1030.96 392.712Z" fill="#FAF6F1"/>
<path d="M249.084 524.205H474.534C487.29 524.205 497.611 513.873 497.611 501.129C497.611 488.384 487.29 478.052 474.534 478.052H249.084C236.328 478.052 226.007 488.384 226.007 501.129C226.007 513.873 236.328 524.205 249.084 524.205ZM249.084 655.726H474.534C487.29 655.726 497.611 645.393 497.611 632.649C497.611 619.905 487.29 609.572 474.534 609.572H249.084C236.328 609.572 226.007 619.905 226.007 632.649C226.007 645.393 236.328 655.726 249.084 655.726ZM249.084 787.246H474.534C487.29 787.246 497.611 776.914 497.611 764.169C497.611 751.425 487.29 741.093 474.534 741.093H249.084C236.328 741.093 226.007 751.425 226.007 764.169C226.007 776.914 236.328 787.246 249.084 787.246ZM249.084 918.756H474.534C487.29 918.756 497.611 908.423 497.611 895.679C497.611 882.934 487.29 872.602 474.534 872.602H249.084C236.328 872.602 226.007 882.934 226.007 895.679C226.007 908.423 236.328 918.756 249.084 918.756ZM705.304 524.205H930.754C943.51 524.205 953.831 513.873 953.831 501.129C953.831 488.384 943.51 478.052 930.754 478.052H705.304C692.548 478.052 682.227 488.384 682.227 501.129C682.227 513.873 692.548 524.205 705.304 524.205ZM705.304 655.726H930.754C943.51 655.726 953.831 645.393 953.831 632.649C953.831 619.905 943.51 609.572 930.754 609.572H705.304C692.548 609.572 682.227 619.905 682.227 632.649C682.227 645.393 692.548 655.726 705.304 655.726ZM705.304 787.246H930.754C943.51 787.246 953.831 776.914 953.831 764.169C953.831 751.425 943.51 741.093 930.754 741.093H705.304C692.548 741.093 682.227 751.425 682.227 764.169C682.227 776.914 692.548 787.246 705.304 787.246ZM705.304 918.756H930.754C943.51 918.756 953.831 908.423 953.831 895.679C953.831 882.934 943.51 872.602 930.754 872.602H705.304C692.548 872.602 682.227 882.934 682.227 895.679C682.227 908.423 692.548 918.756 705.304 918.756Z" fill="black"/>
<path d="M228.299 186.067V507.006C466.987 608.928 705.674 608.928 944.364 507.006V186.067H228.299Z" fill="#241D7A"/>
<path opacity="0.12" d="M944.257 185.982V506.931C705.541 608.985 467.121 608.985 228.404 506.931V429.726C361.517 485.93 498.476 507.82 639.28 495.692C751.094 485.93 839.836 397.188 852.556 285.668L864.093 185.982H944.257Z" fill="black"/>
<path d="M586.13 52.6846L75.1611 212.885L586.13 373.062L1097.49 212.885L586.13 52.6846Z" fill="#241D7A"/>
<path opacity="0.12" d="M1097.56 212.792L586.062 373.131L75.0928 212.792L251.77 157.454L586.062 262.431L920.885 157.454L1097.56 212.792Z" fill="black"/>
<path d="M1133.28 452.597L1152.71 560.691C1154.72 572.528 1145.78 583.471 1133.72 583.471H1061.36C1049.3 583.471 1040.37 572.528 1042.38 560.691L1061.81 452.374C1043.27 438.304 1033.22 413.737 1040.82 387.607C1046.4 368.4 1062.26 352.767 1081.69 347.854C1121.44 337.58 1156.73 367.284 1156.73 405.028C1156.73 424.68 1147.57 441.877 1133.28 452.597Z" fill="#FF7E00"/>
<path d="M1152.12 459.173C1166.19 444.864 1174.04 425.712 1174.04 404.942C1174.04 371.019 1151.42 342.173 1120.5 332.48V212.942C1120.5 203.481 1113.81 194.48 1105.5 191.48C1105.04 191.249 1104.81 191.018 1104.35 190.789L592.962 30.6348C588.577 29.2502 583.731 29.2502 579.346 30.6348L68.1931 190.789C58.7307 193.789 52.0388 202.788 52.0388 212.942C52.0388 222.864 58.7307 231.865 68.1929 234.865L205.27 277.788V352.788C165.577 359.019 135.577 368.711 119.192 379.096C118.962 379.096 116.885 380.48 116.423 380.711L34.0393 451.327C28.9619 455.711 25.9619 462.172 25.9619 468.865V1147.1C25.9619 1159.56 36.3468 1170.4 49.2698 1170.4H1130.65C1143.81 1170.4 1153.73 1159.56 1153.73 1147.33V594.635C1156.73 592.788 1159.27 590.481 1161.58 587.942C1168.73 579.634 1171.5 568.558 1169.65 557.711C1169.24 555.378 1151.73 456.836 1152.12 459.173ZM1139.42 404.942C1139.42 437.022 1112.91 436.458 1116.35 455.711L1135.27 565.558C1134.58 566.249 1133.89 566.249 1133.65 566.249C1127.11 566.249 1068.98 566.249 1071.35 566.249H1061.42L1059.35 563.711C1059.76 561.401 1080.01 448.313 1078.73 455.48V454.789C1079.65 448.557 1077.12 442.326 1072.27 438.635C1040.71 414.311 1056.57 363.173 1097.65 363.173C1120.73 363.173 1139.42 381.865 1139.42 404.942ZM613.039 606.173C726.347 602.711 840.808 576.403 953.423 528.173C961.962 524.711 967.5 516.173 967.5 506.942V401.481C985.501 404.711 1003.73 408.865 1021.73 413.942C1022.19 419.481 1023.35 424.558 1025.19 429.634C1025.19 641.571 1025.19 813.928 1025.19 1032.17C1003.96 1023.4 982.962 1015.79 962.193 1009.56C845.193 976.096 728.654 983.712 613.039 1031.94L613.039 606.173ZM1074.35 332.25C1055.65 338.019 1039.5 351.403 1030.27 368.711C1010.65 362.25 989.654 357.172 967.5 353.481V277.788L1074.35 244.327V332.25ZM152.423 212.942L586.039 76.7887L1020.35 212.942L586.039 348.865L152.423 212.942ZM251.424 292.326L579.346 395.019C581.424 395.712 583.731 396.172 586.039 396.172C588.346 396.172 590.884 395.712 592.962 395.019L921.346 292.326C921.346 298.136 921.346 501.326 921.346 491.711C705.172 579.836 481.296 585.68 251.424 491.711C251.424 487.922 251.424 281.514 251.424 292.326ZM72.1158 479.48L108.347 448.557V1058.02L72.1158 1093.1V479.48ZM566.885 1124.25H106.269C133.962 1106.48 115.269 1088.48 230.423 1054.1C342.578 1021.79 455.423 1031.71 566.885 1082.71V1124.25ZM566.885 1031.94C451.5 983.711 334.269 976.096 217.5 1009.79C196.732 1015.79 175.731 1023.4 154.501 1032.17V415.096C154.732 415.096 155.194 415.096 155.423 414.865C172.039 410.019 188.654 406.095 205.27 402.866V506.941C205.27 516.173 210.808 524.711 219.347 528.173C334.5 577.327 451.27 603.634 566.885 606.403L566.885 1031.94ZM613.039 1124.25V1082.71C724.501 1031.71 837.577 1022.02 949.27 1053.86C1062.58 1087.79 1048.73 1108.1 1073.65 1124.25H613.039ZM1071.35 1057.79V600.865H1107.58V1092.86L1071.35 1057.79Z" fill="black"/>
</svg>
