<svg width="877" height="877" viewBox="0 0 877 877" fill="none" xmlns="http://www.w3.org/2000/svg">
<g clip-path="url(#clip0_124_89)">
<path d="M723.525 584.667H153.475C76.7852 584.667 14.6162 646.836 14.6162 723.525C14.6162 800.214 76.7852 862.383 153.475 862.383H723.525C800.214 862.383 862.383 800.214 862.383 723.525C862.383 646.836 800.214 584.667 723.525 584.667Z" fill="#8E94A0"/>
<path d="M146.166 14.6167H43.8495C27.7044 14.6167 14.6162 27.7049 14.6162 43.85V160.783C14.6162 176.928 27.7044 190.017 43.8495 190.017H146.166C162.311 190.017 175.4 176.928 175.4 160.783V43.85C175.4 27.7049 162.311 14.6167 146.166 14.6167Z" fill="#FFE38F"/>
<path d="M380.033 160.783H277.717C261.572 160.783 248.483 173.872 248.483 190.017V306.95C248.483 323.095 261.572 336.183 277.717 336.183H380.033C396.179 336.183 409.267 323.095 409.267 306.95V190.017C409.267 173.872 396.179 160.783 380.033 160.783Z" fill="#FFE9AD"/>
<path d="M599.283 263.1H496.967C480.822 263.1 467.733 276.188 467.733 292.333V409.267C467.733 425.412 480.822 438.5 496.967 438.5H599.283C615.429 438.5 628.517 425.412 628.517 409.267V292.333C628.517 276.188 615.429 263.1 599.283 263.1Z" fill="#FFEFC2"/>
<path d="M833.15 350.8H730.833C714.688 350.8 701.6 363.888 701.6 380.033V496.967C701.6 513.112 714.688 526.2 730.833 526.2H833.15C849.295 526.2 862.383 513.112 862.383 496.967V380.033C862.383 363.888 849.295 350.8 833.15 350.8Z" fill="#FFF4D6"/>
<path d="M723.525 570.05H153.475C112.771 570.05 73.7339 586.22 44.9518 615.002C16.1696 643.784 3.23424e-06 682.821 3.23424e-06 723.525C3.23424e-06 764.229 16.1696 803.266 44.9518 832.048C73.7339 860.83 112.771 877 153.475 877H723.525C764.229 877 803.266 860.83 832.048 832.048C860.83 803.266 877 764.229 877 723.525C877 682.821 860.83 643.784 832.048 615.002C803.266 586.22 764.229 570.05 723.525 570.05ZM723.525 847.767H153.475C120.524 847.767 88.9227 834.677 65.6229 811.377C42.323 788.077 29.2333 756.476 29.2333 723.525C29.2333 690.574 42.323 658.973 65.6229 635.673C88.9227 612.373 120.524 599.283 153.475 599.283H723.525C756.476 599.283 788.077 612.373 811.377 635.673C834.677 658.973 847.767 690.574 847.767 723.525C847.767 756.476 834.677 788.077 811.377 811.377C788.077 834.677 756.476 847.767 723.525 847.767ZM43.85 204.633H146.167C157.796 204.633 168.95 200.013 177.173 191.79C185.397 183.567 190.017 172.413 190.017 160.783V43.85C190.017 32.2203 185.397 21.0668 177.173 12.8434C168.95 4.6199 157.796 0 146.167 0L43.85 0C32.2203 0 21.0668 4.6199 12.8434 12.8434C4.6199 21.0668 0 32.2203 0 43.85L0 58.4667C0 62.3432 1.53997 66.0611 4.28112 68.8022C7.02228 71.5434 10.7401 73.0833 14.6167 73.0833C18.4932 73.0833 22.2111 71.5434 24.9522 68.8022C27.6934 66.0611 29.2333 62.3432 29.2333 58.4667V43.85C29.2333 39.9734 30.7733 36.2556 33.5145 33.5145C36.2556 30.7733 39.9734 29.2333 43.85 29.2333H146.167C150.043 29.2333 153.761 30.7733 156.502 33.5145C159.243 36.2556 160.783 39.9734 160.783 43.85V160.783C160.783 164.66 159.243 168.378 156.502 171.119C153.761 173.86 150.043 175.4 146.167 175.4H43.85C39.9734 175.4 36.2556 173.86 33.5145 171.119C30.7733 168.378 29.2333 164.66 29.2333 160.783V146.167C29.2333 142.29 27.6934 138.572 24.9522 135.831C22.2111 133.09 18.4932 131.55 14.6167 131.55C10.7401 131.55 7.02228 133.09 4.28112 135.831C1.53997 138.572 0 142.29 0 146.167L0 160.783C0 172.413 4.6199 183.567 12.8434 191.79C21.0668 200.013 32.2203 204.633 43.85 204.633ZM233.867 306.95C233.867 318.58 238.487 329.733 246.71 337.957C254.934 346.18 266.087 350.8 277.717 350.8H380.033C391.663 350.8 402.817 346.18 411.04 337.957C419.263 329.733 423.883 318.58 423.883 306.95V190.017C423.883 178.387 419.263 167.234 411.04 159.01C402.817 150.787 391.663 146.167 380.033 146.167H277.717C266.087 146.167 254.934 150.787 246.71 159.01C238.487 167.234 233.867 178.387 233.867 190.017V306.95ZM263.1 190.017C263.1 186.14 264.64 182.422 267.381 179.681C270.122 176.94 273.84 175.4 277.717 175.4H380.033C383.91 175.4 387.628 176.94 390.369 179.681C393.11 182.422 394.65 186.14 394.65 190.017V306.95C394.65 310.827 393.11 314.544 390.369 317.286C387.628 320.027 383.91 321.567 380.033 321.567H277.717C273.84 321.567 270.122 320.027 267.381 317.286C264.64 314.544 263.1 310.827 263.1 306.95V190.017ZM453.117 409.267C453.117 420.896 457.737 432.05 465.96 440.273C474.184 448.497 485.337 453.117 496.967 453.117H599.283C610.913 453.117 622.066 448.497 630.29 440.273C638.513 432.05 643.133 420.896 643.133 409.267V292.333C643.133 280.704 638.513 269.55 630.29 261.327C622.066 253.103 610.913 248.483 599.283 248.483H496.967C485.337 248.483 474.184 253.103 465.96 261.327C457.737 269.55 453.117 280.704 453.117 292.333V409.267ZM482.35 292.333C482.35 288.457 483.89 284.739 486.631 281.998C489.372 279.257 493.09 277.717 496.967 277.717H599.283C603.16 277.717 606.878 279.257 609.619 281.998C612.36 284.739 613.9 288.457 613.9 292.333V409.267C613.9 413.143 612.36 416.861 609.619 419.602C606.878 422.343 603.16 423.883 599.283 423.883H496.967C493.09 423.883 489.372 422.343 486.631 419.602C483.89 416.861 482.35 413.143 482.35 409.267V292.333ZM833.15 336.183H730.833C719.204 336.183 708.05 340.803 699.827 349.027C691.603 357.25 686.983 368.404 686.983 380.033V496.967C686.983 508.596 691.603 519.75 699.827 527.973C708.05 536.197 719.204 540.817 730.833 540.817H833.15C844.78 540.817 855.933 536.197 864.157 527.973C872.38 519.75 877 508.596 877 496.967V380.033C877 368.404 872.38 357.25 864.157 349.027C855.933 340.803 844.78 336.183 833.15 336.183ZM847.767 496.967C847.767 500.843 846.227 504.561 843.486 507.302C840.744 510.043 837.027 511.583 833.15 511.583H730.833C726.957 511.583 723.239 510.043 720.498 507.302C717.757 504.561 716.217 500.843 716.217 496.967V380.033C716.217 376.157 717.757 372.439 720.498 369.698C723.239 366.957 726.957 365.417 730.833 365.417H833.15C837.027 365.417 840.744 366.957 843.486 369.698C846.227 372.439 847.767 376.157 847.767 380.033V496.967Z" fill="black"/>
<path d="M73.0835 87.7H87.7001C91.5767 87.7 95.2945 86.16 98.0357 83.4189C100.777 80.6777 102.317 76.9599 102.317 73.0833C102.317 69.2068 100.777 65.4889 98.0357 62.7478C95.2945 60.0066 91.5767 58.4667 87.7001 58.4667H73.0835C69.2069 58.4667 65.4891 60.0066 62.7479 62.7478C60.0068 65.4889 58.4668 69.2068 58.4668 73.0833C58.4668 76.9599 60.0068 80.6777 62.7479 83.4189C65.4891 86.16 69.2069 87.7 73.0835 87.7ZM73.0835 146.167H116.933C120.81 146.167 124.528 144.627 127.269 141.886C130.01 139.144 131.55 135.427 131.55 131.55C131.55 127.673 130.01 123.956 127.269 121.214C124.528 118.473 120.81 116.933 116.933 116.933H73.0835C69.2069 116.933 65.4891 118.473 62.7479 121.214C60.0068 123.956 58.4668 127.673 58.4668 131.55C58.4668 135.427 60.0068 139.144 62.7479 141.886C65.4891 144.627 69.2069 146.167 73.0835 146.167ZM306.95 233.867H321.567C325.443 233.867 329.161 232.327 331.902 229.586C334.644 226.844 336.183 223.127 336.183 219.25C336.183 215.373 334.644 211.656 331.902 208.914C329.161 206.173 325.443 204.633 321.567 204.633H306.95C303.074 204.633 299.356 206.173 296.615 208.914C293.873 211.656 292.333 215.373 292.333 219.25C292.333 223.127 293.873 226.844 296.615 229.586C299.356 232.327 303.074 233.867 306.95 233.867ZM306.95 292.333H350.8C354.677 292.333 358.395 290.793 361.136 288.052C363.877 285.311 365.417 281.593 365.417 277.717C365.417 273.84 363.877 270.122 361.136 267.381C358.395 264.64 354.677 263.1 350.8 263.1H306.95C303.074 263.1 299.356 264.64 296.615 267.381C293.873 270.122 292.333 273.84 292.333 277.717C292.333 281.593 293.873 285.311 296.615 288.052C299.356 290.793 303.074 292.333 306.95 292.333ZM526.2 336.183H540.817C544.693 336.183 548.411 334.643 551.152 331.902C553.894 329.161 555.433 325.443 555.433 321.567C555.433 317.69 553.894 313.972 551.152 311.231C548.411 308.49 544.693 306.95 540.817 306.95H526.2C522.324 306.95 518.606 308.49 515.865 311.231C513.123 313.972 511.583 317.69 511.583 321.567C511.583 325.443 513.123 329.161 515.865 331.902C518.606 334.643 522.324 336.183 526.2 336.183ZM526.2 394.65H570.05C573.927 394.65 577.645 393.11 580.386 390.369C583.127 387.628 584.667 383.91 584.667 380.033C584.667 376.157 583.127 372.439 580.386 369.698C577.645 366.957 573.927 365.417 570.05 365.417H526.2C522.324 365.417 518.606 366.957 515.865 369.698C513.123 372.439 511.583 376.157 511.583 380.033C511.583 383.91 513.123 387.628 515.865 390.369C518.606 393.11 522.324 394.65 526.2 394.65ZM760.067 423.883H774.683C778.56 423.883 782.278 422.343 785.019 419.602C787.76 416.861 789.3 413.143 789.3 409.267C789.3 405.39 787.76 401.672 785.019 398.931C782.278 396.19 778.56 394.65 774.683 394.65H760.067C756.19 394.65 752.472 396.19 749.731 398.931C746.99 401.672 745.45 405.39 745.45 409.267C745.45 413.143 746.99 416.861 749.731 419.602C752.472 422.343 756.19 423.883 760.067 423.883ZM803.917 453.117H760.067C756.19 453.117 752.472 454.657 749.731 457.398C746.99 460.139 745.45 463.857 745.45 467.733C745.45 471.61 746.99 475.328 749.731 478.069C752.472 480.81 756.19 482.35 760.067 482.35H803.917C807.793 482.35 811.511 480.81 814.252 478.069C816.994 475.328 818.533 471.61 818.533 467.733C818.533 463.857 816.994 460.139 814.252 457.398C811.511 454.657 807.793 453.117 803.917 453.117ZM770.401 252.766C767.644 250.103 763.952 248.63 760.119 248.663C756.287 248.697 752.621 250.234 749.911 252.944C747.201 255.654 745.664 259.32 745.63 263.153C745.597 266.985 747.07 270.677 749.733 273.434L778.966 302.667C781.707 305.408 785.424 306.947 789.3 306.947C793.176 306.947 796.893 305.408 799.634 302.667L828.867 273.434C831.53 270.677 833.003 266.985 832.97 263.153C832.937 259.32 831.4 255.654 828.689 252.944C825.979 250.234 822.313 248.697 818.481 248.663C814.648 248.63 810.956 250.103 808.199 252.766L803.917 257.049V219.25C803.917 211.497 800.837 204.061 795.355 198.579C789.872 193.097 782.437 190.017 774.683 190.017H701.6C697.724 190.017 694.006 191.557 691.265 194.298C688.523 197.039 686.983 200.757 686.983 204.633C686.983 208.51 688.523 212.228 691.265 214.969C694.006 217.71 697.724 219.25 701.6 219.25H774.683V257.049L770.401 252.766ZM540.817 102.317H467.733C463.857 102.317 460.139 103.857 457.398 106.598C454.657 109.339 453.117 113.057 453.117 116.933C453.117 120.81 454.657 124.528 457.398 127.269C460.139 130.01 463.857 131.55 467.733 131.55H540.817V169.349L536.534 165.066C533.777 162.403 530.085 160.93 526.253 160.964C522.42 160.997 518.754 162.534 516.044 165.244C513.334 167.954 511.797 171.62 511.764 175.453C511.73 179.285 513.204 182.977 515.866 185.734L545.099 214.967C547.841 217.708 551.558 219.247 555.433 219.247C559.309 219.247 563.026 217.708 565.767 214.967L595.001 185.734C597.663 182.977 599.137 179.285 599.103 175.453C599.07 171.62 597.533 167.954 594.823 165.244C592.113 162.534 588.447 160.997 584.614 160.964C580.782 160.93 577.09 162.403 574.333 165.066L570.05 169.349V131.55C570.05 123.797 566.97 116.361 561.488 110.879C556.006 105.397 548.57 102.317 540.817 102.317ZM321.567 0H248.483C244.607 0 240.889 1.53997 238.148 4.28112C235.407 7.02228 233.867 10.7401 233.867 14.6167C233.867 18.4932 235.407 22.2111 238.148 24.9522C240.889 27.6934 244.607 29.2333 248.483 29.2333H321.567V67.032L317.284 62.7494C314.527 60.0868 310.835 58.6135 307.003 58.6468C303.17 58.6801 299.504 60.2174 296.794 62.9274C294.084 65.6375 292.547 69.3035 292.514 73.1359C292.48 76.9684 293.954 80.6606 296.616 83.4173L325.849 112.651C328.59 115.391 332.308 116.93 336.183 116.93C340.059 116.93 343.776 115.391 346.517 112.651L375.751 83.4173C377.147 82.069 378.26 80.4561 379.026 78.6728C379.792 76.8895 380.196 74.9715 380.213 73.0307C380.229 71.0899 379.86 69.1652 379.125 67.3689C378.39 65.5726 377.304 63.9406 375.932 62.5682C374.56 61.1958 372.928 60.1104 371.131 59.3755C369.335 58.6406 367.41 58.2707 365.469 58.2876C363.529 58.3045 361.611 58.7077 359.827 59.4737C358.044 60.2398 356.431 61.3533 355.083 62.7494L350.8 67.032V29.2333C350.8 21.4802 347.72 14.0446 342.238 8.56225C336.756 3.07993 329.32 0 321.567 0Z" fill="black"/>
<g clip-path="url(#clip1_124_89)">
<path d="M250.235 703.611V734.611C250.235 735.638 249.827 736.624 249.1 737.351C248.374 738.077 247.388 738.486 246.36 738.486H228.07C226.656 743.46 224.68 748.257 222.18 752.784L235.084 765.688C235.806 766.414 236.211 767.396 236.211 768.42C236.211 769.444 235.806 770.426 235.084 771.152L213.19 793.084C212.459 793.81 211.47 794.218 210.439 794.218C209.408 794.218 208.419 793.81 207.688 793.084L194.784 780.181C190.257 782.68 185.46 784.656 180.485 786.071V804.361C180.485 805.388 180.077 806.374 179.35 807.101C178.624 807.827 177.638 808.236 176.61 808.236H145.61C144.583 808.236 143.597 807.827 142.87 807.101C142.144 806.374 141.735 805.388 141.735 804.361V786.071C136.761 784.656 131.964 782.68 127.437 780.181L114.533 793.084C113.801 793.81 112.812 794.218 111.782 794.218C110.751 794.218 109.762 793.81 109.03 793.084L87.1366 771.152C86.4149 770.426 86.0098 769.444 86.0098 768.42C86.0098 767.396 86.4149 766.414 87.1366 765.688L100.04 752.784C97.5406 748.257 95.5645 743.46 94.1504 738.486H75.8604C74.8326 738.486 73.847 738.077 73.1203 737.351C72.3936 736.624 71.9854 735.638 71.9854 734.611V703.611C71.9854 702.583 72.3936 701.597 73.1203 700.871C73.847 700.144 74.8326 699.736 75.8604 699.736H94.1504C95.5645 694.761 97.5406 689.964 100.04 685.437L87.1366 672.533C86.4106 671.801 86.0032 670.813 86.0032 669.782C86.0032 668.751 86.4106 667.762 87.1366 667.031L109.03 645.137C109.762 644.411 110.751 644.003 111.782 644.003C112.812 644.003 113.801 644.411 114.533 645.137L127.437 658.041C131.964 655.541 136.761 653.565 141.735 652.151V633.861C141.735 632.833 142.144 631.847 142.87 631.121C143.597 630.394 144.583 629.986 145.61 629.986H176.61C177.638 629.986 178.624 630.394 179.35 631.121C180.077 631.847 180.485 632.833 180.485 633.861V652.151C185.46 653.565 190.257 655.541 194.784 658.041L207.688 645.137C208.419 644.411 209.408 644.003 210.439 644.003C211.47 644.003 212.459 644.411 213.19 645.137L235.084 667.031C235.81 667.762 236.217 668.751 236.217 669.782C236.217 670.813 235.81 671.801 235.084 672.533L222.18 685.437C224.68 689.964 226.656 694.761 228.07 699.736H246.36C247.388 699.736 248.374 700.144 249.1 700.871C249.827 701.597 250.235 702.583 250.235 703.611Z" fill="#EEEEEE"/>
<path d="M246.471 699.846H228.181C226.767 694.872 224.79 690.075 222.291 685.547L235.194 672.644C235.92 671.912 236.328 670.923 236.328 669.892C236.328 668.862 235.92 667.873 235.194 667.141L213.301 645.247C212.569 644.521 211.58 644.114 210.549 644.114C209.519 644.114 208.53 644.521 207.798 645.247L194.894 658.151C190.367 655.651 185.57 653.675 180.596 652.261V633.971C180.596 632.943 180.187 631.958 179.461 631.231C178.734 630.504 177.748 630.096 176.721 630.096H145.721C144.693 630.096 143.707 630.504 142.981 631.231C142.254 631.958 141.846 632.943 141.846 633.971V652.261C136.871 653.675 132.074 655.651 127.547 658.151L114.643 645.247C113.912 644.521 112.923 644.114 111.892 644.114C110.861 644.114 109.872 644.521 109.141 645.247L87.247 667.141C86.521 667.873 86.1136 668.862 86.1136 669.892C86.1136 670.923 86.521 671.912 87.247 672.644L100.151 685.547C97.651 690.075 95.6749 694.872 94.2607 699.846H75.9707C74.943 699.846 73.9574 700.254 73.2307 700.981C72.504 701.708 72.0957 702.693 72.0957 703.721V734.721C72.0957 735.749 72.504 736.735 73.2307 737.461C73.9574 738.188 74.943 738.596 75.9707 738.596H94.2607C95.6749 743.571 97.651 748.368 100.151 752.895L87.247 765.799C86.5252 766.525 86.1201 767.507 86.1201 768.531C86.1201 769.554 86.5252 770.536 87.247 771.262L109.141 793.195C109.872 793.921 110.861 794.328 111.892 794.328C112.923 794.328 113.912 793.921 114.643 793.195L127.547 780.291C132.074 782.791 136.871 784.767 141.846 786.181V804.471C141.846 805.499 142.254 806.485 142.981 807.211C143.707 807.938 144.693 808.346 145.721 808.346H176.721C177.748 808.346 178.734 807.938 179.461 807.211C180.187 806.485 180.596 805.499 180.596 804.471V786.181C185.57 784.767 190.367 782.791 194.894 780.291L207.798 793.195C208.53 793.921 209.519 794.328 210.549 794.328C211.58 794.328 212.569 793.921 213.301 793.195L235.194 771.262C235.916 770.536 236.321 769.554 236.321 768.531C236.321 767.507 235.916 766.525 235.194 765.799L222.291 752.895C224.79 748.368 226.767 743.571 228.181 738.596H246.471C247.498 738.596 248.484 738.188 249.211 737.461C249.937 736.735 250.346 735.749 250.346 734.721V703.721C250.346 702.693 249.937 701.708 249.211 700.981C248.484 700.254 247.498 699.846 246.471 699.846Z" stroke="black" stroke-width="16" stroke-linejoin="round"/>
<circle cx="161.664" cy="719.664" r="29.8929" fill="black"/>
</g>
<g clip-path="url(#clip2_124_89)">
<path d="M528.235 703.611V734.611C528.235 735.638 527.827 736.624 527.1 737.351C526.374 738.077 525.388 738.486 524.36 738.486H506.07C504.656 743.46 502.68 748.257 500.18 752.784L513.084 765.688C513.806 766.414 514.211 767.396 514.211 768.42C514.211 769.444 513.806 770.426 513.084 771.152L491.19 793.084C490.459 793.81 489.47 794.218 488.439 794.218C487.408 794.218 486.419 793.81 485.688 793.084L472.784 780.181C468.257 782.68 463.46 784.656 458.485 786.071V804.361C458.485 805.388 458.077 806.374 457.35 807.101C456.624 807.827 455.638 808.236 454.61 808.236H423.61C422.583 808.236 421.597 807.827 420.87 807.101C420.144 806.374 419.735 805.388 419.735 804.361V786.071C414.761 784.656 409.964 782.68 405.437 780.181L392.533 793.084C391.801 793.81 390.812 794.218 389.782 794.218C388.751 794.218 387.762 793.81 387.03 793.084L365.137 771.152C364.415 770.426 364.01 769.444 364.01 768.42C364.01 767.396 364.415 766.414 365.137 765.688L378.04 752.784C375.541 748.257 373.565 743.46 372.15 738.486H353.86C352.833 738.486 351.847 738.077 351.12 737.351C350.394 736.624 349.985 735.638 349.985 734.611V703.611C349.985 702.583 350.394 701.597 351.12 700.871C351.847 700.144 352.833 699.736 353.86 699.736H372.15C373.565 694.761 375.541 689.964 378.04 685.437L365.137 672.533C364.411 671.801 364.003 670.813 364.003 669.782C364.003 668.751 364.411 667.762 365.137 667.031L387.03 645.137C387.762 644.411 388.751 644.003 389.782 644.003C390.812 644.003 391.801 644.411 392.533 645.137L405.437 658.041C409.964 655.541 414.761 653.565 419.735 652.151V633.861C419.735 632.833 420.144 631.847 420.87 631.121C421.597 630.394 422.583 629.986 423.61 629.986H454.61C455.638 629.986 456.624 630.394 457.35 631.121C458.077 631.847 458.485 632.833 458.485 633.861V652.151C463.46 653.565 468.257 655.541 472.784 658.041L485.688 645.137C486.419 644.411 487.408 644.003 488.439 644.003C489.47 644.003 490.459 644.411 491.19 645.137L513.084 667.031C513.81 667.762 514.217 668.751 514.217 669.782C514.217 670.813 513.81 671.801 513.084 672.533L500.18 685.437C502.68 689.964 504.656 694.761 506.07 699.736H524.36C525.388 699.736 526.374 700.144 527.1 700.871C527.827 701.597 528.235 702.583 528.235 703.611Z" fill="#EEEEEE"/>
<path d="M524.471 699.846H506.181C504.767 694.872 502.79 690.075 500.291 685.547L513.194 672.644C513.92 671.912 514.328 670.923 514.328 669.892C514.328 668.862 513.92 667.873 513.194 667.141L491.301 645.247C490.569 644.521 489.58 644.114 488.549 644.114C487.519 644.114 486.53 644.521 485.798 645.247L472.894 658.151C468.367 655.651 463.57 653.675 458.596 652.261V633.971C458.596 632.943 458.187 631.958 457.461 631.231C456.734 630.504 455.748 630.096 454.721 630.096H423.721C422.693 630.096 421.707 630.504 420.981 631.231C420.254 631.958 419.846 632.943 419.846 633.971V652.261C414.871 653.675 410.074 655.651 405.547 658.151L392.643 645.247C391.912 644.521 390.923 644.114 389.892 644.114C388.861 644.114 387.872 644.521 387.141 645.247L365.247 667.141C364.521 667.873 364.114 668.862 364.114 669.892C364.114 670.923 364.521 671.912 365.247 672.644L378.151 685.547C375.651 690.075 373.675 694.872 372.261 699.846H353.971C352.943 699.846 351.957 700.254 351.231 700.981C350.504 701.708 350.096 702.693 350.096 703.721V734.721C350.096 735.749 350.504 736.735 351.231 737.461C351.957 738.188 352.943 738.596 353.971 738.596H372.261C373.675 743.571 375.651 748.368 378.151 752.895L365.247 765.799C364.525 766.525 364.12 767.507 364.12 768.531C364.12 769.554 364.525 770.536 365.247 771.262L387.141 793.195C387.872 793.921 388.861 794.328 389.892 794.328C390.923 794.328 391.912 793.921 392.643 793.195L405.547 780.291C410.074 782.791 414.871 784.767 419.846 786.181V804.471C419.846 805.499 420.254 806.485 420.981 807.211C421.707 807.938 422.693 808.346 423.721 808.346H454.721C455.748 808.346 456.734 807.938 457.461 807.211C458.187 806.485 458.596 805.499 458.596 804.471V786.181C463.57 784.767 468.367 782.791 472.894 780.291L485.798 793.195C486.53 793.921 487.519 794.328 488.549 794.328C489.58 794.328 490.569 793.921 491.301 793.195L513.194 771.262C513.916 770.536 514.321 769.554 514.321 768.531C514.321 767.507 513.916 766.525 513.194 765.799L500.291 752.895C502.79 748.368 504.767 743.571 506.181 738.596H524.471C525.498 738.596 526.484 738.188 527.211 737.461C527.937 736.735 528.346 735.749 528.346 734.721V703.721C528.346 702.693 527.937 701.708 527.211 700.981C526.484 700.254 525.498 699.846 524.471 699.846Z" stroke="black" stroke-width="16" stroke-linejoin="round"/>
<circle cx="439.664" cy="719.664" r="29.8929" fill="black"/>
</g>
<g clip-path="url(#clip3_124_89)">
<path d="M806.235 703.611V734.611C806.235 735.638 805.827 736.624 805.1 737.351C804.374 738.077 803.388 738.486 802.36 738.486H784.07C782.656 743.46 780.68 748.257 778.18 752.784L791.084 765.688C791.806 766.414 792.211 767.396 792.211 768.42C792.211 769.444 791.806 770.426 791.084 771.152L769.19 793.084C768.459 793.81 767.47 794.218 766.439 794.218C765.408 794.218 764.419 793.81 763.688 793.084L750.784 780.181C746.257 782.68 741.46 784.656 736.485 786.071V804.361C736.485 805.388 736.077 806.374 735.35 807.101C734.624 807.827 733.638 808.236 732.61 808.236H701.61C700.583 808.236 699.597 807.827 698.87 807.101C698.144 806.374 697.735 805.388 697.735 804.361V786.071C692.761 784.656 687.964 782.68 683.437 780.181L670.533 793.084C669.801 793.81 668.812 794.218 667.782 794.218C666.751 794.218 665.762 793.81 665.03 793.084L643.137 771.152C642.415 770.426 642.01 769.444 642.01 768.42C642.01 767.396 642.415 766.414 643.137 765.688L656.04 752.784C653.541 748.257 651.565 743.46 650.15 738.486H631.86C630.833 738.486 629.847 738.077 629.12 737.351C628.394 736.624 627.985 735.638 627.985 734.611V703.611C627.985 702.583 628.394 701.597 629.12 700.871C629.847 700.144 630.833 699.736 631.86 699.736H650.15C651.565 694.761 653.541 689.964 656.04 685.437L643.137 672.533C642.411 671.801 642.003 670.813 642.003 669.782C642.003 668.751 642.411 667.762 643.137 667.031L665.03 645.137C665.762 644.411 666.751 644.003 667.782 644.003C668.812 644.003 669.801 644.411 670.533 645.137L683.437 658.041C687.964 655.541 692.761 653.565 697.735 652.151V633.861C697.735 632.833 698.144 631.847 698.87 631.121C699.597 630.394 700.583 629.986 701.61 629.986H732.61C733.638 629.986 734.624 630.394 735.35 631.121C736.077 631.847 736.485 632.833 736.485 633.861V652.151C741.46 653.565 746.257 655.541 750.784 658.041L763.688 645.137C764.419 644.411 765.408 644.003 766.439 644.003C767.47 644.003 768.459 644.411 769.19 645.137L791.084 667.031C791.81 667.762 792.217 668.751 792.217 669.782C792.217 670.813 791.81 671.801 791.084 672.533L778.18 685.437C780.68 689.964 782.656 694.761 784.07 699.736H802.36C803.388 699.736 804.374 700.144 805.1 700.871C805.827 701.597 806.235 702.583 806.235 703.611Z" fill="#EEEEEE"/>
<path d="M802.471 699.846H784.181C782.767 694.872 780.79 690.075 778.291 685.547L791.194 672.644C791.92 671.912 792.328 670.923 792.328 669.892C792.328 668.862 791.92 667.873 791.194 667.141L769.301 645.247C768.569 644.521 767.58 644.114 766.549 644.114C765.519 644.114 764.53 644.521 763.798 645.247L750.894 658.151C746.367 655.651 741.57 653.675 736.596 652.261V633.971C736.596 632.943 736.187 631.958 735.461 631.231C734.734 630.504 733.748 630.096 732.721 630.096H701.721C700.693 630.096 699.707 630.504 698.981 631.231C698.254 631.958 697.846 632.943 697.846 633.971V652.261C692.871 653.675 688.074 655.651 683.547 658.151L670.643 645.247C669.912 644.521 668.923 644.114 667.892 644.114C666.861 644.114 665.872 644.521 665.141 645.247L643.247 667.141C642.521 667.873 642.114 668.862 642.114 669.892C642.114 670.923 642.521 671.912 643.247 672.644L656.151 685.547C653.651 690.075 651.675 694.872 650.261 699.846H631.971C630.943 699.846 629.957 700.254 629.231 700.981C628.504 701.708 628.096 702.693 628.096 703.721V734.721C628.096 735.749 628.504 736.735 629.231 737.461C629.957 738.188 630.943 738.596 631.971 738.596H650.261C651.675 743.571 653.651 748.368 656.151 752.895L643.247 765.799C642.525 766.525 642.12 767.507 642.12 768.531C642.12 769.554 642.525 770.536 643.247 771.262L665.141 793.195C665.872 793.921 666.861 794.328 667.892 794.328C668.923 794.328 669.912 793.921 670.643 793.195L683.547 780.291C688.074 782.791 692.871 784.767 697.846 786.181V804.471C697.846 805.499 698.254 806.485 698.981 807.211C699.707 807.938 700.693 808.346 701.721 808.346H732.721C733.748 808.346 734.734 807.938 735.461 807.211C736.187 806.485 736.596 805.499 736.596 804.471V786.181C741.57 784.767 746.367 782.791 750.894 780.291L763.798 793.195C764.53 793.921 765.519 794.328 766.549 794.328C767.58 794.328 768.569 793.921 769.301 793.195L791.194 771.262C791.916 770.536 792.321 769.554 792.321 768.531C792.321 767.507 791.916 766.525 791.194 765.799L778.291 752.895C780.79 748.368 782.767 743.571 784.181 738.596H802.471C803.498 738.596 804.484 738.188 805.211 737.461C805.937 736.735 806.346 735.749 806.346 734.721V703.721C806.346 702.693 805.937 701.708 805.211 700.981C804.484 700.254 803.498 699.846 802.471 699.846Z" stroke="black" stroke-width="16" stroke-linejoin="round"/>
<circle cx="717.664" cy="719.664" r="29.8929" fill="black"/>
</g>
</g>
<defs>
<clipPath id="clip0_124_89">
<rect width="877" height="877" fill="white"/>
</clipPath>
<clipPath id="clip1_124_89">
<rect width="186" height="186" fill="white" transform="translate(68 626)"/>
</clipPath>
<clipPath id="clip2_124_89">
<rect width="186" height="186" fill="white" transform="translate(346 626)"/>
</clipPath>
<clipPath id="clip3_124_89">
<rect width="186" height="186" fill="white" transform="translate(624 626)"/>
</clipPath>
</defs>
</svg>
