<svg xmlns="http://www.w3.org/2000/svg" viewBox="0 0 4680 3120"><g data-name="3"><rect width="4680" height="3120" fill="#fff" opacity="0"/><ellipse cx="2340" cy="2586.68" fill="#e4e4f4" rx="1687.93" ry="173.32"/><path fill="#aeaece" d="M2957.79,2493c-259.59,0-492.77,9.28-653,24a9.28,9.28,0,0,0,.76-3.58c0-23.17-93.15-42-208-42s-208,18.79-208,42c0,22.7,89.34,41.18,201,41.94-4.93,3.08-7.49,6.23-7.49,9.42,0,39.65,391.69,71.8,874.86,71.8s874.86-32.15,874.86-71.8S3441,2493,2957.79,2493Z"/><ellipse cx="1288.71" cy="2564.77" fill="#aeaece" rx="305.4" ry="40.6"/><rect width="1886.19" height="1265.32" x="1479.03" y="360" fill="#e2902a" rx="91.62"/><rect width="1886.19" height="1265.32" x="1517.87" y="360" fill="#fab243" rx="91.62"/><path fill="#e2902a" d="M3360.46,449.33V1536c0,26.34-22.66,47.89-50.37,47.89H1611.84c-27.7,0-50.37-21.55-50.37-47.89V449.33c0-26.34,22.67-47.88,50.37-47.88H3310.09C3337.8,401.45,3360.46,423,3360.46,449.33Z"/><path fill="#c2ebee" d="M3321.62,449.33V1536c0,26.34-22.67,47.89-50.37,47.89H1611.84c-19.1,0-35.8-10.24-44.32-25.23l0,0a45.57,45.57,0,0,1-6-22.64V449.33c0-26.34,22.67-47.88,50.37-47.88H3271.25a51.45,51.45,0,0,1,38,16.58A46.29,46.29,0,0,1,3321.62,449.33Z"/><path fill="#99dde3" d="M3309.29,418,1567.52,1558.65l0,0a45.57,45.57,0,0,1-6-22.64V449.33c0-26.34,22.67-47.88,50.37-47.88H3271.25A51.45,51.45,0,0,1,3309.29,418Z"/><rect width="424.14" height="995.78" x="1748.81" y="518.05" fill="#59c7d2" rx="28.01"/><rect width="424.14" height="806.36" x="2256.61" y="518.05" fill="#59c7d2" rx="25.21"/><rect width="424.14" height="446.95" x="2764.42" y="518.05" fill="#59c7d2" rx="18.77"/><rect width="424.14" height="995.78" x="1732.53" y="501.81" fill="#fff" rx="28.01"/><rect width="354.02" height="472.61" x="1775.4" y="783.38" fill="#f4bd42" rx="16.74"/><rect width="424.14" height="806.36" x="2240.34" y="501.81" fill="#fff" rx="25.21"/><rect width="424.14" height="446.95" x="2748.15" y="501.81" fill="#fff" rx="18.77"/><rect width="354.02" height="105.22" x="1775.4" y="638.3" fill="#f4bd42" rx="8.8"/><rect width="354.02" height="17.81" x="1769.43" y="530.95" fill="#76cac0" rx="8.9"/><rect width="227.22" height="17.81" x="1769.43" y="572.89" fill="#2794d7" rx="8.9"/><rect width="354.02" height="105.22" x="1769.43" y="631.36" fill="#fff8e3" rx="8.8"/><circle cx="1837" cy="686.69" r="33.74" fill="#2794d7"/><rect width="354.02" height="472.61" x="1769.43" y="775.49" fill="#fff8e3" rx="16.74"/><path fill="#59c7d2" d="M2967.48,549.43A139.57,139.57,0,1,0,3106.62,700q.43-5.43.43-11A139.57,139.57,0,0,0,2967.48,549.43ZM3059.85,700a93,93,0,1,1,.65-11A93,93,0,0,1,3059.85,700Z"/><path fill="#ff4a66" d="M2958.37,544.81a139.58,139.58,0,1,0,139.15,150.53c.28-3.61.43-7.27.43-11A139.58,139.58,0,0,0,2958.37,544.81Zm0,232.6a93,93,0,1,1,93-93,94.28,94.28,0,0,1-.64,11A93,93,0,0,1,2958.37,777.41Z"/><path fill="#2794d7" d="M3098,684.39c0,3.68-.15,7.34-.43,11h-46.77a94.28,94.28,0,0,0,.64-11,93,93,0,0,0-93-93V544.81A139.58,139.58,0,0,1,3098,684.39Z"/><rect width="338.43" height="16.13" x="2798.26" y="855.09" fill="#99dde3" rx="8.07"/><rect width="237.76" height="16.13" x="2798.26" y="892.19" fill="#2794d7" rx="8.07"/><rect width="57.53" height="341.06" x="2384.44" y="542.12" fill="#ff4a66" rx="8.84"/><rect width="57.53" height="221.67" x="2464.46" y="661.51" fill="#59c7d2" rx="7.13"/><rect width="57.53" height="264.18" x="2304.03" y="619" fill="#fab243" rx="7.78"/><rect width="57.53" height="137.47" x="2541.84" y="745.7" fill="#2794d7" rx="5.61"/><path fill="#5555cd" d="M2283.23,863.37l13.13-17.71,31.3-42.25,37.84-51,32.7-44.14c5.31-7.16,10.9-14.18,16-21.52a3.06,3.06,0,0,1,.21-.29h-11.61l8.69,13,20.89,31.29,25.28,37.86,21.86,32.75c3.54,5.3,7,10.66,10.63,15.93l.15.22a6.9,6.9,0,0,0,5.81,3.33c2.58,0,4.34-1.37,5.8-3.33l11.83-15.78,28.37-37.89,34.21-45.68,29.57-39.49c4.79-6.39,9.89-12.65,14.41-19.24l.2-.27c2.12-2.82.55-7.63-2.41-9.2-3.53-1.86-6.94-.6-9.2,2.41L2597,668.14,2568.65,706l-34.21,45.68-29.57,39.49c-4.79,6.4-9.83,12.68-14.41,19.24a2.56,2.56,0,0,1-.2.26h11.61l-8.69-13-20.89-31.3L2447,728.52l-21.86-32.74c-3.54-5.31-7-10.67-10.63-15.93l-.15-.23a6.93,6.93,0,0,0-5.81-3.33c-2.57,0-4.35,1.37-5.8,3.33l-13.13,17.72-31.31,42.24-37.83,51-32.71,44.14c-5.3,7.15-10.94,14.16-16,21.53l-.21.28c-2.1,2.84-.56,7.63,2.41,9.2,3.52,1.86,7,.62,9.2-2.41Z"/><path fill="#5555cd" d="M2581.09,657.63l43.09-24.53a4.28,4.28,0,0,1,6.32,4.57l-10.06,49.39a4.28,4.28,0,0,1-7.83,1.41L2601.68,671a4.25,4.25,0,0,0-2.76-1.93l-16.59-3.47A4.29,4.29,0,0,1,2581.09,657.63Z"/><circle cx="2408.56" cy="684.86" r="12.89" fill="#fff"/><circle cx="2496.07" cy="813.34" r="12.89" fill="#fff"/><path fill="#59c7d2" d="M1779.2,1441.24c20.8-.61,39.78,12.57,53,28.6s22.31,35.07,34.09,52.22c4.08,5.93,8.67,11.8,14.93,15.35,8.07,4.59,17.8,4.75,26.86,6.73a67.64,67.64,0,0,1,48,41.72c14.13,38-6.7,86.7,19.11,118,7.22,8.76,17.23,14.69,25.74,22.19,20.7,18.25,31.88,45.4,35.91,72.69s1.54,55.09-1.14,82.55q-4,40.68-8.51,81.31c-1.84,16.49-8.48,37.54-25.08,37.72-6.92.07-13.14-4-18.81-7.9a608.41,608.41,0,0,1-113.73-102.92c-27.48-32-52.75-75.71-35.75-114.35,4-9,10.31-18.16,8.47-27.88-1.1-5.8-5-10.64-9-15-17.5-18.83-39.89-33-55.54-53.35s-22.84-51.19-6.6-71.12c7.31-9,19.48-17.55,16.52-28.74-1.24-4.71-5-8.22-8.48-11.65C1752.88,1541.21,1705.72,1443.39,1779.2,1441.24Z"/><path fill="#228e96" d="M1781.37,1493.88c17,20.82,32.89,42.52,48,64.76s29.16,45.17,42.49,68.51,25.76,47.21,37.43,71.42,22.54,48.81,32.67,73.71,19.31,50.18,27.83,75.67l6.24,19.17c2,6.4,4,12.84,6,19.26s3.77,12.9,5.66,19.34,3.53,13,5.3,19.45q10.27,39,18.13,78.54c1.28,6.6,2.45,13.21,3.67,19.82s2.23,13.25,3.35,19.87l3,19.92,2.59,20a2.5,2.5,0,0,1-5,.69v0c-3.89-26.46-8.52-52.8-14.1-78.94s-11.77-52.15-18.86-77.92c-1.82-6.43-3.6-12.87-5.46-19.28s-3.74-12.83-5.69-19.22-3.94-12.77-6-19.13l-6.26-19q-12.8-38-27.85-75.15t-32.17-73.41c-11.47-24.12-23.78-47.85-36.72-71.22s-26.79-46.25-41.44-68.59-30.1-44.17-46.43-65.34a2.28,2.28,0,0,1,3.58-2.84Z"/><path fill="#228e96" d="M1885.15,1667.93a3.85,3.85,0,0,1-.94-.12l-91.65-21.93a4,4,0,1,1,1.87-7.8l91.65,21.93a4,4,0,0,1-.93,7.92Z"/><path fill="#228e96" d="M1916.46,1718.66a4.24,4.24,0,0,1-1.34-.23,4,4,0,0,1-2.44-5.12,581.83,581.83,0,0,0,23.67-88.71,4,4,0,1,1,7.89,1.45,589.4,589.4,0,0,1-24,89.93A4,4,0,0,1,1916.46,1718.66Z"/><path fill="#228e96" d="M1967.53,1848.93a4,4,0,0,1-3.31-6.26,406.5,406.5,0,0,0,34.23-61.45,4,4,0,0,1,7.32,3.28,413.71,413.71,0,0,1-34.91,62.67A4,4,0,0,1,1967.53,1848.93Z"/><path fill="#99dde3" d="M2071.85,1291.82c20,12.62,30,36.06,37,58.62s12.4,46.44,27,65c14.3,18.1,35.85,29,51.83,45.65,34.19,35.59,37.16,93,18.8,138.76-11.13,27.76-29.5,56.19-22,85.14,2.92,11.22,9.54,21.06,14.48,31.56,13.94,29.62,14.12,64.37,5.92,96.07s-24.22,60.8-41.8,88.41c-8.5,13.36-18.47,27.29-33.49,32.31-24.66,8.25-49.53-10.9-67.32-29.87-26.59-28.36-50.44-60-64.61-96.24s-18-77.43-4.94-114c4.09-11.45,9.79-22.42,12-34.38,7.62-41.89-29-80.12-29.7-122.69-.74-47.85,43.89-89.13,38.12-136.64-2.12-17.44-11-33.35-14.73-50.51C1989.62,1309,2033.57,1267.62,2071.85,1291.82Z"/><path fill="#228e96" d="M2056.58,1346.26c16.62,59.92,27.19,121.26,35.6,182.73,4.21,30.74,7.6,61.6,10.54,92.48s5.35,61.83,7.3,92.79,3.2,62,4.09,93c.26,7.76.4,15.51.56,23.27l.24,11.63.14,11.63.14,11.64,0,11.63c0,7.76,0,15.52-.09,23.28-.27,31-1.1,62-2.7,93l-.64,11.63-.78,11.61-.81,11.61-.95,11.61c-.58,7.74-1.39,15.46-2.13,23.19-.36,3.86-.83,7.72-1.28,11.58l-1.35,11.57a2.5,2.5,0,0,1-5-.54v0c3.11-30.75,5.17-61.62,6.36-92.53s1.85-61.84,1.83-92.78v-11.6l-.1-11.6-.07-11.6-.17-11.6-.17-11.61-.27-11.6c-.18-7.73-.35-15.46-.63-23.19-.94-30.93-2.42-61.85-4.27-92.73s-4.13-61.76-6.94-92.57-6.17-61.57-10-92.27-8.37-61.3-13.74-91.76-11.58-60.75-19.22-90.69v0a2.29,2.29,0,0,1,4.42-1.18Z"/><path fill="#228e96" d="M2092.91,1580.72a4,4,0,0,1-2.36-.77l-33.72-24.64c-15.81-11.55-32.16-23.49-48.76-34.41a4,4,0,0,1,4.41-6.71c16.76,11,33.19,23,49.08,34.64l33.72,24.64a4,4,0,0,1-2.37,7.25Z"/><path fill="#228e96" d="M2104.86,1665.8a4,4,0,0,1-3-6.67c26.33-29.9,52.16-60.94,76.77-92.27a4,4,0,1,1,6.31,5c-24.71,31.44-50.63,62.6-77.06,92.62A4,4,0,0,1,2104.86,1665.8Z"/><path fill="#228e96" d="M2108.81,1814a4,4,0,0,1-2.2-.67,480.46,480.46,0,0,1-78.13-64.41,4,4,0,0,1,5.73-5.62,472.61,472.61,0,0,0,76.82,63.34,4,4,0,0,1-2.22,7.36Z"/><path fill="#228e96" d="M2115.94,1871a6.25,6.25,0,0,1-2.25-.4,5.3,5.3,0,0,1-3.31-3.89,4,4,0,0,1,6.28-4.09l53.64-38.48a4,4,0,0,1,4.68,6.52l-53.71,38.52A9.59,9.59,0,0,1,2115.94,1871Z"/><path fill="#c2ebee" d="M2372.93,1451.29c-19.81.4-37.25,13.81-49.11,29.68s-19.57,34.39-30,51.25c-3.6,5.83-7.69,11.62-13.47,15.3-7.46,4.73-16.71,5.34-25.23,7.65a64.38,64.38,0,0,0-43.74,41.92c-11.65,36.8,10.43,82.12-12.64,113.07-6.46,8.66-15.7,14.77-23.45,22.31-18.82,18.31-28.19,44.65-30.73,70.8s1.11,52.45,4.94,78.44q5.68,38.49,11.9,76.91c2.53,15.6,9.83,35.3,25.61,34.69,6.59-.26,12.32-4.36,17.53-8.39a580,580,0,0,0,103.32-103.19c24.62-31.75,46.61-74.46,28.63-110.4-4.21-8.42-10.65-16.79-9.35-26.11.77-5.57,4.24-10.36,7.86-14.66,15.77-18.72,36.39-33.2,50.32-53.32s19.32-49.74,2.94-67.93c-7.37-8.19-19.34-15.78-17.05-26.56,1-4.53,4.4-8.06,7.52-11.48C2402.64,1545.11,2442.89,1449.89,2372.93,1451.29Z"/><path fill="#228e96" d="M2377,1504.05c-14.52,20.89-28.27,42.32-41.06,64.3s-24.92,44.35-36.16,67.17-21.79,46-31.57,69.44-18.83,47.25-27.14,71.29-16,48.28-23,72.75l-5.06,18.4-4.78,18.46c-1.55,6.17-3,12.36-4.51,18.54s-2.86,12.39-4.29,18.59q-8.33,37.24-14.31,75c-4.09,25.11-7.26,50.37-9.74,75.7v0a2.49,2.49,0,0,1-5-.44l1.52-19.12,1.92-19.09c.75-6.35,1.44-12.71,2.24-19s1.65-12.69,2.56-19q5.57-38,13.54-75.55c1.38-6.24,2.68-12.51,4.13-18.74s2.93-12.45,4.47-18.66l4.75-18.6,5-18.52c6.91-24.64,14.49-49.1,22.92-73.26s17.68-48.05,27.63-71.63,20.63-46.87,32.26-69.67,24-45.25,37.23-67.14,27.44-43.23,42.64-63.81a2.29,2.29,0,0,1,3.72,2.67Z"/><path fill="#228e96" d="M2275.75,1670.67c-4.42-5.58-8.59-11.24-12.67-17.11a170.64,170.64,0,0,1-11.2-18.43c-1.66-3.21-3.19-6.49-4.63-9.79-.71-1.65-1.38-3.32-2-5s-1.28-3.35-1.89-5a192.22,192.22,0,0,1-6.12-20.51,2.51,2.51,0,0,1,4.73-1.61h0c2.9,6.45,5.55,13,8.31,19.38,1.42,3.19,2.75,6.42,4.25,9.54s2.93,6.28,4.5,9.36c3.1,6.18,6.59,12.18,10.11,18.23s7.19,12.18,10.48,18.46h0a2.3,2.3,0,0,1-3.84,2.5Z"/><path fill="#228e96" d="M2268.05,1697.63c8.36-3.37,16.79-6.51,25.22-9.62s16.89-6.15,25.34-9.19l12.69-4.52,6.36-2.21q3.18-1.14,6.37-2.21c8.49-2.94,17-5.82,25.63-8.47a2.5,2.5,0,0,1,1.81,4.65c-8.15,3.91-16.46,7.44-24.84,10.79-4.18,1.7-8.41,3.28-12.62,4.9s-8.47,3.11-12.73,4.61c-8.52,3-17.09,5.83-25.73,8.44s-17.32,5.1-26.11,7.19a2.29,2.29,0,0,1-1.39-4.36Z"/><path fill="#228e96" d="M2206.93,1859.12a211.72,211.72,0,0,1-10.55-18.52c-3.24-6.33-6.19-12.8-9-19.34-1.37-3.28-2.66-6.59-3.94-9.91s-2.45-6.67-3.55-10a202.2,202.2,0,0,1-5.72-20.54,2.51,2.51,0,0,1,4.76-1.51c2.77,6.48,5.35,13,8,19.49l3.93,9.73,2,4.87c.66,1.62,1.35,3.23,2,4.85,2.64,6.48,5.36,12.92,8.07,19.38s5.48,12.9,8.11,19.44a2.3,2.3,0,0,1-4.06,2.11Z"/><path fill="#228e96" d="M2202.59,1896.21c7.32-5.37,14.72-10.59,22.08-15.85s14.7-10.52,22-15.86l5.48-4,5.46-4,10.92-8c7.28-5.37,14.53-10.77,21.92-16a2.51,2.51,0,0,1,3.2,3.84c-6.58,6.34-13.48,12.33-20.55,18.09-3.52,2.91-7.14,5.69-10.74,8.5s-7.3,5.48-11,8.15c-7.43,5.31-15,10.45-22.7,15.32s-15.56,9.53-23.65,13.78a2.29,2.29,0,0,1-2.42-3.88Z"/><path fill="#c7c365" d="M1937.44,2105.46h0l0,0Z"/><path fill="#2794d7" d="M2247.93,2105.46,2208,2499.16a520.83,520.83,0,0,1-228.89.38l-1.68-.38-35.69-348-4.24-45.66Z"/><path fill="#157fbb" d="M2247.93,2105.46,2208,2499.16a519.39,519.39,0,0,1-55.6,9.48c63.31-507.55-210.66-357.52-210.66-357.52l-4.24-45.66Z"/><path fill="#e2902a" d="M2268,2027.87V2085a20.44,20.44,0,0,1-20.44,20.44l-112,4.25q-42.81,1.61-85.67,0l-112.07-4.25a20.44,20.44,0,0,1-20.44-20.44v-57.15a20.44,20.44,0,0,1,20.44-20.44l113,4.25q42.81,1.62,85.66,0l111.14-4.23A20.44,20.44,0,0,1,2268,2027.87Z"/><path fill="#fab243" d="M2268,2027.87v30.27a20.44,20.44,0,0,1-20.44,20.44l-112,4.24q-42.81,1.62-85.67,0l-112.07-4.24a20.44,20.44,0,0,1-20.44-20.44v-30.27a20.44,20.44,0,0,1,20.44-20.44l113,4.25q42.81,1.62,85.66,0l111.14-4.23A20.44,20.44,0,0,1,2268,2027.87Z"/><path fill="#59c7d2" d="M2772.92,1485.7c-6.62-2.16-24.93,196.07-24.93,196.07l317.58,29.15L3078.1,1594l-44.18-170.3-138.32-45.58Z"/><path fill="#f5ae97" d="M2395.47,1178.81h0c-9.88-5.48-17.67-13-26.28-10.67-37.22,10.18-74.17,9.37-105.18-13.57q-3.54-2.61-6.73-5.37a13.55,13.55,0,0,1-1.24-1.46h0c-3.2-4.4-2.09-9.11,1.46-10.85,2.38-1.17,5.85-1,9.85,1.44,6.49-6,14.73,8,50.63-1.9l44.59-22.84c10.27-5.19,34.34-14.26,50.25-13.77h0c13.25.19,25.27,5.77,36.09,16.07l103.56,51.9a29.49,29.49,0,0,0,25.07.52l48.43-23.69,52.29,31.74-15.4,69.47-65.49,26.44a68.57,68.57,0,0,1-62.19-5.54l-139.71-87.92Z"/><path fill="#ed856e" d="M2292.84,1137.89s-7.76,2.78-6.46,10.28,7.81,9.12,11.61,7.93c2.58-.8,23.79-6.55,42.7-11.95,9-2.57,17.29-2.91,23.86-5.67,0,0-16.61,2.43-27.94,1.32S2304.9,1147.07,2292.84,1137.89Z"/><path fill="#f5ae97" d="M2391.83,1125s-18.65-20-60-3.12c-20.35,8.33-32.23,13.17-39,15.93a8.58,8.58,0,0,0-4.42,11.85h0a8.59,8.59,0,0,0,10,4.34s40.57-12.3,55.73-14.48S2391.83,1125,2391.83,1125Z"/><path fill="#ed856e" d="M2256,1147.73a13.55,13.55,0,0,0,1.24,1.46q3.18,2.76,6.73,5.37c31,22.94,68,23.75,105.18,13.57,8.61-2.36,16.4,5.19,26.28,10.67-.38-.55-12.94-17.87-31.42-12.65C2345.26,1171.44,2294.55,1180.37,2256,1147.73Z"/><path fill="#5555cd" d="M3033.91,1423.7a220.11,220.11,0,0,1-99.83,63.41c-28.26,8.64-56,11.23-80.22,10.88a307.89,307.89,0,0,1-47.91-4.46c-20.44-3.53-33-7.83-33-7.83l-45.34-270.54-64.73,30.67a168.94,168.94,0,0,0,.45-20.63c-2.42-59.2-37.34-80.59-37.34-80.59,116.24-66.3,152.61-76.58,155.85-80.56,0,0,55.85-5.08,80.9-11.56,14.55-3.75,46.2,1.83,71.88,19.81,18.57,13,34,32.43,37.61,59.53,3.35,25.17,13.48,75.05,24.57,126.56C3014.14,1339,3033.91,1423.7,3033.91,1423.7Z"/><path fill="#3c3ba3" d="M2728.2,1192l-.62,23.15-64.73,30.67a168.94,168.94,0,0,0,.45-20.63Z"/><path fill="#3c3ba3" d="M2996.77,1258.39c-1.49,16.45-3.05,27-3.05,27l-15.55,84.31c-14,50.39-29.23,88.56-44.09,117.41-49.68,15.18-97.64,11.68-128.13,6.42l68.15-142.41,5.62-84.82s12.23-99.29,22-146.65c6.52-31.41,22.69-43.06,32.83-47.35,18.57,13,34,32.43,37.61,59.53C2975.55,1157,2985.68,1206.88,2996.77,1258.39Z"/><path fill="#3c3ba3" d="M2909.68,1265.5l-8.32,83.31-25.59,129.5L2853.86,1498a307.89,307.89,0,0,1-47.91-4.46c-20.44-3.53-33-7.83-33-7.83s62.14-111.16,67-155.89a942.08,942.08,0,0,1,28.8-150.37l39.17,27.24Z"/><path fill="#f5ae97" d="M2970.85,1285.39l-15.56,84.31c-52.13,188.19-122.43,205.79-122.43,205.79H2637.58c10.59-32.91,126.34-41.94,126.34-41.94l87.31-182.42,5.62-84.82,40.9-29.87,54.84,15.53Z"/><path fill="#5555cd" d="M2920.47,1069.84s-31.77,2.46-41.58,49.81-22,146.66-22,146.66,60.29-12,114,19.08C2970.85,1285.39,3001.56,1078,2920.47,1069.84Z"/><path fill="#f5ae97" d="M2832.86,1008.45l15.33,34.72c5.64,11.57,14.51,9.33,14.51,9.33-1.51,47.28-29.84,85.87-79.89,73.4-23.54-5.87-1-61.85-1-61.85l-5.26-19.58c-19.83,5-35.08,4.34-39.88,4-1.06-.07-1.61-.14-1.61-.14-62.93-3.41-54.13-127.53-54.13-127.53l2.12-26.49,4.37-55.22,83.75-12.49,9.47-1.39,4.78,9.61,49.07,98.47s39.55-21.06,44.16,21.14c2.14,19.86-11.15,32-24.51,39-.05,0-.05.05-.11.05-2.13,1.06-4.19,2.14-6.19,2.94a98.58,98.58,0,0,1-15.15,5.1s0,0-.08,0C2829.36,1002.36,2831.5,1005.37,2832.86,1008.45Z"/><path fill="#ed856e" d="M2842.51,953.37c-1.45-5.57,5.15-10,9.78-6.57,3.85,2.84,6.75,8.47,2.35,19.59-8.53,21.6-19.63,10.6-18,3.93s8.06-8.94,6-16.71Z"/><path fill="#072c35" d="M2752,917.54a7.37,7.37,0,0,1,4.28-3.08,9.21,9.21,0,0,1,6.16.43c3.78,1.53,8,6.13,7.25,10.37-.3,1.76,1.55,3.36,3.15,3.43,2,.08,3.12-1.4,3.43-3.15.65-3.71-1.08-7.34-3.22-10.25a19.86,19.86,0,0,0-8.6-6.66c-6.34-2.54-14.17-.49-18,5.31-2.32,3.55,3.19,7.15,5.51,3.6Z"/><path fill="#072c35" d="M2691.88,923.68c.78-3.5,5.41-6.64,8.9-6.9,4-.31,7.65,3.37,9.68,7a3.32,3.32,0,0,0,4.56.91,3.35,3.35,0,0,0,.91-4.56c-3.12-5.55-9.2-10.61-15.93-9.86-6.35.71-13.13,5.62-14.55,12.06a3.29,3.29,0,0,0,6.43,1.37Z"/><ellipse cx="2699.05" cy="938.95" fill="#072c35" rx="9.35" ry="5.86" transform="rotate(-83.38 2698.955 938.99)"/><ellipse cx="2752.41" cy="945.15" fill="#072c35" rx="9.86" ry="6.18" transform="rotate(-83.38 2752.32 945.185)"/><path fill="#ed856e" d="M2847.85,996.43a97.55,97.55,0,0,1-15.16,5.07s-14.1-.41-14.82-13.8C2818.67,989,2827.38,1002.48,2847.85,996.43Z"/><path d="M2899.85,849.12a1,1,0,0,1,0-1.85c4.95-2.22,17.69-7.29,22.43-2.9C2928,849.65,2916.85,856.3,2899.85,849.12Z"/><path d="M2896.32,843.36a1.39,1.39,0,0,1-2.15-1.32c1-7.32,4.46-25.72,13-28C2917.4,811.29,2917,829,2896.32,843.36Z"/><path fill="#ed856e" d="M2852.58,873.34l-18.08,59.89s-58.58-59.22-104.6-42c-24.12,9-38.56,7-46.84,3l4.37-55.21,83.75-12.5,14.25,8.22Z"/><path fill="#131e36" d="M2893.83,931.79h-.06A222.16,222.16,0,0,1,2878.32,952s-5.28-35.21-43.82-18.73c0,0-41.93-53.43-86.84-54.94-8-.26-16,1.79-23.37,5-11.36,4.82-41.3,12.87-59.16-12.85-22.78-32.81,1.35-60.75,3.18-62.71a.16.16,0,0,0,.06-.11s4.22-68.36,59-46c11.71,4.78,26,14.59,34.51,15.68,34.08,4.16,42.28-20.94,64.07,2.14,27.21,28.82,64.16,22.41,55.1,72.68C2881,852.09,2938.85,865.16,2893.83,931.79Z"/><path d="M2893.77,931.79A222.16,222.16,0,0,1,2878.32,952s-5.28-35.21-43.82-18.73c0,0-41.93-53.43-86.84-54.94-8-.26-16,1.79-23.37,5-11.36,4.82-41.3,12.87-59.16-12.85-22.78-32.81,1.35-60.75,3.18-62.71-.7,2.49-14.23,51.11,22.33,64.62,37.54,13.83,46.18-27.14,88-.77s77.62,22.76,89.42-.4C2868,871.14,2854.9,932.7,2893.77,931.79Z"/><path d="M2855.07,808.67s40.06,29.67-2.4,62.4C2852.67,871.07,2880.6,840.77,2855.07,808.67Z"/><path fill="#06252c" d="M2681.48,828s-3.12,38.12,50.87,31.63C2732.35,859.67,2697.05,860.29,2681.48,828Z"/><path d="M2687,792.8s5.94-38.22,45.25-20.71C2732.21,772.09,2697.38,765.52,2687,792.8Z"/><path d="M2740.12,800s-7.62,17.93,17.62,27.49c0,0,18.73,52.77,76.24,32,0,0-52.71,10.94-69.69-36C2764.29,823.45,2744.66,821.91,2740.12,800Z"/><path fill="#cb6655" d="M2740.33,1005.49c1.62,9.79-3.64,18.81-11.75,20.15s-16-5.51-17.6-15.3,4.09-16.1,12.2-17.43S2738.72,995.7,2740.33,1005.49Z"/><path fill="#ed856e" d="M2799.59,1018.47a37.92,37.92,0,0,1-23,26c-19.83,5-35.08,4.34-39.88,4C2736.68,1048.42,2782.37,1045.71,2799.59,1018.47Z"/><path fill="#fab243" d="M3538.24,1400.17s-38.58,34.59-45.64,86.65a123.18,123.18,0,0,0-1.1,16l-25.91,114.07h0l-53.61,80.6c-5.75,2.9-11.38,5.5-16.88,7.85l-.09,0c-20.75,8.87-39.65,14-56.78,16.34h0c-92.67,12.67-133.31-56.29-133.31-56.29,41.22-69.31,40.52-149.36,40.52-149.36l-63.77-34s10-52.16,48.38-131.89c31.21-64.87,78.87-68.65,95.56-67.81h0a44.47,44.47,0,0,1,6,.64l.26.07.35.06c1,.14,2.85.26,5.6.46.22,0,.43,0,.65,0l4.73.39,1.43.13,2.78.29,1.84.2c1.49.17,3.06.36,4.73.58.48.05,1,.11,1.45.19,2,.26,4.05.57,6.24.9,1.42.23,2.9.47,4.41.73l4.31.77,1.76.34,2.2.43,1.75.36q5.88,1.18,12.45,2.8l2.21.55c2.23.55,4.5,1.14,6.84,1.79a168,168,0,0,1,32.11,12.42,172.83,172.83,0,0,1,25.63,16C3481.58,1342.34,3521.63,1374.77,3538.24,1400.17Z"/><path fill="#e2902a" d="M3429.73,1306.62c-7.2,9.17-46.48,55.79-92.59,44-51.09-13-11.53-68.18-11.53-68.18a44.47,44.47,0,0,1,6,.64l.26.07.35.06c1,.14,2.85.26,5.6.46l.65,0,4.73.39,1.43.13,2.78.29,1.84.2c1.49.17,3.06.36,4.73.58.48.05,1,.11,1.45.19,2,.26,4.05.57,6.24.9,1.42.23,2.9.47,4.41.73l4.31.77,1.76.34,2.2.43,1.75.36q5.88,1.18,12.45,2.8l2.21.55c2.23.55,4.5,1.14,6.84,1.79A168,168,0,0,1,3429.73,1306.62Z"/><path fill="#131e36" d="M3477.13,1059.41l-16.55,134.15c-5.76,216.64,150.28,164.28,150.28,164.28-57.1-59.95,11.8-221.07-27.37-285.31S3477.13,1059.41,3477.13,1059.41Z"/><path d="M3497.3,1057.81s59.44-31.16,80.89,31.36-8.39,137.44-.61,178.42c0,0-11.74-27.76-3.41-101.65S3548.78,1043.94,3497.3,1057.81Z"/><path d="M3538,1112.93s11.75,40.29,3.77,91.3,9.13,63.38,9.13,63.38-23.35-11.2-16.41-74.8S3538,1112.93,3538,1112.93Z"/><path d="M3465.74,1067.67l16.51-11.72s61,29.87,3.68,115.23c-2.11,32.12-.64,87,31,106,47.66,28.53,19.2,64.56,93.94,80.7,0,0-156,52.36-150.28-164.28l8.65-70.08Z"/><path fill="#131e36" d="M3472,1223.18S3468.1,1332,3554.75,1349c0,0-64.13-28.07-82.45-128Z"/><path fill="#f5ae97" d="M3266.88,1050.84l-5.31,58-2.55,27.85s-12.62,123.65,53.5,128c0,0,13.91,1,19.83-2.82,0,0,.31,6.82-.14,14.61,0,.56-.09,1.15-.12,1.74-.53,7.32-1.77,15.11-4.61,18.69-5.31,6.73-12.72,41,23.34,41.66s62.11-39.43,62.11-39.43c-18.22-19.24-.39-70.59-.39-70.59a6.74,6.74,0,0,1,5.14-5,105.31,105.31,0,0,0,16-5.22c2.13-.8,4.3-1.92,6.55-3,.05,0,.06-.09.1-.08,14.15-7.26,28.31-19.87,26.31-40.75-4.35-44.49-46.21-22.83-46.21-22.83l-50.4-104.22-4.93-10.17-9.95,1.36Z"/><path fill="#ed856e" d="M3428.62,1173.07c-1.46-5.88,5.54-10.45,10.37-6.79,4,3,7,9,2.23,20.63-9.25,22.62-20.8,10.91-19,3.91s8.6-9.3,6.48-17.51Z"/><path fill="#072c35" d="M3328,1143.23a7.82,7.82,0,0,1,3.84-4,9.67,9.67,0,0,1,6.46-.73c4.21.85,9.44,4.81,9.49,9.35,0,1.87,2.24,3.17,3.91,2.94,2-.29,3-2,2.94-3.92,0-4-2.52-7.38-5.29-10a20.81,20.81,0,0,0-10.17-5.24c-7-1.42-14.75,2.2-17.57,8.92-1.72,4.12,4.67,6.79,6.39,2.68Z"/><path fill="#072c35" d="M3271.07,1133.86c1.48-3.46,6.89-5.8,10.55-5.4,4.23.48,7.24,5,8.64,9.11a3.46,3.46,0,1,0,6.37-2.7c-2.14-6.35-7.44-12.77-14.54-13.31-6.7-.51-14.68,3.25-17.41,9.63a3.46,3.46,0,1,0,6.39,2.67Z"/><ellipse cx="3277.85" cy="1156.09" fill="#072c35" rx="9.84" ry="6.17" transform="rotate(-82.69 3277.933 1156.053)"/><path fill="#cb6655" d="M3286,1208.78l40.81-.1a3.88,3.88,0,0,1,3.82,4.73c-2.06,8.92-8.38,27.2-25.53,26.09s-21.71-18-23-26.28A3.88,3.88,0,0,1,3286,1208.78Z"/><ellipse cx="3333.92" cy="1163.28" fill="#072c35" rx="10.37" ry="6.51" transform="rotate(-82.5 3342.912 1163.973)"/><path fill="#ed856e" d="M3433.69,1218.44a103.93,103.93,0,0,1-16,5.15s-14.83-.62-15.42-14.71C3403.08,1210.27,3412.09,1224.54,3433.69,1218.44Z"/><path fill="#5555cd" d="M3477.12,1059.43s31.46,47.58-11,112.85C3466.12,1172.28,3534.08,1120.91,3477.12,1059.43Z"/><path fill="#131e36" d="M3256.63,1100.27a67.59,67.59,0,0,0,4.51,13.25s64.79-4.34,81.39-38.58c0,0-16.37,55.23,64.67,94l5.34-7c7.19-9.27,18.25-15.15,30-14.77,11.21.42,22.74,6.13,24.14,27.36,0,0,65.68-126-41.82-148.65a61,61,0,0,0-7.34-9.76h0a71.85,71.85,0,0,0-42.19-23.25c-23.4-3.81-55.75,2.77-98.09,35.77C3277.18,1028.7,3247.87,1061.61,3256.63,1100.27Z"/><path d="M3256.63,1100.27a67.59,67.59,0,0,0,4.51,13.25s64.79-4.34,81.39-38.58c0,0-16.37,55.23,64.67,94l5.34-7c7.19-9.27,18.25-15.15,30-14.77,11.21.42,22.74,6.13,24.14,27.36-1-65.73-55.27-23.53-55.27-23.53-62.65-14.15-64.46-93.45-64.46-93.45C3327.08,1098.8,3256.63,1100.27,3256.63,1100.27Z"/><path d="M3365.49,1070.17s-2.47,48.74,51.68,58.89C3417.17,1129.06,3378.29,1107.4,3365.49,1070.17Z"/><path d="M3329.67,1050.89s-24.36,35.86-68.92,34.45C3260.75,1085.34,3293.31,1078.36,3329.67,1050.89Z"/><path d="M3389.23,1037.26c22.38-12.24,35.61-11.31,35.61-11.31a61,61,0,0,0-7.34-9.76h0a71.85,71.85,0,0,0-42.19-23.25C3413,1004.05,3389.23,1037.26,3389.23,1037.26Z"/><path fill="#ed856e" d="M3332.35,1261.91s.31,6.82-.14,14.61c0,.56-.09,1.15-.12,1.74,28.55-9.12,37.46-43.2,37.46-43.2C3360.45,1250.46,3332.35,1261.91,3332.35,1261.91Z"/><path fill="#d7274d" d="M3317.11,1557l-13.89-232.19a9.82,9.82,0,0,0-6.07-8.48L3135.33,1250a9.64,9.64,0,0,0-7.59.08h0l-8,3.6,2.53,2.61a9.52,9.52,0,0,0-.39,3.36l13.89,232.19a9.79,9.79,0,0,0,6.07,8.48l161.82,66.29A9.8,9.8,0,0,0,3317.11,1557Z"/><path fill="#ff4a66" d="M3296.14,1570l-161.83-66.28a9.82,9.82,0,0,1-6.06-8.49l-2.82-47.18-4.58-76.45-6.5-108.56a9.81,9.81,0,0,1,13.5-9.65l161.82,66.28a9.82,9.82,0,0,1,6.07,8.48l13.89,232.19A9.8,9.8,0,0,1,3296.14,1570Z"/><path fill="#aa2951" d="M3125.43,1448l-4.58-76.45,24.16-9.66,30-38.93s40.84,14.66,25.13,57.91S3158.76,1444,3125.43,1448Z"/><path fill="#f5ae97" d="M3243.09,1548.26c-11.49,26.78-25.15,42.94-35.37,52.18a53.82,53.82,0,0,1-39.34,14.13c-47.15-3.06-67.74-67.6-84.92-138.11-19.86-81.56,6.37-121.23,6.37-121.23s13.28-22.28,28.6-24.11a15.76,15.76,0,0,1,7.73,1s11.45-8.52,25.67-11.33c11-2.17,23.55-1,33.82,10.16,23.61,25.54,6.78,92.25-60.62,110.68l3,50.62.18,3a9.82,9.82,0,0,0,1.35,4.38h0a9.77,9.77,0,0,0,4.72,4.1Z"/><path fill="#ed856e" d="M3125,1441.6l3,50.62-11.26-54.55s50-9.31,67.26-59.62-32.23-57.29-32.23-57.29c11-2.17,23.55-1,33.82,10.16C3209.26,1356.46,3192.43,1423.17,3125,1441.6Z"/><polygon fill="#ed856e" points="3204.72 1532.55 3192.2 1546.85 3179.01 1522.02 3204.72 1532.55"/><path fill="#e2902a" d="M3492.6,1486.82a123.18,123.18,0,0,0-1.1,16l-25.91,114.07h0l-53.61,80.6c-5.75,2.9-11.38,5.5-16.88,7.85l-.09,0c-20.75,8.87-39.65,14-56.78,16.34,59.9-27.6,108.13-240.64,108.13-240.64l27.41,14.22Z"/><path fill="#f5ae97" d="M3641.21,1534.43s0,0,0,0c-4.67,28.38-32.12,41-32.12,41H3185.35a74.41,74.41,0,0,1,1-8.11c13.65-75.28,130.74-47.89,130.74-47.89l175.47-13.36-18.84-10.76c1.28-5.5,2.74-10.74,4.38-15.68h0c19.11-58.16,60.09-79.52,60.09-79.52C3628,1462.47,3645.84,1506.22,3641.21,1534.43Z"/><path fill="#ed856e" d="M3513.85,1505.48l-21.25.65-18.84-10.76c1.28-5.5,2.74-10.74,4.38-15.68h0C3479.33,1479.69,3513.85,1505.48,3513.85,1505.48Z"/><path fill="#ed856e" d="M3641.2,1534.46c-4.67,28.38-32.12,41-32.12,41H3185.35a74.41,74.41,0,0,1,1-8.11C3186.59,1566.32,3620.92,1579.48,3641.2,1534.46Z"/><rect width="1242.61" height="891.92" x="2519.47" y="1650.33" fill="#d7274d"/><rect width="1242.62" height="891.92" x="2201.54" y="1650.33" fill="#ff4a66"/><path fill="#d7274d" d="M3383.56,1771.52v649.53a60.61,60.61,0,0,0-60.6,60.6H2322.74a60.61,60.61,0,0,0-60.6-60.6V1771.52a60.6,60.6,0,0,0,60.6-60.6H3323A60.6,60.6,0,0,0,3383.56,1771.52Z"/><path fill="#fab243" d="M3383.56,1771.52v649.53a60.61,60.61,0,0,0-60.6,60.6H2345.55a60.61,60.61,0,0,0-60.6-60.6V1771.52a60.6,60.6,0,0,0,60.6-60.6H3323A60.6,60.6,0,0,0,3383.56,1771.52Z"/><rect width="1405.23" height="74.84" x="2441.12" y="1575.49" fill="#25257f" rx="14.86"/><rect width="1405.23" height="74.84" x="2119.33" y="1575.49" fill="#5555cd" rx="14.86"/><path fill="#f5ae97" d="M1273.12,1389.07c-22.61-21-85.57-82.15-110-133.3h0l94.17-44.91,43.93,75.08,170-103.93s8.18-47.32,56.61-61.12c25.48-7.23,40-2,48,4.64a28.83,28.83,0,0,1,9.15,13s63.33-54.34,83.67-32a11.17,11.17,0,0,1,3.18,8h0c-.84,22.23-67.6,51.84-67.6,51.84l18.54,42.14s-16.76,41.39-89.17,62.74l-2.26.68s-134.5,115.27-238.22,124.09A26,26,0,0,1,1273.12,1389.07Z"/><path fill="#f5ae97" d="M1604.11,1166.42s-54.57-13-82.37,27c-16.73,24.06-1.36,48.56,13.54,64.26a42,42,0,0,0,43.5,11.13c24.67-8,57.68-25.49,43.88-60.25Z"/><path fill="#ed856e" d="M1591,1198.63c11-22-6.13-60.1-6.13-60.1s63.33-54.34,83.67-32a11.17,11.17,0,0,1,3.18,8h0s-12.3-20-42.39.25-39,31.48-39,31.48S1606.66,1176.91,1591,1198.63Z"/><path fill="#ed856e" d="M1549.71,1258.71c-14.9-15.74-30.28-40.23-13.55-64.26a64.37,64.37,0,0,1,16.65-16.52c7.82,18.87,20,39.58,32.55,28.24a24.71,24.71,0,0,0,5.67-7.54s-15.16,14.1-24.19-15.14a77.5,77.5,0,0,0-4.21-11,38.06,38.06,0,0,0-2.66-5.19c-7.85-13.65-15.94-14.56-15.94-14.56s2.19,8,5.93,17.93a64.12,64.12,0,0,0-28.22,22.74c-16.72,24.08-1.38,48.57,13.55,64.26a41.86,41.86,0,0,0,34.78,12.93A42,42,0,0,1,1549.71,1258.71Z"/><path fill="#ed856e" d="M1273.12,1389.07c-22.56-21-85.31-81.89-109.88-133,7.53-2.59,13.91-4.84,15.77-5.59-5.14,2.85,52.19,100,104.3,125,52.28,25.1,227.33-100.4,227.33-100.4-26.31-20.3-26.08-54.14-26.08-54.14,11.81,37,48.91,50.36,48.91,50.36l-2.26.68s-134.5,115.27-238.22,124.09A26,26,0,0,1,1273.12,1389.07Z"/><path fill="#f5ae97" d="M1407,2464.94s-24.29,1.51-31.09,28c0,0-83.61-59.21-87.13-157.78,0-.48-.08-1-.08-1.44L1407,2347.4a204.26,204.26,0,0,0-9.33,49.28C1396.28,2417.25,1397.76,2441.69,1407,2464.94Z"/><path fill="#d7274d" d="M1407,2464.92s83.49,23.11,83.49,106.16h-138l-114.27-210.43,50.5-26.89s7.57,90.48,87.18,159.22C1375.9,2493,1376.57,2466.79,1407,2464.92Z"/><path fill="#ed856e" d="M1407,2347.4a204.26,204.26,0,0,0-9.33,49.28c-36.52-4.8-85-19.16-108.89-61.48,0-.48-.08-1-.08-1.44Z"/><path fill="#f5ae97" d="M1363.6,2480.74l-34.85,67.13-85.81-38.61-83.61-111,6.8-13.69,31.8-64,82.38,38s-.44,33.56,15.12,66C1307,2448.73,1327.47,2472.22,1363.6,2480.74Z"/><path fill="#ff4a66" d="M1147.4,2388.83s-37.65,12.14-21.86,91.1,9,91.1,9,91.1h51.73v-91.1s42.52,9.2,55.88,51.71,55.91,39.39,55.91,39.39h139.65s17-43.34-74.09-90.3c0,0-32.8,15-43.73,52.65,0,0-119-54.67-121.47-161.56Z"/><path fill="#ed856e" d="M1295.43,2424.57c-59.45,8.2-123.7-36.77-123.7-36.77l-5.6-3.2,31.8-64,82.38,38S1279.87,2392.16,1295.43,2424.57Z"/><path fill="#5555cd" d="M1420.07,1545.56v0c-6.5-33.26-10.71-61.26-11.39-80.65a534.49,534.49,0,0,0-56.68-13c-33.49-5.9-77.68-10.79-120.73-6.81-42,3.84-82.89,16.19-111.71,44.24,0,0-21.18-12.13-27.49,100.64-2.52,44.24-2.7,107.64,1.55,198.58,15.14,322.7-40.79,441-.49,585.54,0,0,30.47,16.11,75.12,22.14,4.48.64,9.1,1.15,13.9,1.51,48.27,3.85,109.66-5.44,166.84-55.58,0,0,120.59,42,139.07-1.69L1515.5,1974a294.11,294.11,0,0,0-11.94-103.38C1482.08,1799.31,1443.05,1663.49,1420.07,1545.56ZM1301.91,2146c-18-101.87-9.15-247.4-6.73-298.5,1.74,54.44,26.12,99,26.12,99C1321.3,1993.76,1301.91,2146,1301.91,2146Z"/><path fill="#5a1f20" d="M1295.73,1836.42s-.23,3.84-.55,10.84A56.15,56.15,0,0,1,1295.73,1836.42Z"/><path fill="#3c3ba3" d="M1305,1639.52s-14,176.39-9.86,208c1.74,54.44,26.12,99,26.12,99,0,47.25-19.39,199.48-19.39,199.48s5.1,35.33,19.43,96.21c6.79,28.84,11.22,59.73,27.65,99.93l21.14-365.89a104.07,104.07,0,0,0-4.66-43.55C1344.33,1868.71,1312.42,1691.88,1305,1639.52Z"/><path fill="#3c3ba3" d="M1231.27,1445.06c-17.38,41-60.52,121.5-139.2,144.88,6.31-112.77,27.49-100.64,27.49-100.64C1148.38,1461.25,1189.28,1448.9,1231.27,1445.06Z"/><path fill="#3c3ba3" d="M1420.07,1545.52c-35.36-19.35-57.23-64.78-68.07-93.65a534.49,534.49,0,0,1,56.68,13C1409.36,1484.26,1413.57,1512.26,1420.07,1545.52Z"/><path fill="#3c3ba3" d="M1182.15,2397.71c-4.8-.36-9.42-.87-13.9-1.51-5.63-75.43-28.56-152.45-22.94-396.55,6.5-280.71-11.52-468.91-11.71-470.74l13.64-1.37c.18,1.88,18.3,190.81,11.8,472.43C1153.32,2246.36,1176.8,2326.85,1182.15,2397.71Z"/><path fill="#99dde3" d="M1384.73,1329.36c4.27,70.51,24,135.51,24,135.51s-11.19-3.1-116.49,33.83-184.73,0-184.73,0,27-96.69,25.75-212.61v0c-.45-40.12-4.3-82.53-13.84-124-31-135.07,14.23-156.78,14.23-156.78h-4.75L1298,935.51s3.09,23.69,66.92,100,57.7,101.17,28.86,193q-1.93,6.16-3.44,12.62C1383.89,1268.49,1382.92,1299.42,1384.73,1329.36Z"/><path fill="#fff8e3" d="M1276.14,1034c-71.35,13.1-100-63.2-100-63.2v-.06c10.13-4.79,15.08-6,15.08-6l100.63,6.93,19.88,4.46C1315,1002.13,1309.06,1028,1276.14,1034Z"/><path fill="#f5ae97" d="M1186.78,886.63s0,0,.09.09c2.2,1.24,4.3,2.53,6.39,3.49a106.68,106.68,0,0,0,15.76,6.47,6.79,6.79,0,0,1,4.81,5.38s14.14,52.32-5.66,70.36c0,0,23.25,43.11,59.67,45.19s29.89-32.23,26.65-40.27c-2-4.87-3.37-13.05-3.25-20.94s1-14.75,1-14.75C1297.88,946,1312,946,1312,946c67,.54,63.52-125.08,63.52-125.08l-.5-28.27-1-58.9-88.12-18.8-9.93-2.12-5.74,9.88L1211.6,824s-40.6-25-48.31,19.56C1159.72,864.48,1173.06,878.26,1186.78,886.63Z"/><path fill="#ed856e" d="M1201.77,844.87c1.91-5.82-4.81-11-10-7.62-4.27,2.76-7.72,8.54-3.79,20.64,7.63,23.5,20.15,12.56,18.88,5.36s-8-10-5.22-18.14Z"/><path fill="#072c35" d="M1366.79,821.78c.14-3.81-3.79-8.29-7.31-9.5-4.07-1.4-8.78,1.42-11.84,4.59a3.53,3.53,0,0,1-4.94-.29,3.56,3.56,0,0,1,.29-4.94c4.7-4.87,12.33-8.45,19-5.87,6.34,2.43,12,9.31,11.74,16.32a3.5,3.5,0,1,1-7-.31Z"/><ellipse cx="1355.06" cy="839.02" fill="#072c35" rx="6.24" ry="9.95" transform="rotate(-3.07 1354.59 838.637)"/><ellipse cx="1297.99" cy="842.08" fill="#072c35" rx="6.58" ry="10.49" transform="rotate(-3.07 1297.557 841.777)"/><path fill="#ed856e" d="M1193.26,890.24a103.85,103.85,0,0,0,15.77,6.39s15,.48,16.64-13.68C1224.74,884.29,1214.59,898,1193.26,890.24Z"/><path fill="#072c35" d="M1300.39,818.64a7.82,7.82,0,0,0-4.68-3.1,9.74,9.74,0,0,0-6.53.7c-4,1.77-8.26,6.83-7.3,11.31.4,1.85-1.51,3.63-3.21,3.77-2.09.16-3.37-1.36-3.77-3.22-.83-3.92.86-7.83,3-11a21.11,21.11,0,0,1,8.89-7.42c6.63-2.95,15-1.08,19.3,4.93,2.61,3.68-3.11,7.72-5.71,4Z"/><path fill="#ed856e" d="M1374.27,795.93s-14.86,6.59-33.44-26.89c0,0-1.51,38.49-81.23,42.42,0,0-31.34.35-48,12.55l-4.67-45,129.49-65.64,28.77-3.82Z"/><path fill="#141241" d="M1397.44,979.5c-10.53-48.23,8.39-137.83-2.34-222-10.64-83.39-67.37-74.59-67.37-74.59-38-47.46-104.08-42.66-151.92-10.73h0c-34.68,23.17-59.81,60.57-57.47,102.66a447.17,447.17,0,0,1-1.07,65.14,314.38,314.38,0,0,1-21.56,88.56c-6.1,15.23-13,37.07-11.09,54.12,3.31,29.25,43.71,25.8,105.67,90,28.11,29.12,55.78,33,72.22,31.42a7.87,7.87,0,0,0,5.57-12.44c-34.91-48.92-47.1-155.69-49.69-182.7a14.73,14.73,0,0,0-8.8-12.26,11.19,11.19,0,0,0-2.66-.77s-20.47-8-31.34-17.77a40.6,40.6,0,0,1-7.17-8.46,36.75,36.75,0,0,1-5.54-21,42.87,42.87,0,0,1,3-14.86c11.89-30.26,45.72-9.83,45.72-9.83,3.09-7,12.05-11.58,21-14.52a99.19,99.19,0,0,1,29.83-4.74c74.61-1.19,77.35-54.38,77.35-54.38s6.35,31.09,34.55,45.58a267,267,0,0,1-.22,59.06c-2.09,18.18-6.44,38.3-14.9,56.89-.34.71-.67,1.47-1.06,2.14-.08.19-.2.48-.37.85-10.68,21.24-25.44,28.59-38.25,30.33a54.57,54.57,0,0,1-27.28-3.57c-4.25,20.52,2.29,35.69,2.29,35.69s59.13,38.69,101.65,43.72S1401.5,998.07,1397.44,979.5Z"/><path d="M1310.21,721.16s-7.83,41.58-64,44.58a67.19,67.19,0,0,0-26.92,6.83c-9.67,4.93-19.45,13-19.88,25.78,0,0-4.86-41.42,57.77-46.84a62,62,0,0,0,24.79-7.77C1292,738.16,1304.48,729.93,1310.21,721.16Z"/><path fill="#ed856e" d="M1292.2,941.65a105.75,105.75,0,0,0-1.4,15.05c-29.49-15-35.65-42.37-35.65-42.37C1269.5,932.83,1292.2,941.65,1292.2,941.65Z"/><path d="M1162.57,848.66l.28,0a42.72,42.72,0,0,1,3-14.85c11.88-30.27,45.72-9.84,45.72-9.84,3.09-7,12.05-11.58,21-14.52a99.19,99.19,0,0,1,29.83-4.74c74.61-1.19,77.35-54.38,77.35-54.38s6.34,31.09,34.55,45.58c-15.71-11.16-35.53-63.85-35.53-63.85s-18.57,58.69-75.6,58-54.5,23.81-54.5,23.81S1156.28,792.85,1162.57,848.66Z"/><path d="M1384.12,844.66s-5.64,103.13,1.07,150a2.29,2.29,0,0,1-4.46,1C1374.08,974.28,1369,930.62,1384.12,844.66Z"/><path d="M1135,862.87a708.45,708.45,0,0,1-25.92,80.23c-16.84,43.06,9.56,69.71,9.56,69.71s-14.55-38.89.23-71.8a145.81,145.81,0,0,0,8.38-23.24C1131.29,902.19,1136.38,878.49,1135,862.87Z"/><path d="M1159,890.44s-6.25,44.94,3.69,109.22C1162.71,999.66,1138.24,961.12,1159,890.44Z"/><path fill="#cb6655" d="M1310.2,900c-2.91,10.29,1.63,20.58,10.14,23s17.78-4,20.69-14.25-2.43-17.72-11-20.13S1313.11,889.68,1310.2,900Z"/><path fill="#40a899" d="M1137.05,1283.58s23.24,85.79,88.62,89S1406,1154.07,1406,1154.07l-113.79,37.5-84,71.76-65.08-15.15Z"/><path fill="#40a899" d="M1212.9,1104.42l23.93,77.39,52.77-53.4,13.41,75.67-44.54,66.77s-43.91,9.5-49,0-43-72.22-43-72.22l-15.78-55.51Z"/><path fill="#f5ae97" d="M1569,979.71c-3.43,0-7.38,2.16-10.62,7.31-11-3.29-12.55,17.73-60,26.73l-64.88-1.07c-14.91-.16-48.09,3.06-66.29,12.72h0c-15.29,7.8-26.06,21.16-32.76,39.32l-4.92,8-98,136.8-3.18-17.94h0l-18.68-85.36-93.15,31.12s21.85,198.49,89,213c90.5,19.5,225.31-240.63,225.31-240.63.57-.77,1.13-1.55,1.67-2.33v0c8.35-12,13.1-25.24,24.46-27.43,49.08-9.43,91.58-31.5,114.52-75.9,1.74-3.37,3.34-6.74,4.76-10.09a18.2,18.2,0,0,0,.59-2.4v0C1578.07,984.54,1574.09,979.71,1569,979.71Z"/><path fill="#ed856e" d="M1528.44,1001.11s10.61-1.2,13.39,8.26-3.87,15.07-9,15.86c-3.45.53-31.4,6-56.47,10.5-11.9,2.15-21.77,6.52-31,7.06,0,0,20.71-6.68,33.24-14.44S1519.67,1018.68,1528.44,1001.11Z"/><path fill="#f5ae97" d="M1406,1042.72s10.23-34,68-37.91c28.42-1.95,45-3.12,54.5-3.8a11.11,11.11,0,0,1,11.91,11.24h0a11.12,11.12,0,0,1-9.17,10.78s-54.2,8.9-73.07,15S1406,1042.72,1406,1042.72Z"/><path fill="#ed856e" d="M1576.86,991.51a20,20,0,0,1-.6,2.4c-1.42,3.35-3,6.72-4.76,10.09-22.94,44.4-65.44,66.47-114.52,75.9-11.36,2.19-16.11,15.41-24.46,27.43.13-.85,4.83-28.18,29.3-32.67C1486.68,1070.08,1550.74,1051.48,1576.86,991.51Z"/><path fill="#fff8e3" d="M1130.18,1229.37s-9.34,39.53-3.06,52c10.66,21.17,23.51-36.22,53.59-34.18s12.16-39.35,32.08-49.11,71.8-9.39,12.88-34.48c-42.14-17.95-70.91-12.71-70.91-12.71L1132,1196.82Z"/><path fill="#99dde3" d="M1202.76,1057.49c-5.35-24.79-27.21-43-52.57-42.65-14.92.21-29.71,6.69-37.94,27.47-20.94,52.89,17.93,187.06,17.93,187.06s33.74-60.19,95.49-65.77Z"/><path fill="#1253a4" d="M1956.26,551.87H1469.91a24.58,24.58,0,0,0-24.51,24.52V777.16a24.58,24.58,0,0,0,24.51,24.51h42.64L1469,854c-4.55,5.46-.27,12.85,5.72,13.12v0h19.94l-.15-8.56,117.4-56.89h344.32a24.58,24.58,0,0,0,24.51-24.51V576.39A24.58,24.58,0,0,0,1956.26,551.87Z"/><path fill="#2794d7" d="M1975.16,551.87H1488.81a24.58,24.58,0,0,0-24.51,24.52V777.16a24.58,24.58,0,0,0,24.51,24.51h42.64L1487.93,854c-5.5,6.6,1.88,16,9.61,12.29l133.3-64.6h344.32a24.58,24.58,0,0,0,24.51-24.51V576.39A24.58,24.58,0,0,0,1975.16,551.87Z"/><rect width="439.31" height="16.96" x="1509.76" y="613.07" fill="#1253a4" rx="8.48"/><rect width="286.19" height="16.96" x="1509.76" y="649.6" fill="#1253a4" rx="8.48"/><rect width="418.94" height="16.96" x="1509.76" y="686.12" fill="#1253a4" rx="8.48"/><circle cx="1519.61" cy="739.45" r="8.06" fill="#1253a4"/><circle cx="1548.34" cy="739.45" r="8.06" fill="#1253a4"/><circle cx="1577.06" cy="739.45" r="8.06" fill="#1253a4"/><rect width="439.31" height="16.96" x="1513.43" y="610.74" fill="#fff" rx="8.48"/><rect width="286.19" height="16.96" x="1513.43" y="647.26" fill="#fff" rx="8.48"/><rect width="418.94" height="16.96" x="1513.43" y="683.79" fill="#fff" rx="8.48"/><circle cx="1523.29" cy="737.12" r="8.06" fill="#fff"/><circle cx="1552.01" cy="737.12" r="8.06" fill="#fff"/><circle cx="1580.73" cy="737.12" r="8.06" fill="#fff"/><path fill="#1253a4" d="M3565.31,582H2976a29.78,29.78,0,0,0-29.7,29.7V854.93a29.79,29.79,0,0,0,29.7,29.7h51.66L2975,948c-5.51,6.62-.33,15.58,6.92,15.9v0H3006l-.18-10.36,142.25-68.94h417.2a29.79,29.79,0,0,0,29.7-29.7V611.66A29.79,29.79,0,0,0,3565.31,582Z"/><path fill="#2794d7" d="M3588.2,582H2998.91a29.79,29.79,0,0,0-29.7,29.7V854.93a29.79,29.79,0,0,0,29.7,29.7h51.67L2997.84,948c-6.65,8,2.29,19.43,11.66,14.89L3171,884.63H3588.2a29.8,29.8,0,0,0,29.71-29.7V611.66A29.8,29.8,0,0,0,3588.2,582Z"/><rect width="321.83" height="20.55" x="3024.3" y="656.12" fill="#1253a4" rx="7.99"/><rect width="505.99" height="20.55" x="3024.3" y="700.37" fill="#1253a4" rx="10.27"/><rect width="425.51" height="20.55" x="3024.3" y="744.63" fill="#1253a4" rx="9.41"/><circle cx="3036.24" cy="809.24" r="9.76" fill="#1253a4"/><circle cx="3071.04" cy="809.24" r="9.76" fill="#1253a4"/><circle cx="3105.85" cy="809.24" r="9.76" fill="#1253a4"/><rect width="321.44" height="20.55" x="3028.75" y="653.28" fill="#fff" rx="10.27"/><rect width="503.17" height="20.55" x="3028.75" y="697.54" fill="#fff" rx="10.27"/><rect width="424.98" height="20.55" x="3028.75" y="741.8" fill="#fff" rx="10.27"/><circle cx="3040.69" cy="806.41" r="9.76" fill="#fff"/><circle cx="3075.49" cy="806.41" r="9.76" fill="#fff"/><circle cx="3110.3" cy="806.41" r="9.76" fill="#fff"/></g></svg>